<svg width="91" height="114" viewBox="0 0 91 114" fill="none" xmlns="http://www.w3.org/2000/svg">
<rect x="0.732056" width="90" height="114" rx="4" fill="white"/>
<path fill-rule="evenodd" clip-rule="evenodd" d="M50.1593 19.4161H41.8862V15.9878C41.8862 14.358 41.2419 12.8092 40.0899 11.6572C38.9379 10.5052 37.3891 9.86304 35.7614 9.86304C34.2552 9.86304 32.8131 10.4113 31.6888 11.414C30.7374 12.263 30.0718 13.3873 29.7902 14.6289H29.7838C29.5576 14.6033 29.3315 14.5905 29.1075 14.5905C27.4776 14.5905 25.9288 15.2348 24.7768 16.3868C23.6248 17.5388 22.9827 19.0876 22.9827 20.7153C22.9827 21.4982 23.132 22.2748 23.4264 23.0022L23.4776 23.1196C23.3112 23.3265 23.1854 23.5654 23.1064 23.8172C21.7944 24.0028 20.5806 24.6129 19.6419 25.5516C18.4899 26.7036 17.8499 28.2524 17.8499 29.8801C17.8499 30.3537 17.9054 30.8273 18.0142 31.2881C17.436 31.7681 17.1011 32.4785 17.1011 33.238C17.1011 33.7713 17.2654 34.2854 17.5747 34.7142C17.4595 34.9084 17.355 35.111 17.2611 35.3158C16.8003 36.3014 16.5656 37.3745 16.5656 38.4625C16.5656 40.4486 17.3486 42.3366 18.7523 43.7425C19.7379 44.7281 20.9816 45.4214 22.3384 45.735C22.475 46.119 22.7182 46.4582 23.0382 46.7121C22.9656 47.0897 22.9294 47.4758 22.9294 47.8598C22.9294 49.4897 23.5715 51.0385 24.7235 52.1905C25.5278 52.9948 26.5411 53.5601 27.6462 53.8204C27.883 54.7846 28.7512 55.4737 29.756 55.4737C29.7731 55.4737 29.788 55.4737 29.8051 55.4716C30.1784 56.1734 30.6798 56.8028 31.2814 57.3233C32.4483 58.3345 33.9288 58.8849 35.4755 58.8849C37.1843 58.8849 38.8057 58.215 40.0131 57.0076C41.2206 55.8001 41.8926 54.1788 41.8926 52.4721V38.5137H33.8136C33.6024 37.8076 33.0435 37.2508 32.3374 37.0374V31.7148C33.0435 31.5036 33.6024 30.9468 33.8136 30.2385H41.8862V20.6897H50.1593V19.4161ZM25.675 17.287C26.5859 16.374 27.8147 15.8662 29.1054 15.8662C29.2846 15.8662 29.4659 15.8748 29.643 15.8961C29.7603 15.9089 29.8755 15.926 29.9907 15.9473L32.8174 18.823C32.4376 19.2369 32.2264 19.7745 32.2264 20.342C32.2264 20.4444 32.2328 20.5446 32.2456 20.6449L26.8398 23.0705C26.428 22.582 25.8222 22.2961 25.1779 22.2961C24.9646 22.2961 24.7555 22.3281 24.5528 22.3878C24.3566 21.8545 24.2584 21.2892 24.2584 20.7153C24.2563 19.4268 24.764 18.198 25.675 17.287ZM31.0638 31.7126V33.6774L22.1315 32.8348C22.0526 32.3356 21.8243 31.8726 21.4787 31.5036L24.604 26.5628C24.7896 26.614 24.9838 26.6396 25.1779 26.6396C25.6024 26.6396 26.0163 26.5158 26.3683 26.2833L29.6408 28.8113C29.5448 29.063 29.4958 29.3297 29.4958 29.6006C29.4958 30.5798 30.14 31.4353 31.0638 31.7126ZM20.54 26.4497C21.2376 25.75 22.1315 25.2828 23.1022 25.1078C23.1896 25.3937 23.3368 25.6561 23.531 25.8822L20.4056 30.823C20.156 30.7441 19.8958 30.7014 19.6312 30.7014C19.4862 30.7014 19.3411 30.7142 19.1982 30.7398C19.147 30.4561 19.1214 30.1681 19.1214 29.8801C19.1192 28.5916 19.627 27.3628 20.54 26.4497ZM22.2958 44.4081C21.2974 44.118 20.3864 43.5782 19.6504 42.8422C18.4856 41.6774 17.8371 40.1116 17.8371 38.4625C17.8371 37.5601 18.0312 36.6705 18.411 35.8513C18.46 35.7446 18.5134 35.6401 18.5688 35.5377C18.9016 35.6913 19.2622 35.7702 19.6312 35.7702C19.7422 35.7702 19.851 35.7638 19.9598 35.7489L23.0147 43.3201C22.6691 43.6017 22.4174 43.9814 22.2958 44.4081ZM21.1374 35.2732C21.5384 34.9766 21.8435 34.567 22.012 34.0977L31.0638 34.951V37.0353C30.14 37.3126 29.4958 38.1702 29.4958 39.1473C29.4958 39.431 29.5491 39.7105 29.6558 39.9708L25.6067 43.2134C25.2462 42.9681 24.8216 42.838 24.3822 42.838C24.3203 42.838 24.2563 42.8401 24.1944 42.8444L21.1374 35.2732ZM27.723 52.5254C26.9272 52.3014 26.2019 51.8748 25.6174 51.2902C24.7064 50.3772 24.1966 49.1505 24.1966 47.8598C24.1966 47.6316 24.2115 47.4033 24.2435 47.1772C24.2883 47.1793 24.3352 47.1814 24.38 47.1814C24.5827 47.1814 24.7832 47.1537 24.9774 47.0982L28.0899 51.9046C27.9342 52.0881 27.8104 52.2993 27.723 52.5254ZM30.6328 51.3158C30.3555 51.1921 30.0568 51.1302 29.7518 51.1302C29.5491 51.1302 29.3486 51.158 29.1566 51.2134L26.044 46.407C26.1806 46.2428 26.2936 46.0614 26.379 45.8652L33.7262 46.6652C33.7774 46.9297 33.8755 47.1814 34.0184 47.4097L30.6328 51.3158ZM39.1065 56.1052C38.1401 57.0716 36.8387 57.6113 35.4713 57.6113C34.2339 57.6113 33.0456 57.1718 32.1091 56.3612C31.6803 55.99 31.3155 55.5484 31.0275 55.0577C31.5886 54.6502 31.9235 53.9996 31.9235 53.2998C31.9235 52.8881 31.8083 52.4913 31.5928 52.1457L34.9806 48.2374C35.2579 48.3612 35.5566 48.4252 35.8595 48.4252C36.0984 48.4252 36.3374 48.3868 36.5635 48.3078L40.4654 53.6966C40.2414 54.6097 39.7699 55.4417 39.1065 56.1052ZM40.6126 51.7318L37.7582 47.7894L40.6126 49.0545V51.7318ZM40.6126 47.6636L38.0163 46.5137C38.027 46.4284 38.0312 46.3409 38.0312 46.2534C38.0312 45.7948 37.8883 45.3532 37.6195 44.982L40.6105 41.0353V47.6636H40.6126ZM33.8136 39.7852H39.9705L36.6083 44.2161C36.3672 44.1286 36.1155 44.0838 35.8574 44.0838C35.6889 44.0838 35.5203 44.103 35.356 44.1414L33.3144 40.6513C33.5448 40.4038 33.7155 40.1073 33.8136 39.7852ZM34.2638 44.7836C34.0974 44.9649 33.9608 45.1718 33.8648 45.4001L26.5155 44.6001C26.4899 44.4657 26.4515 44.3334 26.4003 44.2076L30.4494 40.967C30.8163 41.2209 31.2515 41.3553 31.6995 41.3553C31.8744 41.3553 32.0494 41.334 32.2179 41.2934L34.2638 44.7836ZM34.2894 28.9649H33.8115C33.5342 28.039 32.6766 27.3948 31.6995 27.3948C31.2366 27.3948 30.7907 27.5398 30.4174 27.8065L27.179 25.3062C27.292 25.0417 27.3475 24.758 27.3475 24.4678C27.3475 24.391 27.3432 24.3142 27.3347 24.2396L32.7683 21.8012C33.163 22.262 33.7262 22.5436 34.3342 22.5798L34.2894 28.9649ZM33.9459 18.1574L30.9848 15.143C31.1726 14.07 31.7208 13.0929 32.5336 12.3676C33.4254 11.5718 34.5667 11.1366 35.7593 11.1366C37.0499 11.1366 38.2766 11.6444 39.1897 12.5574C40.1006 13.4705 40.6105 14.6972 40.6105 15.9878V19.4161H38.4707H36.5187C36.1582 18.6161 35.3582 18.0956 34.4728 18.0956C34.2958 18.0956 34.1187 18.1148 33.9459 18.1574ZM40.6126 28.9649H35.5608L35.6056 22.2769C36.1859 21.9356 36.5849 21.3532 36.6894 20.6897H38.4729H40.6126V28.9649Z" fill="#7A86DD"/>
<path fill-rule="evenodd" clip-rule="evenodd" d="M74.7886 35.3157C74.6926 35.1109 74.588 34.9104 74.4728 34.7141C74.7822 34.2832 74.9486 33.7712 74.9486 33.2379C74.9486 32.4805 74.6136 31.7701 74.0355 31.288C74.1443 30.8272 74.1998 30.3536 74.1998 29.88C74.1998 28.2501 73.5555 26.7013 72.4035 25.5493C71.4648 24.6128 70.2531 24.0027 68.9411 23.8171C68.8622 23.5632 68.7342 23.3264 68.5699 23.1195L68.619 23.0064C68.9134 22.2768 69.0627 21.5003 69.0627 20.7173C69.0627 19.0875 68.4184 17.5387 67.2686 16.3867C66.1166 15.2347 64.5678 14.5947 62.94 14.5947C62.7139 14.5947 62.4878 14.6075 62.2638 14.6331H62.2552C61.9736 13.3915 61.3102 12.2672 60.3587 11.4181C59.2344 10.4155 57.7923 9.86719 56.2862 9.86719C54.6563 9.86719 53.1075 10.5093 51.9555 11.6613C50.8035 12.8133 50.1635 14.3621 50.1635 15.9899V30.2384H58.236C58.4494 30.9445 59.0062 31.5013 59.7123 31.7147V37.0373C59.0062 37.2485 58.4494 37.8053 58.236 38.5136H50.1635V47.6763H41.8904V48.9477H50.1635V52.472C50.1635 54.1787 50.8355 55.8 52.0408 57.0075C53.2483 58.2149 54.8718 58.8848 56.5784 58.8848C58.123 58.8848 59.6035 58.3323 60.7726 57.3232C61.3742 56.8027 61.8755 56.1733 62.2488 55.4715C62.2659 55.4736 62.2808 55.4736 62.2979 55.4736C63.3006 55.4736 64.171 54.7845 64.4056 53.8203C65.5128 53.56 66.524 52.9947 67.3304 52.1883C68.4824 51.0363 69.1224 49.4875 69.1224 47.8597C69.1224 47.4757 69.0862 47.0896 69.0136 46.712C69.3336 46.4581 69.5747 46.1211 69.7112 45.7349C71.0702 45.4213 72.3118 44.728 73.2974 43.7424C74.7011 42.3365 75.484 40.4485 75.484 38.4624C75.4819 37.3723 75.2472 36.3013 74.7886 35.3157ZM68.9432 25.1077C69.9139 25.2827 70.8056 25.752 71.5054 26.4496C72.4163 27.3627 72.924 28.5893 72.924 29.88C72.924 30.168 72.8984 30.456 72.8494 30.7397C72.7064 30.7141 72.5614 30.7013 72.4163 30.7013C72.1539 30.7013 71.8915 30.7419 71.6419 30.8229L68.5166 25.8821C68.7086 25.656 68.8558 25.3936 68.9432 25.1077ZM62.4024 28.8112L65.675 26.2832C66.0291 26.5157 66.4408 26.6395 66.8654 26.6395C67.0595 26.6395 67.2515 26.6139 67.4392 26.5627L70.5646 31.5035C70.219 31.8725 69.9907 32.3355 69.9118 32.8347L60.9795 33.6773V31.7125C61.9032 31.4352 62.5475 30.5776 62.5475 29.6005C62.5496 29.3317 62.4984 29.0629 62.4024 28.8112ZM62.4003 15.8939C62.5795 15.8747 62.7587 15.864 62.9379 15.864C64.2286 15.864 65.4552 16.3717 66.3683 17.2848C67.2814 18.1979 67.7891 19.4245 67.7891 20.7152C67.7891 21.2869 67.691 21.8501 67.4947 22.3877C67.292 22.3259 67.0808 22.296 66.8696 22.296C66.2232 22.296 65.6195 22.5819 65.2078 23.0704L59.7976 20.6405C59.8104 20.5403 59.8168 20.44 59.8168 20.3376C59.8168 19.7723 59.6056 19.2325 59.2259 18.8187L62.0526 15.9429C62.1656 15.9237 62.283 15.9067 62.4003 15.8939ZM51.4307 28.9648V20.6896H55.356C55.4606 21.3531 55.8595 21.9376 56.4398 22.2768L56.4867 28.9648H51.4307ZM55.5267 19.416H51.4307V15.9877C51.4307 14.6971 51.9384 13.4683 52.8515 12.5573C53.7646 11.6443 54.9912 11.1365 56.2819 11.1365C57.4766 11.1365 58.6179 11.5717 59.5096 12.3675C60.3224 13.0928 60.8707 14.0699 61.0606 15.1429L58.0974 18.1573C57.9267 18.1168 57.7496 18.0955 57.5726 18.0955C56.6851 18.0955 55.8872 18.616 55.5267 19.416ZM58.2318 28.9648H57.756L57.7112 22.5797C58.3192 22.5435 58.8824 22.2619 59.2771 21.8011L64.7107 24.2395C64.7022 24.3163 64.6979 24.3931 64.6979 24.4677C64.6979 24.7579 64.7555 25.0416 64.8664 25.3061L61.6302 27.8064C61.2568 27.5376 60.811 27.3947 60.348 27.3947C59.3667 27.3947 58.5091 28.0389 58.2318 28.9648ZM59.8254 41.2912C59.996 41.3317 60.171 41.3531 60.3459 41.3531C60.7939 41.3531 61.2291 41.2165 61.596 40.9648L65.6451 44.2053C65.5939 44.3333 65.5555 44.4635 65.5299 44.5979L58.1806 45.3979C58.0824 45.1717 57.948 44.9627 57.7816 44.7813L59.8254 41.2912ZM58.2318 39.7851C58.3278 40.1072 58.4984 40.4037 58.7288 40.6512L56.6872 44.1413C56.523 44.1029 56.3544 44.0837 56.1859 44.0837C55.9299 44.0837 55.676 44.1285 55.4371 44.216L52.0771 39.7851H58.2318ZM51.4307 41.0373L54.4238 44.984C54.1571 45.3531 54.012 45.7947 54.012 46.2555C54.012 46.3408 54.0163 46.4283 54.027 46.5157L51.4307 47.6656V41.0373ZM51.4307 49.0544L54.2851 47.7893L51.4307 51.7317V49.0544ZM59.9363 56.3611C58.9998 57.1717 57.8115 57.6112 56.5742 57.6112C55.2067 57.6112 53.9054 57.0736 52.939 56.1051C52.2734 55.4395 51.8019 54.6096 51.58 53.6965L55.4819 48.3077C55.708 48.3867 55.9448 48.4251 56.1859 48.4251C56.491 48.4251 56.7896 48.3611 57.067 48.2373L60.4547 52.1456C60.2371 52.4912 60.124 52.888 60.124 53.2997C60.124 54.0016 60.459 54.6523 61.02 55.0576C60.732 55.5504 60.3672 55.9899 59.9363 56.3611ZM62.8888 51.2133C62.6947 51.1579 62.4942 51.1301 62.2936 51.1301C61.9886 51.1301 61.6899 51.192 61.4126 51.3157L58.0248 47.4096C58.1678 47.1813 58.268 46.9275 58.3192 46.6651L65.6686 45.8651C65.7539 46.0613 65.867 46.2448 66.0035 46.4069L62.8888 51.2133ZM66.4259 51.2901C65.8414 51.8747 65.116 52.3013 64.3203 52.5253C64.2328 52.2992 64.1091 52.088 63.9534 51.9024L67.0659 47.096C67.26 47.1515 67.4606 47.1792 67.6611 47.1792C67.7059 47.1792 67.7507 47.1771 67.7976 47.1749C67.8296 47.4011 67.8446 47.6293 67.8446 47.8576C67.8467 49.1483 67.3368 50.3771 66.4259 51.2901ZM67.851 42.8443C67.787 42.84 67.7251 42.8379 67.6632 42.8379C67.2259 42.8379 66.7992 42.968 66.4387 43.2133L62.3896 39.9728C62.4942 39.7104 62.5496 39.4331 62.5496 39.1493C62.5496 38.1723 61.9054 37.3147 60.9816 37.0373V34.9531L70.0334 34.0997C70.204 34.5691 70.5091 34.9765 70.9102 35.2752L67.851 42.8443ZM72.395 42.84C71.659 43.576 70.748 44.1157 69.7496 44.4059C69.628 43.9792 69.3742 43.5995 69.0286 43.32L72.0856 35.7488C72.1944 35.7637 72.3054 35.7701 72.4142 35.7701C72.7832 35.7701 73.1459 35.6912 73.4766 35.5376C73.532 35.64 73.5854 35.7445 73.6344 35.8512C74.0142 36.6704 74.2083 37.5579 74.2083 38.4624C74.2083 40.1093 73.5598 41.6752 72.395 42.84Z" fill="#FF786B"/>
<path d="M13.1564 90V78.6255H16.5164C17.52 78.6255 18.4097 78.8509 19.1855 79.3018C19.9661 79.7479 20.5697 80.383 20.9964 81.2073C21.4279 82.0267 21.6436 82.9673 21.6436 84.0291V84.6036C21.6436 85.68 21.4279 86.6279 20.9964 87.4473C20.5648 88.2618 19.9515 88.8921 19.1564 89.3382C18.3661 89.7794 17.457 90 16.4291 90H13.1564ZM15.1345 80.2182V88.4218H16.4218C17.4594 88.4218 18.2545 88.0994 18.8073 87.4545C19.3648 86.8048 19.6485 85.8715 19.6582 84.6545V84.0218C19.6582 82.7903 19.3891 81.8497 18.8509 81.2C18.3127 80.5455 17.5345 80.2182 16.5164 80.2182H15.1345ZM29.9731 87.3527H25.5731L24.6495 90H22.5913L26.8895 78.6255H28.664L32.9695 90H30.904L29.9731 87.3527ZM26.1259 85.76H29.4204L27.7768 81.04L26.1259 85.76ZM40.6137 87.3527H36.2138L35.2901 90H33.2319L37.5301 78.6255H39.3047L43.6101 90H41.5447L40.6137 87.3527ZM36.7665 85.76H40.061L38.4174 81.04L36.7665 85.76ZM47.4507 78.6255L50.738 87.3455L54.0107 78.6255H56.5635V90H54.5926V86.2473L54.7889 81.2364L51.4289 90H50.018L46.6653 81.2436L46.8616 86.2473V90H44.8907V78.6255H47.4507ZM67.9671 84.6109C67.9671 85.7261 67.7732 86.7055 67.3853 87.5491C67.0023 88.3879 66.452 89.0327 65.7344 89.4836C65.0216 89.9297 64.1998 90.1527 63.2689 90.1527C62.3429 90.1527 61.5186 89.9297 60.7962 89.4836C60.0786 89.0327 59.5235 88.3903 59.1307 87.5564C58.738 86.7224 58.5392 85.76 58.5344 84.6691V84.0291C58.5344 82.9188 58.7307 81.9394 59.1235 81.0909C59.5162 80.2424 60.0689 79.5927 60.7816 79.1418C61.4992 78.6909 62.3235 78.4655 63.2544 78.4655C64.1804 78.4655 64.9998 78.6885 65.7126 79.1345C66.4301 79.5806 66.9829 80.223 67.3707 81.0618C67.7635 81.8958 67.9623 82.8679 67.9671 83.9782V84.6109ZM65.9889 84.0145C65.9889 82.7539 65.7513 81.7891 65.2762 81.12C64.801 80.4461 64.1247 80.1091 63.2471 80.1091C62.3938 80.1091 61.7247 80.4436 61.2398 81.1127C60.7598 81.7818 60.515 82.7297 60.5053 83.9564V84.6109C60.5053 85.8618 60.7477 86.8291 61.2326 87.5127C61.7223 88.1915 62.401 88.5309 63.2689 88.5309C64.1416 88.5309 64.8132 88.1988 65.2835 87.5345C65.7538 86.8655 65.9889 85.8909 65.9889 84.6109V84.0145ZM75.8794 87.0691C75.8794 86.5697 75.7025 86.1842 75.3485 85.9127C74.9994 85.6412 74.3667 85.3673 73.4503 85.0909C72.534 84.8145 71.8067 84.5091 71.2685 84.1745C70.2309 83.52 69.7122 82.6691 69.7122 81.6218C69.7122 80.7055 70.0855 79.9515 70.8322 79.36C71.5788 78.7636 72.5485 78.4655 73.7413 78.4655C74.5316 78.4655 75.237 78.6133 75.8576 78.9091C76.4782 79.2 76.9655 79.6145 77.3194 80.1527C77.6734 80.6909 77.8503 81.2873 77.8503 81.9418H75.8794C75.8794 81.3503 75.6928 80.8873 75.3194 80.5527C74.9509 80.2133 74.42 80.0436 73.7267 80.0436C73.0819 80.0436 72.58 80.1818 72.2213 80.4582C71.8673 80.7345 71.6903 81.12 71.6903 81.6145C71.6903 82.0315 71.8819 82.3806 72.2649 82.6618C72.6528 82.9382 73.2879 83.2097 74.1703 83.4764C75.0576 83.7382 75.7679 84.0364 76.3012 84.3709C76.8394 84.7055 77.2322 85.0909 77.4794 85.5273C77.7316 85.9636 77.8576 86.4727 77.8576 87.0545C77.8576 88.0048 77.494 88.7588 76.7667 89.3164C76.0443 89.8739 75.06 90.1527 73.814 90.1527C72.9897 90.1527 72.2309 90.0024 71.5376 89.7018C70.8491 89.3964 70.3134 88.977 69.9303 88.4436C69.5473 87.9055 69.3558 87.2776 69.3558 86.56H71.334C71.334 87.2097 71.5473 87.7115 71.974 88.0655C72.4006 88.4194 73.014 88.5964 73.814 88.5964C74.5025 88.5964 75.0188 88.4582 75.3631 88.1818C75.7073 87.9006 75.8794 87.5297 75.8794 87.0691Z" fill="#4F5269"/>
<path d="M7.36206 101V96.0236H8.75251C9.15978 96.0236 9.52463 96.117 9.84706 96.3036C10.1716 96.4882 10.424 96.7544 10.6043 97.1023C10.7868 97.448 10.878 97.8415 10.878 98.2827V98.7409C10.878 99.1842 10.7878 99.5788 10.6075 99.9245C10.4272 100.268 10.1737 100.533 9.84706 100.72C9.52039 100.907 9.14493 101 8.72069 101H7.36206ZM7.78206 96.3832V100.644H8.72387C9.24781 100.644 9.66781 100.471 9.98387 100.125C10.3021 99.7771 10.4611 99.3062 10.4611 98.7123V98.2764C10.4611 97.7036 10.3052 97.2455 9.99342 96.9018C9.6816 96.5582 9.27009 96.3853 8.75887 96.3832H7.78206ZM12.3117 101H11.9012V97.3027H12.3117V101ZM11.8281 96.2305C11.8281 96.1541 11.8525 96.0894 11.9012 96.0364C11.9522 95.9812 12.0211 95.9536 12.1081 95.9536C12.195 95.9536 12.264 95.9812 12.3149 96.0364C12.3658 96.0894 12.3912 96.1541 12.3912 96.2305C12.3912 96.3089 12.3658 96.3747 12.3149 96.4277C12.264 96.4786 12.195 96.5041 12.1081 96.5041C12.0211 96.5041 11.9522 96.4786 11.9012 96.4277C11.8525 96.3747 11.8281 96.3089 11.8281 96.2305ZM13.2535 99.1164C13.2535 98.5373 13.3818 98.0791 13.6385 97.7418C13.8952 97.4024 14.243 97.2327 14.6821 97.2327C15.1849 97.2327 15.5677 97.4332 15.8308 97.8341L15.8499 97.3027H16.2349V100.924C16.2349 101.401 16.1012 101.778 15.8339 102.056C15.5667 102.334 15.2061 102.473 14.7521 102.473C14.4933 102.473 14.2473 102.415 14.0139 102.298C13.7806 102.184 13.5971 102.031 13.4635 101.84L13.6926 101.595C13.9811 101.949 14.3247 102.126 14.7235 102.126C15.065 102.126 15.3312 102.026 15.5221 101.824C15.7152 101.623 15.8149 101.344 15.8212 100.987V100.523C15.5582 100.885 15.1764 101.067 14.6758 101.067C14.2473 101.067 13.9026 100.896 13.6417 100.555C13.3829 100.213 13.2535 99.7517 13.2535 99.1705V99.1164ZM13.6671 99.1895C13.6671 99.6605 13.7615 100.033 13.9503 100.306C14.1391 100.578 14.4064 100.714 14.7521 100.714C15.2549 100.714 15.6112 100.488 15.8212 100.036V98.3177C15.7258 98.0802 15.5879 97.8998 15.4076 97.7768C15.2273 97.6517 15.0109 97.5891 14.7585 97.5891C14.4127 97.5891 14.1444 97.7248 13.9535 97.9964C13.7626 98.2658 13.6671 98.6635 13.6671 99.1895ZM17.7599 101H17.3495V97.3027H17.7599V101ZM17.2763 96.2305C17.2763 96.1541 17.3007 96.0894 17.3495 96.0364C17.4004 95.9812 17.4693 95.9536 17.5563 95.9536C17.6433 95.9536 17.7122 95.9812 17.7631 96.0364C17.814 96.0894 17.8395 96.1541 17.8395 96.2305C17.8395 96.3089 17.814 96.3747 17.7631 96.4277C17.7122 96.4786 17.6433 96.5041 17.5563 96.5041C17.4693 96.5041 17.4004 96.4786 17.3495 96.4277C17.3007 96.3747 17.2763 96.3089 17.2763 96.2305ZM19.5004 96.3545V97.3027H20.2672V97.6368H19.5004V100.1C19.5004 100.305 19.5375 100.459 19.6117 100.561C19.686 100.661 19.8101 100.71 19.984 100.71C20.0519 100.71 20.1622 100.699 20.3149 100.675L20.3308 101.01C20.2248 101.048 20.0795 101.067 19.8949 101.067C19.6149 101.067 19.4102 100.986 19.2808 100.825C19.1536 100.662 19.0899 100.422 19.0899 100.106V97.6368H18.4122V97.3027H19.0899V96.3545H19.5004ZM23.4485 101C23.4082 100.883 23.3827 100.712 23.3721 100.485C23.2279 100.671 23.0444 100.815 22.8217 100.917C22.5989 101.017 22.3635 101.067 22.1153 101.067C21.7611 101.067 21.4736 100.968 21.253 100.771C21.0324 100.574 20.9221 100.323 20.9221 100.02C20.9221 99.6594 21.0717 99.3741 21.3708 99.1641C21.672 98.9541 22.0898 98.8491 22.6244 98.8491H23.3658V98.4291C23.3658 98.1661 23.2841 97.9592 23.1208 97.8086C22.9595 97.6559 22.723 97.5795 22.4112 97.5795C22.1248 97.5795 21.8883 97.6527 21.7017 97.7991C21.515 97.9433 21.4217 98.1183 21.4217 98.3241L21.0112 98.3209C21.0112 98.0261 21.148 97.7715 21.4217 97.5573C21.6953 97.3409 22.0315 97.2327 22.4303 97.2327C22.8439 97.2327 23.1695 97.3367 23.4071 97.5445C23.6447 97.7503 23.7667 98.0377 23.773 98.4068V100.157C23.773 100.513 23.8112 100.78 23.8876 100.959V101H23.4485ZM22.163 100.707C22.4367 100.707 22.6806 100.642 22.8948 100.51C23.1112 100.376 23.2682 100.199 23.3658 99.9786V99.1641H22.6371C22.2277 99.1683 21.9074 99.2436 21.6762 99.39C21.4471 99.5342 21.3326 99.7326 21.3326 99.985C21.3326 100.193 21.4089 100.366 21.5617 100.504C21.7165 100.639 21.917 100.707 22.163 100.707ZM25.3205 101H24.91V95.75H25.3205V101ZM29.2949 96.0236L31.1308 100.415L32.973 96.0236H33.533V101H33.113V98.8332L33.1449 96.6123L31.293 101H30.9685L29.123 96.6282L29.158 98.8205V101H28.738V96.0236H29.2949ZM37.0315 101C36.9912 100.883 36.9657 100.712 36.9551 100.485C36.8109 100.671 36.6274 100.815 36.4047 100.917C36.1819 101.017 35.9465 101.067 35.6983 101.067C35.3441 101.067 35.0566 100.968 34.836 100.771C34.6154 100.574 34.5051 100.323 34.5051 100.02C34.5051 99.6594 34.6547 99.3741 34.9538 99.1641C35.255 98.9541 35.6729 98.8491 36.2074 98.8491H36.9488V98.4291C36.9488 98.1661 36.8671 97.9592 36.7038 97.8086C36.5426 97.6559 36.306 97.5795 35.9942 97.5795C35.7079 97.5795 35.4713 97.6527 35.2847 97.7991C35.098 97.9433 35.0047 98.1183 35.0047 98.3241L34.5942 98.3209C34.5942 98.0261 34.731 97.7715 35.0047 97.5573C35.2783 97.3409 35.6145 97.2327 36.0133 97.2327C36.4269 97.2327 36.7526 97.3367 36.9901 97.5445C37.2277 97.7503 37.3497 98.0377 37.356 98.4068V100.157C37.356 100.513 37.3942 100.78 37.4706 100.959V101H37.0315ZM35.746 100.707C36.0197 100.707 36.2636 100.642 36.4779 100.51C36.6942 100.376 36.8512 100.199 36.9488 99.9786V99.1641H36.2201C35.8107 99.1683 35.4904 99.2436 35.2592 99.39C35.0301 99.5342 34.9156 99.7326 34.9156 99.985C34.9156 100.193 34.9919 100.366 35.1447 100.504C35.2995 100.639 35.5 100.707 35.746 100.707ZM40.1539 97.6495C40.067 97.6347 39.9747 97.6273 39.8771 97.6273C39.6205 97.6273 39.4041 97.6983 39.228 97.8405C39.052 97.9826 38.9258 98.1894 38.8494 98.4609V101H38.4453V97.3027H38.843L38.8494 97.8882C39.0658 97.4512 39.4136 97.2327 39.893 97.2327C40.0076 97.2327 40.0977 97.2476 40.1635 97.2773L40.1539 97.6495ZM41.6751 99.1386L41.2041 99.5873V101H40.7969V95.75H41.2041V99.11L41.5923 98.6932L43.0082 97.3027H43.5237L41.9551 98.8618L43.6605 101H43.1705L41.6751 99.1386ZM45.6535 101.067C45.3374 101.067 45.0521 100.989 44.7976 100.835C44.5452 100.68 44.3479 100.464 44.2058 100.189C44.0658 99.9108 43.9958 99.6 43.9958 99.2564V99.11C43.9958 98.7536 44.0647 98.4333 44.2026 98.1491C44.3405 97.8648 44.5324 97.6411 44.7785 97.4777C45.0246 97.3144 45.2908 97.2327 45.5771 97.2327C46.0268 97.2327 46.3832 97.3865 46.6462 97.6941C46.9093 97.9995 47.0408 98.4174 47.0408 98.9477V99.1768H44.403V99.2564C44.403 99.6764 44.5229 100.026 44.7626 100.306C45.0023 100.584 45.3046 100.723 45.6694 100.723C45.8879 100.723 46.0809 100.684 46.2485 100.605C46.4161 100.525 46.5688 100.397 46.7067 100.22L46.9612 100.415C46.66 100.849 46.2241 101.067 45.6535 101.067ZM45.5771 97.5827C45.2696 97.5827 45.0097 97.6952 44.7976 97.92C44.5876 98.1448 44.4603 98.4482 44.4158 98.83H46.6335V98.7855C46.6229 98.4291 46.5211 98.1395 46.328 97.9168C46.1371 97.6941 45.8868 97.5827 45.5771 97.5827ZM48.4711 96.3545V97.3027H49.2379V97.6368H48.4711V100.1C48.4711 100.305 48.5082 100.459 48.5824 100.561C48.6567 100.661 48.7808 100.71 48.9547 100.71C49.0226 100.71 49.1329 100.699 49.2856 100.675L49.3015 101.01C49.1955 101.048 49.0502 101.067 48.8656 101.067C48.5856 101.067 48.3809 100.986 48.2515 100.825C48.1243 100.662 48.0606 100.422 48.0606 100.106V97.6368H47.3829V97.3027H48.0606V96.3545H48.4711ZM50.5451 101H50.1346V97.3027H50.5451V101ZM50.0615 96.2305C50.0615 96.1541 50.0859 96.0894 50.1346 96.0364C50.1855 95.9812 50.2545 95.9536 50.3415 95.9536C50.4284 95.9536 50.4974 95.9812 50.5483 96.0364C50.5992 96.0894 50.6246 96.1541 50.6246 96.2305C50.6246 96.3089 50.5992 96.3747 50.5483 96.4277C50.4974 96.4786 50.4284 96.5041 50.3415 96.5041C50.2545 96.5041 50.1855 96.4786 50.1346 96.4277C50.0859 96.3747 50.0615 96.3089 50.0615 96.2305ZM52.0405 97.3027L52.0533 97.9327C52.1933 97.7058 52.3661 97.5329 52.5719 97.4141C52.7798 97.2932 53.0099 97.2327 53.2623 97.2327C53.6569 97.2327 53.9507 97.3452 54.1437 97.57C54.3389 97.7927 54.4375 98.1268 54.4396 98.5723V101H54.0323V98.5691C54.0302 98.2382 53.9602 97.9921 53.8223 97.8309C53.6845 97.6697 53.4639 97.5891 53.1605 97.5891C52.9081 97.5891 52.6843 97.6686 52.4892 97.8277C52.294 97.9847 52.1498 98.1979 52.0564 98.4673V101H51.6523V97.3027H52.0405ZM55.3287 99.1164C55.3287 98.5373 55.457 98.0791 55.7137 97.7418C55.9704 97.4024 56.3182 97.2327 56.7573 97.2327C57.26 97.2327 57.6429 97.4332 57.906 97.8341L57.925 97.3027H58.31V100.924C58.31 101.401 58.1764 101.778 57.9091 102.056C57.6419 102.334 57.2813 102.473 56.8273 102.473C56.5685 102.473 56.3225 102.415 56.0891 102.298C55.8558 102.184 55.6723 102.031 55.5387 101.84L55.7678 101.595C56.0563 101.949 56.3999 102.126 56.7987 102.126C57.1402 102.126 57.4064 102.026 57.5973 101.824C57.7904 101.623 57.89 101.344 57.8964 100.987V100.523C57.6334 100.885 57.2516 101.067 56.751 101.067C56.3225 101.067 55.9778 100.896 55.7169 100.555C55.4581 100.213 55.3287 99.7517 55.3287 99.1705V99.1164ZM55.7423 99.1895C55.7423 99.6605 55.8367 100.033 56.0255 100.306C56.2143 100.578 56.4816 100.714 56.8273 100.714C57.33 100.714 57.6864 100.488 57.8964 100.036V98.3177C57.801 98.0802 57.6631 97.8998 57.4828 97.7768C57.3025 97.6517 57.0861 97.5891 56.8337 97.5891C56.4879 97.5891 56.2196 97.7248 56.0287 97.9964C55.8378 98.2658 55.7423 98.6635 55.7423 99.1895ZM64.3727 99.6064H62.1136L61.6013 101H61.1591L63.0427 96.0236H63.4436L65.3273 101H64.8882L64.3727 99.6064ZM62.2441 99.2468H64.2391L63.24 96.5359L62.2441 99.2468ZM65.8013 99.1164C65.8013 98.5373 65.9297 98.0791 66.1863 97.7418C66.443 97.4024 66.7909 97.2327 67.23 97.2327C67.7327 97.2327 68.1156 97.4332 68.3786 97.8341L68.3977 97.3027H68.7827V100.924C68.7827 101.401 68.6491 101.778 68.3818 102.056C68.1145 102.334 67.7539 102.473 67.3 102.473C67.0412 102.473 66.7951 102.415 66.5618 102.298C66.3285 102.184 66.145 102.031 66.0113 101.84L66.2404 101.595C66.5289 101.949 66.8726 102.126 67.2713 102.126C67.6129 102.126 67.8791 102.026 68.07 101.824C68.263 101.623 68.3627 101.344 68.3691 100.987V100.523C68.106 100.885 67.7242 101.067 67.2236 101.067C66.7951 101.067 66.4504 100.896 66.1895 100.555C65.9307 100.213 65.8013 99.7517 65.8013 99.1705V99.1164ZM66.215 99.1895C66.215 99.6605 66.3094 100.033 66.4982 100.306C66.6869 100.578 66.9542 100.714 67.3 100.714C67.8027 100.714 68.1591 100.488 68.3691 100.036V98.3177C68.2736 98.0802 68.1357 97.8998 67.9554 97.7768C67.7751 97.6517 67.5588 97.5891 67.3063 97.5891C66.9606 97.5891 66.6923 97.7248 66.5013 97.9964C66.3104 98.2658 66.215 98.6635 66.215 99.1895ZM71.2814 101.067C70.9654 101.067 70.6801 100.989 70.4255 100.835C70.1731 100.68 69.9758 100.464 69.8337 100.189C69.6937 99.9108 69.6237 99.6 69.6237 99.2564V99.11C69.6237 98.7536 69.6926 98.4333 69.8305 98.1491C69.9684 97.8648 70.1604 97.6411 70.4064 97.4777C70.6525 97.3144 70.9187 97.2327 71.2051 97.2327C71.6548 97.2327 72.0111 97.3865 72.2742 97.6941C72.5372 97.9995 72.6687 98.4174 72.6687 98.9477V99.1768H70.031V99.2564C70.031 99.6764 70.1508 100.026 70.3905 100.306C70.6302 100.584 70.9325 100.723 71.2973 100.723C71.5158 100.723 71.7089 100.684 71.8764 100.605C72.044 100.525 72.1967 100.397 72.3346 100.22L72.5892 100.415C72.2879 100.849 71.852 101.067 71.2814 101.067ZM71.2051 97.5827C70.8975 97.5827 70.6376 97.6952 70.4255 97.92C70.2155 98.1448 70.0882 98.4482 70.0437 98.83H72.2614V98.7855C72.2508 98.4291 72.149 98.1395 71.956 97.9168C71.7651 97.6941 71.5148 97.5827 71.2051 97.5827ZM73.854 97.3027L73.8667 97.9327C74.0067 97.7058 74.1796 97.5329 74.3854 97.4141C74.5932 97.2932 74.8234 97.2327 75.0758 97.2327C75.4704 97.2327 75.7642 97.3452 75.9572 97.57C76.1523 97.7927 76.251 98.1268 76.2531 98.5723V101H75.8458V98.5691C75.8437 98.2382 75.7737 97.9921 75.6358 97.8309C75.4979 97.6697 75.2773 97.5891 74.974 97.5891C74.7216 97.5891 74.4978 97.6686 74.3026 97.8277C74.1075 97.9847 73.9632 98.1979 73.8699 98.4673V101H73.4658V97.3027H73.854ZM78.6726 100.723C78.959 100.723 79.1976 100.644 79.3885 100.485C79.5816 100.323 79.6866 100.114 79.7035 99.8577H80.0949C80.0843 100.085 80.0132 100.292 79.8817 100.478C79.7523 100.663 79.5794 100.807 79.3631 100.911C79.1488 101.015 78.9187 101.067 78.6726 101.067C78.1869 101.067 77.8019 100.899 77.5176 100.564C77.2355 100.227 77.0944 99.7729 77.0944 99.2023V99.0782C77.0944 98.7133 77.1581 98.3909 77.2853 98.1109C77.4126 97.8309 77.595 97.6145 77.8326 97.4618C78.0723 97.3091 78.3513 97.2327 78.6694 97.2327C79.0746 97.2327 79.4087 97.3536 79.6717 97.5955C79.9369 97.8373 80.0779 98.1555 80.0949 98.55H79.7035C79.6844 98.2594 79.5794 98.0261 79.3885 97.85C79.1997 97.6718 78.96 97.5827 78.6694 97.5827C78.3003 97.5827 78.014 97.7164 77.8103 97.9836C77.6067 98.2488 77.5049 98.6221 77.5049 99.1036V99.2214C77.5049 99.6944 77.6067 100.063 77.8103 100.329C78.014 100.592 78.3014 100.723 78.6726 100.723ZM82.0811 100.411L83.1597 97.3027H83.602L82.0238 101.63L81.9411 101.821C81.7374 102.268 81.4245 102.492 81.0024 102.492C80.9027 102.492 80.7977 102.476 80.6874 102.445L80.6842 102.107L80.8942 102.126C81.0958 102.126 81.258 102.077 81.3811 101.977C81.5062 101.879 81.6123 101.71 81.6992 101.468L81.8806 100.968L80.4838 97.3027H80.9324L82.0811 100.411Z" fill="#4F5269"/>
<path d="M10.6718 68.1502C10.9426 68.1502 11.1787 68.1427 11.38 68.1278C11.5837 68.1104 11.7564 68.0868 11.8981 68.057C12.0397 68.0272 12.1515 67.9912 12.2335 67.9489C12.3155 67.9042 12.3739 67.8532 12.4087 67.7961V67.7998C12.4211 67.7799 12.4298 67.7538 12.4348 67.7215C12.4398 67.6892 12.4422 67.6582 12.4422 67.6284C12.4422 67.5812 12.4323 67.5277 12.4124 67.4681C12.395 67.4085 12.3702 67.3463 12.3379 67.2817C12.3081 67.2146 12.272 67.1475 12.2298 67.0805C12.1875 67.0109 12.1428 66.9425 12.0956 66.8755C11.9068 66.6145 11.7415 66.3909 11.5999 66.2045C11.4582 66.0182 11.3402 65.8641 11.2458 65.7424C11.134 65.6007 11.0383 65.4815 10.9588 65.3845L11.1563 64.5832L14.4811 63.0177L14.8612 63.8675L11.9279 65.2131L13.0721 66.7636C13.2088 66.95 13.3306 67.114 13.4374 67.2556C13.5468 67.3948 13.6474 67.5153 13.7393 67.6172C13.8313 67.7166 13.9182 67.7998 14.0002 67.8669C14.0847 67.9315 14.1704 67.9837 14.2574 68.0235C14.3469 68.0607 14.4401 68.0881 14.537 68.1055C14.6364 68.1204 14.7469 68.1278 14.8687 68.1278H14.9395V69.0559H14.8687C14.655 69.0559 14.4649 69.0373 14.2984 69C14.1319 68.9602 13.9804 68.9056 13.8437 68.836C13.7095 68.7664 13.5853 68.6819 13.471 68.5825C13.3567 68.4832 13.2448 68.3713 13.1355 68.2471C13.0336 68.4508 12.8994 68.6086 12.733 68.7205C12.5665 68.8323 12.3764 68.9143 12.1627 68.9665C11.9515 69.0186 11.7191 69.0497 11.4657 69.0596C11.2122 69.0696 10.9464 69.0745 10.6681 69.0745L8.45406 69.0559C8.27018 69.0559 8.09624 69.0248 7.93224 68.9627C7.76824 68.9006 7.62287 68.8099 7.49615 68.6906C7.44645 68.6434 7.39427 68.5863 7.3396 68.5192C7.28742 68.4521 7.24021 68.3726 7.19796 68.2806C7.15572 68.1887 7.12093 68.0856 7.0936 67.9713C7.06627 67.8545 7.0526 67.724 7.0526 67.5799C7.0526 67.4557 7.06503 67.3215 7.08987 67.1774C7.11472 67.0308 7.14206 66.8928 7.17187 66.7636C7.20418 66.6344 7.234 66.5226 7.26133 66.4282C7.28866 66.3338 7.30606 66.2754 7.31351 66.253L7.75706 66.3946L8.19687 66.5325C8.17451 66.5996 8.1509 66.6804 8.12606 66.7748C8.10121 66.8668 8.0776 66.9624 8.05524 67.0618C8.03287 67.1587 8.01424 67.2532 7.99933 67.3451C7.98442 67.437 7.97696 67.5165 7.97696 67.5836C7.97696 67.7029 7.99312 67.7998 8.02542 67.8744C8.06021 67.9464 8.10121 68.0023 8.14842 68.0421C8.19812 68.0794 8.25154 68.1042 8.30869 68.1166C8.36584 68.1291 8.41678 68.1353 8.46151 68.1353L10.6718 68.1502ZM11.2905 63.4091L14.1307 62.1754L14.3245 62.5928L11.2421 63.9384L11.2905 63.4091ZM17.8535 68.1278V69.0559H17.6187C17.4075 69.0559 17.2149 69.0273 17.041 68.9702C16.8671 68.913 16.7204 68.8285 16.6012 68.7167C16.462 68.8335 16.2968 68.9192 16.1054 68.9739C15.9166 69.0286 15.7004 69.0559 15.4569 69.0559H14.7972V68.1278H15.4569C15.6085 68.1278 15.729 68.1142 15.8184 68.0868C15.9104 68.057 15.9787 68.021 16.0234 67.9787C16.0707 67.9365 16.1005 67.8893 16.1129 67.8371C16.1278 67.7849 16.1353 67.734 16.1353 67.6843V66.4766H17.0596V67.6582C17.0596 67.77 17.0845 67.8582 17.1342 67.9228C17.1839 67.9849 17.2398 68.0322 17.3019 68.0645C17.3665 68.0943 17.4299 68.1129 17.492 68.1204C17.5541 68.1253 17.5964 68.1278 17.6187 68.1278H17.8535ZM15.7066 64.7621L16.3775 64.0837L17.0634 64.7695L16.385 65.4479L15.7066 64.7621ZM21.7114 68.1278V69.0559H21.1597C20.9485 69.0559 20.756 69.0273 20.582 68.9702C20.4081 68.913 20.2615 68.8285 20.1422 68.7167C20.003 68.8335 19.8378 68.9192 19.6465 68.9739C19.4576 69.0286 19.2414 69.0559 18.9979 69.0559H17.7083V68.1278H18.9979C19.1495 68.1278 19.27 68.1142 19.3595 68.0868C19.4514 68.057 19.5197 68.021 19.5645 67.9787C19.6117 67.9365 19.6415 67.8893 19.6539 67.8371C19.6688 67.7849 19.6763 67.734 19.6763 67.6843V66.4766H20.6007V67.6582C20.6007 67.77 20.6255 67.8582 20.6752 67.9228C20.7249 67.9849 20.7808 68.0322 20.8429 68.0645C20.9075 68.0943 20.9709 68.1129 21.033 68.1204C21.0951 68.1253 21.1374 68.1278 21.1597 68.1278H21.7114ZM20.2205 71.1059L19.5943 70.4723L20.213 69.8312L20.8541 70.4723L20.2205 71.1059ZM18.6587 71.1096L18.0326 70.476L18.6476 69.8349L19.2887 70.476L18.6587 71.1096ZM25.5631 68.1278V69.0559H25.0115C24.8003 69.0559 24.6077 69.0273 24.4338 68.9702C24.2598 68.913 24.1132 68.8285 23.994 68.7167C23.8548 68.8335 23.6896 68.9192 23.4982 68.9739C23.3094 69.0286 23.0932 69.0559 22.8497 69.0559H21.56V68.1278H22.8497C23.0013 68.1278 23.1218 68.1142 23.2112 68.0868C23.3032 68.057 23.3715 68.021 23.4162 67.9787C23.4634 67.9365 23.4933 67.8893 23.5057 67.8371C23.5206 67.7849 23.528 67.734 23.528 67.6843V66.4766H24.4524V67.6582C24.4524 67.77 24.4773 67.8582 24.527 67.9228C24.5767 67.9849 24.6326 68.0322 24.6947 68.0645C24.7593 68.0943 24.8227 68.1129 24.8848 68.1204C24.9469 68.1253 24.9891 68.1278 25.0115 68.1278H25.5631ZM24.2996 65.515L23.6734 64.8814L24.2921 64.2403L24.9332 64.8814L24.2996 65.515ZM22.7379 65.5187L22.1117 64.8851L22.7267 64.244L23.3678 64.8851L22.7379 65.5187ZM25.4118 69.0559V68.1278H27.5923C27.632 68.1278 27.6867 68.1266 27.7563 68.1241C27.8258 68.1191 27.8942 68.1092 27.9613 68.0943C28.0284 68.0769 28.0855 68.0533 28.1327 68.0235C28.1824 67.9912 28.2073 67.9477 28.2073 67.893C28.2073 67.7862 28.1663 67.6569 28.0843 67.5054C28.0047 67.3538 27.9016 67.1923 27.7749 67.0208C27.6482 66.8494 27.5053 66.6767 27.3463 66.5027C27.1897 66.3263 27.0332 66.1611 26.8766 66.007C26.7226 65.8505 26.5772 65.7125 26.4405 65.5933C26.3039 65.474 26.1945 65.3845 26.1125 65.3249L26.1871 64.4825L29.4298 62.9991L29.769 63.8116L27.0406 65.0155C27.135 65.1075 27.2407 65.2118 27.3574 65.3286C27.4767 65.4454 27.5985 65.5697 27.7227 65.7014C27.847 65.8306 27.97 65.966 28.0917 66.1076C28.216 66.2468 28.3315 66.3872 28.4384 66.5288C28.5477 66.668 28.6446 66.8046 28.7291 66.9388C28.8136 67.073 28.8794 67.1997 28.9266 67.319C28.9689 67.4234 28.9987 67.524 29.0161 67.6209C29.0335 67.7178 29.0422 67.806 29.0422 67.8855C29.0422 67.9849 29.0322 68.0719 29.0124 68.1465C28.995 68.221 28.9751 68.2844 28.9527 68.3365C28.9229 68.4036 28.8769 68.4794 28.8148 68.5639C28.7527 68.6484 28.6657 68.7267 28.5539 68.7987C28.4446 68.8708 28.3054 68.9317 28.1364 68.9814C27.97 69.0311 27.7674 69.0559 27.5289 69.0559H25.4118ZM31.611 68.8285C31.5961 69.1715 31.5327 69.4796 31.4209 69.7529C31.3091 70.0287 31.155 70.2623 30.9587 70.4536C30.7624 70.6475 30.5251 70.7965 30.2468 70.9009C29.9685 71.0053 29.6542 71.0575 29.3038 71.0575H28.8416V70.1294H29.3038C29.5424 70.1294 29.7486 70.1045 29.9225 70.0548C30.0965 70.0051 30.2394 69.9256 30.3512 69.8163C30.463 69.7069 30.5462 69.5641 30.6009 69.3876C30.6556 69.2137 30.6829 69.0012 30.6829 68.7503V66.4804H31.611V68.8285ZM34.3616 69.0559C34.0882 69.0559 33.8534 69.0385 33.6571 69.0037C33.4608 68.9714 33.2956 68.923 33.1614 68.8584C33.0272 68.7913 32.9191 68.7068 32.8371 68.6049C32.7576 68.503 32.6967 68.3838 32.6545 68.2471C32.6122 68.1104 32.5837 67.9564 32.5688 67.7849C32.5563 67.611 32.5501 67.4196 32.5501 67.2109V63.6812H33.4782V67.2109C33.4782 67.4097 33.4844 67.5687 33.4968 67.688C33.5118 67.8073 33.5478 67.9005 33.6049 67.9675C33.6646 68.0322 33.7528 68.0756 33.8696 68.098C33.9888 68.1179 34.1528 68.1278 34.3616 68.1278V69.0559ZM36.978 68.3515C37.0004 68.3515 37.0352 68.3477 37.0824 68.3403C37.1321 68.3303 37.1818 68.303 37.2315 68.2583C37.2812 68.2135 37.3247 68.1452 37.3619 68.0533C37.4017 67.9588 37.4216 67.8272 37.4216 67.6582C37.4216 67.5936 37.4091 67.5116 37.3843 67.4122C37.3619 67.3103 37.3209 67.2122 37.2613 67.1177C37.2041 67.0208 37.1259 66.9388 37.0265 66.8717C36.9296 66.8022 36.8066 66.7674 36.6575 66.7674C36.5283 66.7674 36.4227 66.8059 36.3407 66.8829C36.2587 66.9599 36.1891 67.0556 36.1319 67.1699C36.0773 67.2842 36.0301 67.4085 35.9903 67.5426C35.953 67.6743 35.912 67.7948 35.8673 67.9042C35.9592 67.9564 36.0561 68.0098 36.158 68.0645C36.2624 68.1166 36.3643 68.1638 36.4637 68.2061C36.5631 68.2483 36.6562 68.2831 36.7432 68.3105C36.8327 68.3378 36.9109 68.3515 36.978 68.3515ZM36.6575 65.843C36.9184 65.843 37.1458 65.8915 37.3396 65.9884C37.5359 66.0853 37.6974 66.2157 37.8241 66.3797C37.9533 66.5412 38.049 66.7288 38.1111 66.9425C38.1757 67.1562 38.208 67.3799 38.208 67.6135C38.208 67.8719 38.1857 68.0918 38.1409 68.2732C38.0962 68.4546 38.0366 68.6049 37.962 68.7242C37.89 68.8435 37.8067 68.9366 37.7123 69.0037C37.6204 69.0733 37.5272 69.1242 37.4328 69.1565C37.3408 69.1913 37.2514 69.2125 37.1644 69.2199C37.0774 69.2298 37.0029 69.2348 36.9408 69.2348C36.8165 69.2348 36.6985 69.2224 36.5867 69.1975C36.4748 69.1752 36.3605 69.1416 36.2438 69.0969C36.1295 69.0547 36.0102 69.0025 35.8859 68.9404C35.7617 68.8758 35.6263 68.8037 35.4797 68.7242C35.3678 68.8435 35.2473 68.9292 35.1181 68.9814C34.9914 69.0311 34.8423 69.0559 34.6708 69.0559H34.2124L34.2049 68.1278H34.6708C34.7255 68.1278 34.7727 68.1117 34.8125 68.0794C34.8547 68.0471 34.892 68.0023 34.9243 67.9452C34.9591 67.8855 34.9901 67.8147 35.0175 67.7327C35.0473 67.6482 35.0771 67.5551 35.1069 67.4532C35.1566 67.2743 35.2163 67.0904 35.2858 66.9015C35.3554 66.7102 35.4474 66.5363 35.5617 66.3797C35.6785 66.2232 35.8251 66.0952 36.0015 65.9958C36.1779 65.8939 36.3966 65.843 36.6575 65.843ZM43.3716 71.1171C43.1952 71.1171 43.0262 71.0972 42.8647 71.0575C42.7032 71.0177 42.5516 70.9593 42.41 70.8823C42.2684 70.8052 42.1379 70.7121 42.0186 70.6027C41.8994 70.4959 41.795 70.3729 41.7056 70.2337C41.6683 70.1741 41.6298 70.1033 41.59 70.0213C41.5527 69.9418 41.5192 69.8511 41.4894 69.7492C41.4596 69.6473 41.4347 69.5342 41.4148 69.41C41.3949 69.2858 41.385 69.1503 41.385 69.0037C41.385 68.882 41.3912 68.7577 41.4036 68.631C41.4161 68.5018 41.4397 68.3651 41.4745 68.221C41.5092 68.0769 41.5577 67.9216 41.6198 67.7551C41.6819 67.5861 41.7627 67.3985 41.8621 67.1923L42.7007 67.5911C42.6262 67.7452 42.5628 67.8868 42.5106 68.016C42.4609 68.1427 42.4212 68.2632 42.3914 68.3775C42.3616 68.4894 42.3392 68.5962 42.3243 68.6981C42.3119 68.8 42.3056 68.9031 42.3056 69.0075C42.3056 69.1491 42.3206 69.2808 42.3504 69.4025C42.3827 69.5268 42.4299 69.6386 42.492 69.738L42.4883 69.7343C42.5827 69.8685 42.7082 69.9778 42.8647 70.0623C43.0238 70.1468 43.1927 70.189 43.3716 70.189H43.5431C43.804 70.189 44.0165 70.1617 44.1805 70.107C44.3469 70.0523 44.4762 69.9753 44.5681 69.8759C44.6625 69.7765 44.7259 69.656 44.7582 69.5144C44.793 69.3727 44.8104 69.2149 44.8104 69.041V63.6812H45.7273V69.041C45.7273 70.4201 44.9992 71.1121 43.5431 71.1171H43.3716ZM48.7836 69.0559C48.5103 69.0559 48.2755 69.0385 48.0792 69.0037C47.8829 68.9714 47.7176 68.923 47.5835 68.8584C47.4493 68.7913 47.3412 68.7068 47.2592 68.6049C47.1797 68.503 47.1188 68.3838 47.0766 68.2471C47.0343 68.1104 47.0057 67.9564 46.9908 67.7849C46.9784 67.611 46.9722 67.4196 46.9722 67.2109V63.6812H47.9003V67.2109C47.9003 67.4097 47.9065 67.5687 47.9189 67.688C47.9338 67.8073 47.9699 67.9005 48.027 67.9675C48.0866 68.0322 48.1749 68.0756 48.2916 68.098C48.4109 68.1179 48.5749 68.1278 48.7836 68.1278V69.0559ZM52.6376 68.1278V69.0559H52.0859C51.8747 69.0559 51.6821 69.0273 51.5082 68.9702C51.3342 68.913 51.1876 68.8285 51.0684 68.7167C50.9292 68.8335 50.764 68.9192 50.5726 68.9739C50.3838 69.0286 50.1676 69.0559 49.9241 69.0559H48.6345V68.1278H49.9241C50.0757 68.1278 50.1962 68.1142 50.2856 68.0868C50.3776 68.057 50.4459 68.021 50.4906 67.9787C50.5379 67.9365 50.5677 67.8893 50.5801 67.8371C50.595 67.7849 50.6025 67.734 50.6025 67.6843V66.4766H51.5268V67.6582C51.5268 67.77 51.5517 67.8582 51.6014 67.9228C51.6511 67.9849 51.707 68.0322 51.7691 68.0645C51.8337 68.0943 51.8971 68.1129 51.9592 68.1204C52.0213 68.1253 52.0636 68.1278 52.0859 68.1278H52.6376ZM51.374 65.515L50.7478 64.8814L51.3666 64.2403L52.0076 64.8814L51.374 65.515ZM49.8123 65.5187L49.1861 64.8851L49.8011 64.244L50.4422 64.8851L49.8123 65.5187ZM56.4893 68.1278V69.0559H55.9377C55.7265 69.0559 55.5339 69.0273 55.3599 68.9702C55.186 68.913 55.0394 68.8285 54.9201 68.7167C54.781 68.8335 54.6157 68.9192 54.4244 68.9739C54.2356 69.0286 54.0194 69.0559 53.7759 69.0559H52.4862V68.1278H53.7759C53.9274 68.1278 54.0479 68.1142 54.1374 68.0868C54.2293 68.057 54.2977 68.021 54.3424 67.9787C54.3896 67.9365 54.4194 67.8893 54.4319 67.8371C54.4468 67.7849 54.4542 67.734 54.4542 67.6843V66.4766H55.3786V67.6582C55.3786 67.77 55.4034 67.8582 55.4531 67.9228C55.5028 67.9849 55.5587 68.0322 55.6209 68.0645C55.6855 68.0943 55.7488 68.1129 55.8109 68.1204C55.8731 68.1253 55.9153 68.1278 55.9377 68.1278H56.4893ZM54.9984 71.1059L54.3722 70.4723L54.991 69.8312L55.632 70.4723L54.9984 71.1059ZM53.4367 71.1096L52.8105 70.476L53.4255 69.8349L54.0666 70.476L53.4367 71.1096ZM61.4593 67.5725C61.4468 67.5799 61.4071 67.6072 61.34 67.6545C61.2729 67.6992 61.1822 67.7576 61.0679 67.8296C61.0927 67.9042 61.1313 67.9626 61.1834 68.0048C61.2356 68.0446 61.289 68.0744 61.3437 68.0943C61.3984 68.1117 61.4493 68.1216 61.4965 68.1241C61.5462 68.1266 61.581 68.1278 61.6009 68.1278H62.283V69.0559H61.6009C61.3052 69.0534 61.0393 68.9888 60.8033 68.8621C60.5697 68.7329 60.387 68.5403 60.2553 68.2844C60.064 68.3788 59.8578 68.4732 59.6366 68.5676C59.4155 68.6596 59.1844 68.7416 58.9433 68.8136C58.7023 68.8857 58.4551 68.9441 58.2016 68.9888C57.9482 69.0335 57.6947 69.0559 57.4413 69.0559H56.3305V68.1278H57.4413C57.6848 68.1278 57.9444 68.103 58.2203 68.0533C58.4961 68.0036 58.7682 67.9402 59.0365 67.8632C59.3049 67.7837 59.5596 67.6955 59.8006 67.5985C60.0441 67.5016 60.2553 67.406 60.4343 67.3115C60.3224 67.2768 60.1994 67.2395 60.0653 67.1997C59.9311 67.1575 59.7944 67.1165 59.6553 67.0767C59.5161 67.0345 59.3782 66.9947 59.2415 66.9575C59.1049 66.9177 58.9769 66.8829 58.8576 66.8531C58.7383 66.8233 58.6315 66.7997 58.5371 66.7823C58.4426 66.7649 58.3681 66.7562 58.3134 66.7562C58.2563 66.7562 58.2053 66.7636 58.1606 66.7785C58.1184 66.791 58.0799 66.8133 58.0451 66.8456C58.0103 66.8755 57.978 66.9152 57.9482 66.9649C57.9183 67.0146 57.8873 67.0742 57.855 67.1438L57.0014 66.8866C57.0486 66.7375 57.1058 66.5984 57.1729 66.4692C57.2425 66.3375 57.3257 66.2232 57.4226 66.1263C57.522 66.0294 57.6363 65.9536 57.7655 65.8989C57.8947 65.8418 58.0426 65.8132 58.2091 65.8132C58.2737 65.8132 58.3656 65.8268 58.4849 65.8542C58.6042 65.8815 58.7396 65.9175 58.8912 65.9623C59.0427 66.007 59.2043 66.0579 59.3757 66.1151C59.5496 66.1722 59.7236 66.2319 59.8975 66.294C60.0715 66.3561 60.2404 66.417 60.4044 66.4766C60.5684 66.5363 60.7163 66.5909 60.848 66.6406C60.9797 66.6878 61.0903 66.7276 61.1797 66.7599C61.2692 66.7922 61.3263 66.8121 61.3512 66.8195L61.4593 67.5725ZM58.3097 70.3344L58.9806 69.656L59.6664 70.3418L58.9881 71.0202L58.3097 70.3344ZM64.897 65.925C64.902 65.9424 64.9119 65.9834 64.9268 66.048C64.9442 66.1126 64.9628 66.1921 64.9827 66.2865C65.0026 66.3785 65.0225 66.4816 65.0424 66.5959C65.0647 66.7102 65.0846 66.8258 65.102 66.9425C65.1219 67.0568 65.1368 67.1687 65.1467 67.278C65.1591 67.3873 65.1654 67.483 65.1654 67.565C65.1654 67.8209 65.1231 68.0433 65.0386 68.2322C64.9541 68.4185 64.8436 68.5726 64.7069 68.6944C64.5702 68.8161 64.4162 68.9068 64.2447 68.9665C64.0757 69.0261 63.9055 69.0559 63.7341 69.0559H62.1276V68.1278H63.7602C63.79 68.1278 63.8322 68.1241 63.8869 68.1166C63.9441 68.1067 64 68.0831 64.0546 68.0458C64.1118 68.0085 64.1615 67.9526 64.2037 67.8781C64.246 67.8011 64.2671 67.6967 64.2671 67.565C64.2671 67.5103 64.2621 67.4445 64.2522 67.3675C64.2447 67.2879 64.2335 67.2035 64.2186 67.114C64.2037 67.0245 64.1863 66.9338 64.1664 66.8419C64.1491 66.7475 64.1317 66.6593 64.1143 66.5773C64.0969 66.4928 64.0795 66.417 64.0621 66.3499C64.0447 66.2803 64.031 66.2269 64.0211 66.1896L64.897 65.925ZM64.4646 71.0835L63.8384 70.4499L64.4572 69.8088L65.0983 70.4499L64.4646 71.0835ZM62.9029 71.0873L62.2767 70.4536L62.8917 69.8125L63.5328 70.4536L62.9029 71.0873ZM67.3569 69.0596C67.2624 69.0596 67.1693 69.0547 67.0773 69.0447C66.9854 69.0348 66.8922 69.0211 66.7978 69.0037C66.7034 68.9863 66.6064 68.9652 66.5071 68.9404C66.4077 68.913 66.3033 68.8832 66.194 68.8509L65.7504 68.7167L66.0188 67.8222C66.235 67.8967 66.4586 67.9626 66.6897 68.0197C66.9233 68.0769 67.1432 68.1142 67.3494 68.1315C67.4165 68.1365 67.4811 68.139 67.5432 68.139C67.6675 68.139 67.7917 68.1253 67.916 68.098C68.0427 68.0707 68.1321 68.0023 68.1843 67.893C68.1943 67.8731 68.1992 67.8495 68.1992 67.8222C68.1992 67.8048 68.1943 67.7775 68.1843 67.7402C68.1744 67.7029 68.1495 67.6557 68.1098 67.5985L66.7195 65.5709L67.5022 65.064L67.7557 65.4554C67.7557 65.4578 67.7594 65.4653 67.7669 65.4777C67.7768 65.4902 67.7942 65.5162 67.8191 65.556C67.8464 65.5958 67.8837 65.6529 67.9309 65.7275C67.9806 65.7995 68.0452 65.8952 68.1247 66.0145C68.2042 66.1337 68.3011 66.2816 68.4154 66.458C68.5322 66.6319 68.6714 66.8407 68.8329 67.0842C68.9596 67.2755 69.0379 67.4731 69.0677 67.6768C69.0751 67.729 69.0789 67.7799 69.0789 67.8296C69.0789 67.9787 69.0491 68.1216 68.9894 68.2583C68.9472 68.3577 68.89 68.4496 68.818 68.5341C68.7484 68.6161 68.6664 68.6894 68.572 68.754C68.3955 68.8758 68.1831 68.959 67.9346 69.0037C67.7259 69.041 67.5333 69.0596 67.3569 69.0596ZM73.8352 69.0596C73.7408 69.0596 73.6476 69.0547 73.5556 69.0447C73.4637 69.0348 73.3705 69.0211 73.2761 69.0037C73.1817 68.9863 73.0848 68.9652 72.9854 68.9404C72.886 68.913 72.7816 68.8832 72.6723 68.8509L72.2287 68.7167L72.4971 67.8222C72.7133 67.8967 72.9369 67.9626 73.168 68.0197C73.4016 68.0769 73.6215 68.1142 73.8277 68.1315C73.8948 68.1365 73.9594 68.139 74.0216 68.139C74.1458 68.139 74.27 68.1253 74.3943 68.098C74.521 68.0707 74.6105 68.0023 74.6626 67.893C74.6726 67.8731 74.6776 67.8495 74.6776 67.8222C74.6776 67.8048 74.6726 67.7775 74.6626 67.7402C74.6527 67.7029 74.6279 67.6557 74.5881 67.5985L73.1978 65.5709L73.9806 65.064L74.234 65.4554C74.234 65.4578 74.2377 65.4653 74.2452 65.4777C74.2551 65.4902 74.2725 65.5162 74.2974 65.556C74.3247 65.5958 74.362 65.6529 74.4092 65.7275C74.4589 65.7995 74.5235 65.8952 74.603 66.0145C74.6825 66.1337 74.7794 66.2816 74.8937 66.458C75.0105 66.6319 75.1497 66.8407 75.3112 67.0842C75.4379 67.2755 75.5162 67.4731 75.546 67.6768C75.5535 67.729 75.5572 67.7799 75.5572 67.8296C75.5572 67.9787 75.5274 68.1216 75.4677 68.2583C75.4255 68.3577 75.3683 68.4496 75.2963 68.5341C75.2267 68.6161 75.1447 68.6894 75.0503 68.754C74.8739 68.8758 74.6614 68.959 74.4129 69.0037C74.2042 69.041 74.0116 69.0596 73.8352 69.0596ZM78.3004 69.0559C78.0271 69.0559 77.7923 69.0385 77.596 69.0037C77.3997 68.9714 77.2344 68.923 77.1003 68.8584C76.9661 68.7913 76.858 68.7068 76.776 68.6049C76.6965 68.503 76.6356 68.3838 76.5933 68.2471C76.5511 68.1104 76.5225 67.9564 76.5076 67.7849C76.4952 67.611 76.489 67.4196 76.489 67.2109V63.6812H77.4171V67.2109C77.4171 67.4097 77.4233 67.5687 77.4357 67.688C77.4506 67.8073 77.4867 67.9005 77.5438 67.9675C77.6034 68.0322 77.6917 68.0756 77.8084 68.098C77.9277 68.1179 78.0917 68.1278 78.3004 68.1278V69.0559ZM80.9244 68.3515C80.9467 68.3515 80.9815 68.3477 81.0287 68.3403C81.0784 68.3303 81.1281 68.303 81.1778 68.2583C81.2275 68.2135 81.271 68.1452 81.3083 68.0533C81.348 67.9588 81.3679 67.8272 81.3679 67.6582C81.3679 67.5936 81.3555 67.5116 81.3306 67.4122C81.3083 67.3103 81.2673 67.2122 81.2076 67.1177C81.1505 67.0208 81.0722 66.9388 80.9728 66.8717C80.8759 66.8022 80.7529 66.7674 80.6038 66.7674C80.4746 66.7674 80.369 66.8059 80.287 66.8829C80.205 66.9599 80.1354 67.0556 80.0783 67.1699C80.0236 67.2842 79.9764 67.4085 79.9366 67.5426C79.8994 67.6743 79.8584 67.7948 79.8136 67.9042C79.9056 67.9564 80.0025 68.0098 80.1044 68.0645C80.2087 68.1166 80.3106 68.1638 80.41 68.2061C80.5094 68.2483 80.6026 68.2831 80.6895 68.3105C80.779 68.3378 80.8573 68.3515 80.9244 68.3515ZM80.6038 65.843C80.8597 65.843 81.0821 65.889 81.271 65.9809C81.4623 66.0728 81.6226 66.1971 81.7518 66.3536C81.881 66.5102 81.9779 66.6916 82.0425 66.8978C82.1096 67.1041 82.1457 67.3202 82.1506 67.5464C82.1506 67.6855 82.178 67.7948 82.2326 67.8744C82.2873 67.9514 82.3494 68.0085 82.419 68.0458C82.4886 68.0831 82.5569 68.1067 82.624 68.1166C82.6911 68.1241 82.737 68.1278 82.7619 68.1278H82.8663V69.0559H82.7619C82.5855 69.0559 82.4227 69.0311 82.2736 68.9814C82.127 68.9292 81.9928 68.8633 81.8711 68.7838C81.7965 68.8882 81.7145 68.9702 81.6251 69.0298C81.5356 69.0919 81.4462 69.1379 81.3567 69.1677C81.2673 69.1975 81.1815 69.2162 81.0995 69.2236C81.0175 69.2311 80.9467 69.2348 80.8871 69.2348C80.7628 69.2348 80.6448 69.2224 80.533 69.1975C80.4212 69.1752 80.3069 69.1416 80.1901 69.0969C80.0758 69.0547 79.9565 69.0025 79.8323 68.9404C79.708 68.8758 79.5726 68.8037 79.426 68.7242C79.3142 68.8435 79.1937 68.9292 79.0644 68.9814C78.9377 69.0311 78.7886 69.0559 78.6172 69.0559H78.1587L78.1513 68.1278H78.6172C78.6718 68.1278 78.719 68.1117 78.7588 68.0794C78.801 68.0471 78.8383 68.0023 78.8706 67.9452C78.9054 67.8855 78.9365 67.8147 78.9638 67.7327C78.9936 67.6482 79.0234 67.5551 79.0533 67.4532C79.103 67.2743 79.1626 67.0904 79.2322 66.9015C79.3017 66.7102 79.3937 66.5363 79.508 66.3797C79.6248 66.2232 79.7714 66.0952 79.9478 65.9958C80.1242 65.8939 80.3429 65.843 80.6038 65.843ZM84.8701 65.925C84.875 65.9424 84.885 65.9834 84.8999 66.048C84.9173 66.1126 84.9359 66.1921 84.9558 66.2865C84.9757 66.3785 84.9956 66.4816 85.0154 66.5959C85.0378 66.7102 85.0577 66.8258 85.0751 66.9425C85.095 67.0568 85.1099 67.1687 85.1198 67.278C85.1322 67.3873 85.1384 67.483 85.1384 67.565C85.1384 67.8209 85.0962 68.0433 85.0117 68.2322C84.9272 68.4185 84.8167 68.5726 84.68 68.6944C84.5433 68.8161 84.3893 68.9068 84.2178 68.9665C84.0488 69.0261 83.8786 69.0559 83.7072 69.0559H82.7157V68.1278H83.7333C83.7631 68.1278 83.8053 68.1241 83.86 68.1166C83.9171 68.1067 83.973 68.0831 84.0277 68.0458C84.0849 68.0085 84.1346 67.9526 84.1768 67.8781C84.219 67.8011 84.2402 67.6967 84.2402 67.565C84.2402 67.5103 84.2352 67.4445 84.2253 67.3675C84.2178 67.2879 84.2066 67.2035 84.1917 67.114C84.1768 67.0245 84.1594 66.9338 84.1395 66.8419C84.1221 66.7475 84.1047 66.6593 84.0874 66.5773C84.07 66.4928 84.0526 66.417 84.0352 66.3499C84.0178 66.2803 84.0041 66.2269 83.9942 66.1896L84.8701 65.925ZM83.4724 64.4266L84.1433 63.7483L84.8291 64.4341L84.1507 65.1125L83.4724 64.4266Z" fill="#4F5269"/>
</svg>
