<svg width="120" height="142" viewBox="0 0 120 142" fill="none" xmlns="http://www.w3.org/2000/svg">
<rect width="120" height="142" rx="7" fill="#1F7FDE"/>
<path d="M54.6328 17.6262C54.7758 17.6039 54.9199 17.5875 55.0664 17.5793C55.3289 18.4875 55.398 19.4672 55.8809 20.2992C56.9402 22.1555 58.5176 23.6473 59.6027 25.4871C60.2555 26.6109 60.3949 28.0301 59.9273 29.2488C59.1726 31.2433 57.9398 33 56.8266 34.8047C56.2523 35.7387 55.5434 36.5789 54.9562 37.5047C54.5285 38.2348 53.9602 38.8957 53.223 39.3246C53.073 38.4047 53.4082 37.4308 53.0168 36.5473C51.9867 34.3676 49.7812 32.9976 48.8449 30.7605C48.5168 29.7164 48.6246 28.5445 49.098 27.5601C50.4586 24.7641 52.0594 22.0933 53.6156 19.4039C53.9637 18.8168 54.1582 18.1301 54.6328 17.6262Z" fill="white"/>
<path d="M62.4457 36.7312C64.2832 36.498 66.2379 36.4863 67.9594 37.2562C70.9195 38.5254 73.1625 41.3402 73.7144 44.516C74.1609 46.2 74.2722 47.9554 74.1797 49.691C74.1527 51.4898 73.7191 53.2629 73.0992 54.9445C72.1945 57.3422 70.807 59.5594 69.0363 61.4133C67.9136 62.5219 66.8449 63.6961 65.5769 64.6441C63.9762 65.8699 62.1152 66.832 60.0984 67.1004C59.0918 67.2316 58.0945 67.5211 57.0715 67.4636C54.3246 67.2515 51.6258 66.5976 49.0359 65.6719C47.0976 64.9582 45.1301 64.3347 43.1742 63.6738C41.7633 63.3246 40.364 62.8254 38.8957 62.8101C38.2324 62.7996 37.8281 63.4289 37.6242 63.9808C37.0207 65.707 36.5637 67.4789 36.1019 69.2461C35.8652 70.207 35.564 71.1527 35.414 72.1336C35.2383 73.2375 35.1258 74.3508 35.0015 75.4605C34.8047 78.116 35.2066 80.809 36.1394 83.3004C36.7629 84.9304 37.8597 86.4258 39.3937 87.3011C41.5066 88.623 44.1574 88.5679 46.514 88.0523C48.866 87.4523 51.1734 86.6543 53.3508 85.5773C55.2949 84.6258 57.1078 83.434 58.8914 82.2129C62.5758 79.6781 66.2847 77.1808 70.0125 74.7094C72.0996 73.3593 74.2816 72.1547 76.5457 71.1269C77.5828 70.6523 78.6925 70.3722 79.7941 70.0886C80.5922 69.9129 81.4851 69.948 82.1918 70.398C82.6101 70.6722 82.9617 71.0332 83.359 71.3355C83.9683 71.8347 84.7418 72.0972 85.3043 72.6597C85.8433 73.207 86.4258 73.8855 86.3015 74.714C85.2187 74.8078 84.1488 74.3894 83.0695 74.6109C81.5144 74.8031 80.1386 75.5965 78.764 76.2914C77.5734 76.889 76.4953 77.6801 75.3972 78.4265C73.7765 79.5304 72.1547 80.6379 70.6383 81.8836C66.8461 84.8015 63.2707 87.9996 59.3461 90.7453C57.5402 92.0086 55.6886 93.2097 53.7785 94.3125C51.5086 95.5148 49.1871 96.6996 46.6687 97.2855C44.2945 97.8773 41.7902 98.3285 39.3609 97.7965C37.7625 97.4648 36.0644 97.0945 34.8176 95.9672C33.2672 94.5269 32.4539 92.5043 31.841 90.525C31.5035 89.0836 31.1543 87.6269 31.1543 86.1375C31.1683 85.3113 30.9281 84.491 31.0465 83.666C31.2539 82.4285 31.0664 81.1617 31.3008 79.9277C31.5867 78.498 31.7121 77.0426 32.0109 75.6152C32.3894 74.0742 32.7035 72.5156 33.1535 70.991C33.6656 69.1886 34.2597 67.4109 34.8586 65.6367C35.1539 64.7543 35.775 63.9527 35.7176 62.9801C34.9301 62.8031 34.1285 63.0187 33.3902 63.2894C32.6765 63.5625 31.9418 63.7922 31.2738 64.173C30.4664 64.6054 29.741 65.1691 28.9898 65.6894C28.7637 65.8535 28.3617 65.9543 28.1941 65.6601C28.0629 65.3847 28.1379 65.0625 28.2469 64.7941C29.1445 62.509 30.9258 60.6316 33.0504 59.4328C33.8262 59.0719 34.4519 58.4754 34.9992 57.8297C35.8699 56.8113 36.9047 55.9207 38.1058 55.3148C38.693 54.9937 39.375 54.8636 39.9152 54.4511C40.4203 54.1008 40.7929 53.598 41.0929 53.0683C43.8527 48.5531 47.4035 44.4703 51.7441 41.414C52.548 40.7344 53.4996 40.275 54.4254 39.7886C56.9051 38.3449 59.5851 37.1426 62.4457 36.7312ZM54.314 43.4379C52.5012 44.1398 50.9004 45.2625 49.3594 46.4262C47.9906 47.509 46.7929 48.784 45.5754 50.0285C44.7293 50.9179 44.0929 51.9785 43.275 52.8914C42.9715 53.2113 43.0945 53.6777 43.1074 54.0715C44.6332 54.1054 46.1601 54.2121 47.6719 54.4254C52.1308 55.2703 56.2969 57.164 60.6914 58.2551C61.8762 58.6265 63.1195 58.7121 64.3418 58.8879C65.2066 59.0121 66.0773 58.8469 66.9281 58.6957C67.7988 58.5386 68.2945 57.7394 68.9015 57.1804C69.9984 56.1222 70.4812 54.5777 70.5679 53.0894C70.5187 51.7289 70.6804 50.3543 70.4601 49.0031C70.1086 47.5547 69.2929 46.2363 68.2664 45.1687C67.5082 44.4679 66.7183 43.7719 65.7761 43.3312C64.5398 42.791 63.2297 42.4066 61.8867 42.2707C59.3168 42.0351 56.7047 42.4804 54.314 43.4379Z" fill="white"/>
<path d="M83.8125 77.3824C84.9633 76.8234 86.284 76.7285 87.5402 76.8738C88.1238 76.9652 88.5515 77.4094 88.9594 77.7996C89.6367 78.4558 90.4969 78.9129 91.0863 79.6617C91.4883 80.189 91.9371 80.768 91.8703 81.4746C91.718 81.539 91.5726 81.6492 91.3992 81.6269C90.8519 81.6129 90.3082 81.5226 89.7598 81.5426C88.691 81.5742 87.6422 81.8801 86.6883 82.3547C84.6012 83.3555 82.7461 84.7676 80.9801 86.2488C79.4297 87.5859 77.8851 88.9348 76.4566 90.4031C74.6449 92.2254 72.8191 94.0336 70.9101 95.7562C69.4605 97.1965 67.9605 98.5863 66.4172 99.9269C64.8902 101.255 63.2133 102.4 61.4613 103.409C60.2707 104.086 58.9957 104.641 57.648 104.916C55.6828 105.246 53.6367 105.404 51.6879 104.886C51.0574 104.729 50.4457 104.507 49.8562 104.236C48.8777 103.782 47.7597 103.798 46.7707 103.373C45.3867 102.8 44.0543 101.938 43.2445 100.646C43.0301 100.334 43.0722 99.941 43.0793 99.5836C43.8281 99.5648 44.4949 99.9293 45.2086 100.089C47.6191 100.406 50.0461 99.873 52.3195 99.0937C53.1562 98.7926 54.0129 98.5383 54.8191 98.1586C56.1469 97.5504 57.3844 96.7711 58.6453 96.0398C60.7336 94.8293 62.6215 93.3094 64.4543 91.7484C67.8269 88.8246 71.2289 85.9324 74.7492 83.1867C77.5441 80.9332 80.468 78.7547 83.8125 77.3824Z" fill="white"/>
<path opacity="0.89" d="M81.3644 109.102C81.5519 108.912 81.7394 108.723 81.9292 108.537C82.1167 108.724 82.3042 108.913 82.4917 109.102C82.3042 109.289 82.1167 109.478 81.9292 109.666C81.7394 109.478 81.5519 109.29 81.3644 109.102Z" fill="white"/>
<path opacity="0.89" d="M107.237 109.363C107.422 109.174 107.61 108.987 107.797 108.8C107.986 108.987 108.173 109.175 108.362 109.364C108.173 109.553 107.986 109.74 107.798 109.929C107.61 109.74 107.422 109.552 107.237 109.363Z" fill="white"/>
<path opacity="0.89" d="M7.40038 115.827C5.90506 113.837 5.89569 110.862 7.44374 108.9C7.64413 109.073 7.84335 109.248 8.04256 109.423C7.43905 110.37 7.01835 111.476 7.08983 112.615C7.12147 113.578 7.45663 114.518 8.01561 115.3C7.81171 115.475 7.60663 115.652 7.40038 115.827Z" fill="white"/>
<path opacity="0.89" d="M67.4039 109.429C67.6043 109.249 67.8059 109.071 68.0098 108.895C69.5484 110.864 69.5508 113.835 68.052 115.826C67.8457 115.654 67.6395 115.48 67.4344 115.308C68.1656 114.264 68.5172 112.938 68.3086 111.673C68.1844 110.866 67.8469 110.108 67.4039 109.429Z" fill="white"/>
<path opacity="0.89" d="M11.9191 109.185C12.1851 109.184 12.45 109.184 12.716 109.185C12.7172 110.993 12.7148 112.802 12.7183 114.612C12.7183 115.124 12.6175 115.68 12.2379 116.054C11.7422 116.569 10.9757 116.641 10.3007 116.605C9.52497 116.592 8.7902 116.034 8.58161 115.286C8.32965 114.42 8.60622 113.523 8.96129 112.731C9.21676 112.839 9.46989 112.951 9.72184 113.068C9.47926 113.644 9.1945 114.261 9.33278 114.901C9.40778 115.37 9.83668 115.75 10.3089 115.775C10.7648 115.798 11.2886 115.807 11.6484 115.477C11.8886 115.213 11.9039 114.831 11.9191 114.493C11.9203 112.724 11.9168 110.954 11.9191 109.185Z" fill="white"/>
<path opacity="0.89" d="M13.7109 109.159C13.9839 109.158 14.2581 109.158 14.5312 109.159C14.5335 110.432 14.5253 111.704 14.5359 112.977C14.5464 113.238 14.5581 113.636 14.8945 113.682C15.4722 113.774 16.0617 113.721 16.6441 113.728C16.9054 113.746 17.1339 113.617 17.3449 113.48C17.3413 112.976 17.3437 112.473 17.3437 111.972C17.6167 111.97 17.891 111.97 18.164 111.972C18.1734 112.412 18.1429 112.856 18.1839 113.297C18.2109 113.57 18.4874 113.727 18.7417 113.723C19.3699 113.74 19.9992 113.729 20.6273 113.728C20.8874 113.748 21.116 113.617 21.3281 113.484C21.3269 112.979 21.3281 112.475 21.3281 111.972C21.6011 111.97 21.8753 111.97 22.1484 111.972C22.1824 112.464 22.0734 112.982 22.221 113.459C22.5128 113.886 23.1187 113.681 23.5558 113.732C24.8742 113.815 26.196 113.495 27.3503 112.861C26.6777 112.623 26.0144 112.347 25.323 112.166C24.9949 112.055 24.8074 112.391 24.6456 112.608C24.3984 112.535 24.1523 112.463 23.9062 112.389C24.0785 112.004 24.2648 111.565 24.6855 111.398C25.1273 111.173 25.6148 111.398 26.0449 111.543C26.8019 111.83 27.5601 112.116 28.3195 112.398C28.3335 112.618 28.4121 112.846 28.3687 113.066C28.1953 113.236 27.9914 113.37 27.8085 113.53C28.439 113.891 29.1902 113.67 29.8781 113.732C30.2929 113.711 30.9597 113.868 31.0921 113.317C31.1484 112.759 30.9538 112.213 30.8578 111.669C31.1156 111.591 31.3734 111.512 31.6324 111.435C31.7578 112.054 31.93 112.679 31.8949 113.317C31.8538 113.985 31.2562 114.55 30.5847 114.546C29.8054 114.557 29.0261 114.566 28.248 114.54C27.7617 114.529 27.3609 114.212 27.089 113.834C26.1339 114.284 25.0921 114.601 24.0257 114.554C23.2628 114.512 22.4121 114.715 21.7453 114.236C21.0222 114.698 20.1398 114.518 19.3324 114.554C18.7921 114.575 18.2179 114.57 17.7621 114.236C17.2886 114.532 16.7261 114.58 16.18 114.556C15.5308 114.529 14.8242 114.645 14.2277 114.325C13.7624 114.055 13.7238 113.457 13.7109 112.978C13.7085 111.706 13.7132 110.432 13.7109 109.159Z" fill="white"/>
<path opacity="0.89" d="M42.5391 109.159C42.8122 109.158 43.0852 109.158 43.3594 109.159C43.3618 110.433 43.3536 111.707 43.3641 112.981C43.377 113.235 43.3817 113.618 43.7028 113.677C44.2079 113.78 44.7294 113.718 45.2403 113.718C44.9672 113.331 44.7376 112.88 44.8231 112.391C44.9051 111.561 45.879 111.083 46.6337 111.292C47.3087 111.448 47.8137 112.153 47.7247 112.843C47.6954 113.251 47.4282 113.578 47.2008 113.898C47.6391 113.958 48.1981 114.069 48.5227 113.677C48.7395 113.454 48.6212 113.119 48.4852 112.889C48.0704 112.187 47.5079 111.591 47.0122 110.947C47.2278 110.784 47.4446 110.623 47.6614 110.461C48.129 111.079 48.5977 111.696 49.0712 112.309C49.3981 112.716 49.4825 113.285 49.3337 113.781C49.1438 114.427 48.4524 114.778 47.8114 114.765C47.2676 114.814 46.7848 114.543 46.2844 114.386C45.2954 114.51 44.27 114.689 43.288 114.432C42.7524 114.288 42.5485 113.705 42.5497 113.204C42.5215 111.857 42.5473 110.507 42.5391 109.159ZM45.9563 112.052C45.7465 112.156 45.5614 112.369 45.5848 112.617C45.5837 113.036 45.9598 113.338 46.302 113.511C46.6958 113.386 47.0344 112.941 46.9489 112.511C46.8422 112.107 46.3348 111.837 45.9563 112.052Z" fill="white"/>
<path opacity="0.89" d="M57.0703 109.159C57.3433 109.158 57.6164 109.158 57.8906 109.159C57.8929 110.431 57.8847 111.702 57.8953 112.973C57.9164 113.206 57.8953 113.532 58.1496 113.651C58.5937 113.774 59.066 113.741 59.523 113.715C59.7457 113.713 59.9554 113.536 59.9918 113.317C60.0539 112.869 60.0164 112.416 60.0222 111.967C60.3 111.969 60.5789 111.972 60.8578 111.977C60.8601 112.419 60.8273 112.863 60.8719 113.305C60.9551 113.872 61.9336 113.872 62.0402 113.314C62.1105 112.873 62.0672 112.423 62.0719 111.977C62.3496 111.973 62.6285 111.969 62.9074 111.967C62.9191 112.454 62.864 112.949 62.9461 113.433C63.1793 113.872 63.9808 113.831 64.0945 113.317C64.1695 112.765 63.9785 112.22 63.8695 111.686C64.1285 111.6 64.3887 111.517 64.6512 111.438C64.8082 112.261 65.1902 113.228 64.6652 113.991C64.1836 114.709 63.1254 114.686 62.482 114.205C61.8785 114.659 61.0347 114.646 60.4289 114.206C60.1277 114.406 59.7879 114.563 59.4187 114.553C58.8093 114.546 58.1461 114.623 57.5894 114.326C57.1195 114.054 57.082 113.45 57.0703 112.968C57.0679 111.698 57.0715 110.428 57.0703 109.159Z" fill="white"/>
<path opacity="0.89" d="M90.8414 109.159C91.118 109.158 91.3957 109.158 91.6746 109.159C91.6875 110.501 91.65 111.846 91.6898 113.187C91.7402 113.732 92.3754 113.787 92.8008 113.728C93.0551 113.729 93.1348 113.447 93.2121 113.256C93.4055 112.676 93.5168 112.002 94.0406 111.612C94.6242 111.203 95.5406 111.333 95.9625 111.92C96.3586 112.46 96.3738 113.187 96.2285 113.817C96.1231 114.266 95.7621 114.674 95.2863 114.721C94.6922 114.805 94.1602 114.481 93.6469 114.238C92.9625 114.736 91.9149 114.682 91.2691 114.138C90.566 114.653 89.6637 114.559 88.8434 114.543C89.1234 114.967 89.1258 115.556 88.7367 115.917C87.9656 116.695 86.7902 116.617 85.7836 116.605C84.8742 116.64 83.9742 116.044 83.6859 115.175C83.3332 114.149 83.6426 113.036 84.0984 112.093C84.3387 112.213 84.5789 112.332 84.8203 112.451C84.484 113.223 84.1664 114.122 84.4957 114.952C84.6856 115.472 85.2281 115.794 85.7719 115.777C86.4352 115.766 87.1453 115.864 87.7606 115.554C87.9973 115.454 88.1203 115.221 88.2492 115.016C87.743 114.675 87.1336 114.585 86.5395 114.538C86.5406 114.267 86.5406 113.997 86.5418 113.728C87.6563 113.727 88.7719 113.732 89.8875 113.729C90.2074 113.713 90.5895 113.689 90.7945 113.406C90.8567 113.187 90.8414 112.955 90.8473 112.732C90.8379 111.54 90.8473 110.35 90.8414 109.159ZM93.9703 113.496C94.3887 113.672 94.8106 113.966 95.2875 113.892C95.8336 113.399 95.5535 112.078 94.6922 112.212C94.1684 112.39 94.1074 113.036 93.9703 113.496Z" fill="white"/>
<path opacity="0.89" d="M102.656 109.159C102.929 109.158 103.202 109.158 103.477 109.159C103.479 110.431 103.471 111.702 103.481 112.973C103.501 113.204 103.482 113.524 103.727 113.647C104.135 113.768 104.577 113.756 104.995 113.693C105.197 113.672 105.387 113.518 105.394 113.306C105.431 112.862 105.403 112.416 105.407 111.97H106.234C106.243 112.423 106.187 112.882 106.273 113.33C106.371 113.84 107.248 113.882 107.386 113.374C107.47 112.914 107.413 112.44 107.423 111.976C107.701 111.972 107.98 111.969 108.259 111.967C108.273 112.454 108.209 112.952 108.306 113.434C108.524 113.869 109.348 113.835 109.441 113.318C109.511 112.872 109.468 112.417 109.475 111.967C109.753 111.969 110.032 111.972 110.311 111.977C110.334 112.466 110.232 112.978 110.372 113.454C110.631 113.834 111.169 113.701 111.561 113.734C111.969 113.695 112.582 113.877 112.78 113.388C112.881 112.811 112.663 112.235 112.564 111.672C112.823 111.592 113.082 111.512 113.341 111.431C113.468 112.05 113.634 112.675 113.604 113.311C113.569 113.994 112.949 114.56 112.267 114.547C111.468 114.533 110.579 114.7 109.881 114.209C109.298 114.679 108.436 114.653 107.845 114.213C107.257 114.659 106.441 114.652 105.844 114.229C105.114 114.661 104.206 114.621 103.407 114.434C102.872 114.291 102.666 113.707 102.667 113.206C102.639 111.857 102.665 110.508 102.656 109.159Z" fill="white"/>
<path opacity="0.89" d="M54.8929 109.905C55.1015 109.698 55.3113 109.491 55.5222 109.287C55.7308 109.499 55.9406 109.71 56.1504 109.923C55.9429 110.131 55.7355 110.339 55.5293 110.55C55.3172 110.333 55.1051 110.119 54.8929 109.905Z" fill="white"/>
<path opacity="0.89" d="M112.694 109.287C112.911 109.495 113.126 109.706 113.34 109.92C113.132 110.128 112.924 110.338 112.719 110.549C112.507 110.333 112.294 110.121 112.083 109.908C112.285 109.7 112.491 109.494 112.694 109.287Z" fill="white"/>
<path opacity="0.89" d="M82.0957 110.155C82.2949 109.954 82.4848 109.743 82.7098 109.57C82.9359 109.737 83.1293 109.942 83.3297 110.14C83.1281 110.34 82.9266 110.543 82.725 110.745C82.5164 110.545 82.3066 110.348 82.0957 110.155Z" fill="white"/>
<path opacity="0.89" d="M80.5125 110.173C80.707 109.966 80.905 109.763 81.1054 109.562C81.3035 109.758 81.5121 109.948 81.689 110.167C81.5179 110.391 81.3093 110.584 81.1054 110.779C80.9074 110.577 80.7082 110.374 80.5125 110.173Z" fill="white"/>
<path opacity="0.89" d="M15.9562 110.316C16.1554 110.116 16.3546 109.92 16.5562 109.724C16.7577 109.927 16.9581 110.133 17.1573 110.34C16.9534 110.541 16.7495 110.742 16.5456 110.944C16.3464 110.736 16.1484 110.528 15.9562 110.316Z" fill="white"/>
<path opacity="0.89" d="M17.4574 110.341C17.6554 110.138 17.85 109.93 18.0445 109.724C18.2484 109.924 18.4511 110.126 18.6551 110.327C18.4535 110.534 18.2496 110.738 18.0457 110.943C17.8488 110.742 17.6519 110.543 17.4574 110.341Z" fill="white"/>
<path opacity="0.89" d="M107.962 110.419C108.167 110.214 108.375 110.012 108.585 109.812C108.792 110.006 108.996 110.203 109.199 110.404C108.997 110.604 108.797 110.806 108.598 111.008C108.387 110.81 108.175 110.613 107.962 110.419Z" fill="white"/>
<path opacity="0.89" d="M106.405 110.425C106.577 110.208 106.781 110.019 106.976 109.823C107.18 110.027 107.384 110.234 107.585 110.441C107.381 110.641 107.178 110.842 106.976 111.043C106.774 110.847 106.562 110.658 106.405 110.425Z" fill="white"/>
<path opacity="0.89" d="M51.4383 110.419C51.7055 110.355 51.9727 110.292 52.2422 110.231C52.4484 111.064 52.657 111.898 52.8539 112.733C52.9348 113.095 53.1047 113.489 53.4856 113.619C53.993 113.801 54.5484 113.723 55.0781 113.723C55.3641 113.746 55.6242 113.502 55.6254 113.217C55.6277 112.691 55.4789 112.181 55.3793 111.668C55.6383 111.591 55.8961 111.512 56.1551 111.432C56.2945 112.273 56.6895 113.252 56.1457 114.025C55.657 114.695 54.7465 114.547 54.0258 114.552C53.3438 114.568 52.6676 114.244 52.3102 113.653C51.7981 114.268 50.7938 114.409 50.1727 113.883C49.5387 113.347 49.527 112.301 50.052 111.686C50.4141 111.212 50.9777 110.971 51.5145 110.754C51.4957 110.67 51.457 110.503 51.4383 110.419ZM50.5969 112.246C50.4 112.498 50.3391 112.898 50.5688 113.152C50.966 113.59 51.8203 113.325 51.9129 112.745C51.9586 112.338 51.8109 111.946 51.7242 111.557C51.3152 111.718 50.8676 111.877 50.5969 112.246Z" fill="white"/>
<path opacity="0.89" d="M33.6106 110.95C33.8391 110.795 34.0676 110.641 34.2973 110.488C34.7473 111.19 35.2242 111.873 35.6778 112.573C35.8981 112.921 36.0938 113.347 35.9543 113.766C35.8406 114.177 35.434 114.411 35.0414 114.498C34.1473 114.695 33.1594 114.597 32.3883 114.074C32.5254 113.841 32.6625 113.609 32.7985 113.377C33.5156 113.831 34.4426 113.878 35.2231 113.564C34.8328 112.611 34.1239 111.836 33.6106 110.95Z" fill="white"/>
<path opacity="0.89" d="M71.6683 111.001C71.8301 110.789 72.0269 110.61 72.2156 110.423C72.4183 110.627 72.6211 110.834 72.8214 111.043C72.6175 111.243 72.4148 111.444 72.2121 111.645C72.0351 111.432 71.7457 111.267 71.6683 111.001Z" fill="white"/>
<path opacity="0.89" d="M73.1202 111.059C73.3159 110.848 73.5105 110.636 73.7073 110.426C73.9112 110.626 74.114 110.828 74.3191 111.029C74.1175 111.234 73.9159 111.439 73.7132 111.643C73.514 111.448 73.3171 111.252 73.1202 111.059Z" fill="white"/>
<path opacity="0.89" d="M98.8734 111.666C99.0785 111.456 99.2836 111.248 99.4922 111.041C99.7043 111.253 99.9176 111.465 100.13 111.68C99.9211 111.888 99.7113 112.097 99.5027 112.305C99.2941 112.09 99.0832 111.877 98.8734 111.666Z" fill="white"/>
<path opacity="0.89" d="M39.3598 111.775C39.9797 111.22 40.8621 111.197 41.6414 111.331C41.5723 111.598 41.502 111.864 41.4328 112.132C40.9078 112.021 40.2938 112.028 39.8824 112.422C39.5731 112.678 39.4992 113.091 39.4793 113.472C39.9996 113.611 40.5317 113.709 41.0414 113.882C41.3391 113.979 41.4985 114.297 41.4891 114.597C41.4996 115.211 41.3473 115.932 40.7836 116.277C40.1203 116.699 39.3012 116.592 38.5559 116.605C37.6102 116.643 36.6832 115.993 36.4266 115.077C36.1184 114.063 36.4535 112.998 36.8918 112.077C37.1356 112.187 37.3805 112.3 37.6231 112.415C37.2903 113.202 36.9258 114.108 37.2703 114.955C37.4613 115.473 38.0028 115.794 38.5453 115.777C39.1418 115.76 39.7957 115.873 40.336 115.561C40.6383 115.384 40.6606 115.008 40.7414 114.707C40.1086 114.524 39.4723 114.353 38.8324 114.193C38.5383 113.373 38.6543 112.351 39.3598 111.775Z" fill="white"/>
<path opacity="0.89" d="M82.07 111.667C82.3266 111.59 82.5856 111.512 82.8434 111.435C82.9723 112.15 83.2313 112.891 83.0461 113.619C82.8633 114.252 82.1918 114.611 81.5579 114.554C80.6954 114.496 79.7438 114.741 78.9704 114.245C78.3434 114.623 77.5899 114.567 76.8879 114.547C76.5411 114.54 76.2293 114.382 75.927 114.233C75.6059 114.417 75.2508 114.553 74.8758 114.55C73.6653 114.561 72.4547 114.544 71.243 114.556C70.8563 114.554 70.4391 114.578 70.0946 114.37C69.6797 114.138 69.4301 113.675 69.4067 113.209C69.3821 112.691 69.5438 112.19 69.6739 111.694C69.934 111.777 70.1953 111.86 70.4578 111.942C70.3547 112.391 70.1754 112.847 70.2528 113.315C70.3125 113.6 70.6196 113.746 70.8938 113.729C72.1852 113.731 73.4766 113.729 74.768 113.729C75.0399 113.722 75.4418 113.677 75.4993 113.347C75.5625 112.891 75.5145 112.429 75.5239 111.97H76.3512C76.3594 112.44 76.3137 112.914 76.3735 113.381C76.534 113.814 77.0871 113.713 77.4539 113.738C77.8196 113.707 78.3973 113.82 78.545 113.373C78.6082 112.909 78.5625 112.438 78.5707 111.97H79.3981C79.4051 112.438 79.3629 112.91 79.4192 113.377C79.4778 113.647 79.7942 113.727 80.0356 113.727C80.6414 113.727 81.2496 113.749 81.8543 113.715C82.1661 113.704 82.3547 113.374 82.3196 113.088C82.2868 112.607 82.1637 112.138 82.07 111.667Z" fill="white"/>
<path opacity="0.89" d="M66.2942 111.973C66.559 111.97 66.825 111.97 67.0922 111.97C67.0852 112.812 67.1016 113.654 67.0887 114.497C67.0699 115.252 66.6422 116.013 65.9414 116.332C65.4434 116.58 64.8739 116.549 64.3336 116.547C64.3336 116.27 64.3348 115.995 64.3371 115.719C64.8528 115.713 65.4457 115.798 65.877 115.448C66.2367 115.171 66.2696 114.68 66.2895 114.263C66.3047 113.498 66.2883 112.736 66.2942 111.973Z" fill="white"/>
<path opacity="0.89" d="M100.982 111.972C101.258 111.97 101.536 111.97 101.815 111.97C101.807 112.852 101.821 113.734 101.811 114.615C101.803 115.212 101.607 115.863 101.08 116.203C100.44 116.639 99.6305 116.538 98.8981 116.547C98.011 116.578 97.1356 115.999 96.8497 115.153C96.4606 114.15 96.7922 113.053 97.2364 112.127C97.4836 112.241 97.7321 112.358 97.9793 112.477C97.6747 113.146 97.3793 113.882 97.5434 114.629C97.6407 115.187 98.1188 115.656 98.686 115.718C99.225 115.768 99.7817 115.777 100.314 115.656C100.733 115.56 100.976 115.133 100.975 114.724C100.996 113.807 100.972 112.889 100.982 111.972Z" fill="white"/>
<path opacity="0.89" d="M25.2797 115.819C25.4859 115.614 25.691 115.409 25.8984 115.204C26.1093 115.412 26.3203 115.622 26.5324 115.832C26.3238 116.048 26.114 116.263 25.9019 116.476C25.698 116.254 25.4883 116.036 25.2797 115.819Z" fill="white"/>
<path opacity="0.89" d="M29.7234 115.289C29.9331 115.489 30.1394 115.692 30.3456 115.896L29.7409 116.504C29.5523 116.3 29.3613 116.1 29.1691 115.902C29.3554 115.699 29.5406 115.495 29.7234 115.289Z" fill="white"/>
<path opacity="0.89" d="M78.014 115.882C78.2191 115.673 78.4254 115.466 78.6316 115.26C78.8449 115.472 79.0582 115.685 79.2703 115.9C79.0593 116.109 78.8496 116.319 78.6386 116.529C78.4324 116.31 78.2238 116.095 78.014 115.882Z" fill="white"/>
<path opacity="0.89" d="M19.7321 115.927C19.9207 115.726 20.1094 115.523 20.2969 115.322C20.502 115.522 20.7059 115.724 20.911 115.927C20.7082 116.129 20.5055 116.332 20.3016 116.534C20.1153 116.327 19.9242 116.126 19.7321 115.927Z" fill="white"/>
<path opacity="0.89" d="M21.1429 115.938C21.3316 115.734 21.5215 115.534 21.7148 115.335C21.9199 115.534 22.1238 115.734 22.3301 115.934C22.1367 116.135 21.9422 116.334 21.7476 116.535C21.5437 116.338 21.3422 116.139 21.1429 115.938Z" fill="white"/>
<path opacity="0.89" d="M30.5789 115.913C30.7687 115.706 30.9609 115.504 31.1554 115.303C31.3582 115.505 31.5609 115.709 31.7648 115.913C31.5667 116.108 31.3699 116.306 31.1718 116.503C30.9738 116.306 30.7757 116.108 30.5789 115.913Z" fill="white"/>
</svg>
