<svg width="120" height="142" viewBox="0 0 120 142" fill="none" xmlns="http://www.w3.org/2000/svg">
<rect width="120" height="142" rx="7" fill="#1F7FDE"/>
<path d="M62.8855 30.2995C65.3745 29.8558 68.0226 29.9768 70.3688 30.9794C72.2091 31.7583 73.7889 33.0801 74.9874 34.6703C75.96 35.9575 76.709 37.4037 77.3001 38.9017C78.0837 41.0831 78.2877 43.4281 78.2623 45.7305C78.1621 50.749 76.6998 55.7375 74.0482 60.0011C72.1411 63.0733 69.6129 65.7121 66.8668 68.0433C63.5123 70.8896 59.7972 73.2715 56.0048 75.4863C54.3685 76.4197 52.776 77.4269 51.1223 78.3303C48.8522 79.5829 46.5475 80.7721 44.2405 81.9521C43.9064 82.0962 43.9939 82.5364 43.9697 82.8302C44.0688 84.7396 44.7084 86.5869 45.5646 88.2819C47.043 91.1859 49.448 93.6069 52.3542 95.0842C53.4674 95.6604 54.6474 96.1041 55.855 96.4371C56.3816 96.5846 56.9336 96.5627 57.4741 96.5834C59.304 96.6226 61.1604 96.3357 62.8325 95.5705C64.8998 94.6371 66.6248 93.0999 68.1263 91.4267C70.5635 88.7118 72.4349 85.5647 74.47 82.5548C76.9049 78.8973 79.4354 75.2132 82.8233 72.3612C86.4014 69.3086 90.7365 67.3231 95.1234 65.7271C95.1499 65.9703 95.3424 66.2468 95.1649 66.4727C93.8397 68.525 92.0213 70.2328 89.984 71.5672C89.3502 71.9648 88.7153 72.3865 87.9904 72.5974C86.3921 73.1332 84.8203 73.8258 83.4652 74.841C82.9224 75.2536 82.4419 75.7491 82.0755 76.3264C83.4007 76.3875 84.7155 76.157 86.0395 76.1547C86.6307 76.1478 87.3255 76.3425 87.5641 76.9463C87.9893 78.0215 87.7623 79.2176 87.5537 80.317C87.45 81.0199 87.0559 81.6214 86.6975 82.216C85.6247 83.9319 84.2419 85.4725 82.5664 86.6168C81.3679 87.4661 79.9632 87.9316 78.6691 88.6046C77.7081 89.1013 76.7355 89.6175 75.9392 90.3619C75.4333 90.8194 75.2132 91.4832 74.8595 92.049C73.0515 95.1177 70.8493 97.9904 68.1321 100.31C66.3632 101.813 64.3466 103.056 62.1272 103.765C58.3038 105.019 54.0804 104.847 50.3065 103.495C46.3436 102.081 42.7759 99.485 40.3341 96.0441C39.4145 94.7201 38.6816 93.2785 37.9845 91.83C37.0292 89.8042 36.2202 87.7081 35.6083 85.5532C33.8268 86.1616 32.0914 86.8934 30.3779 87.6689C28.0893 88.7118 25.886 89.9275 23.6505 91.0764C19.6922 93.1587 15.7385 95.2525 11.8781 97.5111C10.2349 98.4652 8.65041 99.5334 7.2215 100.789C7.16388 98.8962 7.98089 97.1054 8.96269 95.5313C10.8168 92.6459 13.4211 90.3343 16.1614 88.3131C19.3787 85.9807 22.8323 83.9756 26.4622 82.3566C29.3834 81.0372 32.3345 79.7846 35.2546 78.4594C35.311 72.4753 36.0773 66.4911 37.5927 60.7006C38.4258 57.4521 39.7556 54.3627 41.1603 51.3274C43.6667 46.0174 46.8679 40.9414 51.1938 36.9231C54.4999 33.8429 58.5066 31.4679 62.8855 30.2995Z" fill="white"/>
<path d="M31.9197 109.385C33.0778 108.85 34.2336 108.312 35.3929 107.78C35.4885 108 35.583 108.22 35.6775 108.441C34.6439 108.895 33.6252 109.383 32.5938 109.842C33.1942 110.678 33.7807 111.522 34.403 112.342C34.6865 112.714 35.0668 113.095 35.5669 113.101C36.1073 113.114 36.6501 113.122 37.1905 113.108C37.4348 113.101 37.7644 112.978 37.7771 112.692C37.8116 112.218 37.7828 111.743 37.7898 111.269C38.0283 111.268 38.2657 111.267 38.5054 111.268C38.5134 111.734 38.4812 112.202 38.518 112.668C38.5641 112.95 38.8626 113.128 39.1368 113.109C39.7107 113.115 40.2857 113.125 40.8596 113.102C41.1373 113.098 41.347 112.838 41.3586 112.575C41.3805 112.032 41.2376 111.501 41.135 110.972C41.3597 110.902 41.5856 110.832 41.8114 110.763C41.9347 111.541 42.2712 112.383 41.9174 113.147C41.6513 113.705 40.9875 113.889 40.4136 113.836C39.6612 113.782 38.79 114.02 38.1597 113.484C37.4383 114 36.5164 113.801 35.6902 113.831C35.0161 113.841 34.4053 113.472 33.9985 112.952C33.4477 113.9 32.2424 113.872 31.2894 113.832C31.438 114.248 31.5199 114.754 31.2214 115.127C30.7051 115.785 29.7936 115.929 29.0066 115.911C28.4028 115.886 27.7644 115.996 27.1963 115.733C26.5798 115.47 26.1131 114.899 25.9725 114.245C25.7443 113.28 26.06 112.291 26.4599 111.416C26.6719 111.516 26.8851 111.613 27.0983 111.71C26.7526 112.502 26.4242 113.413 26.7319 114.271C26.9185 114.831 27.4878 115.217 28.0778 115.187C28.8314 115.16 29.6461 115.308 30.3375 114.924C30.5876 114.795 30.8388 114.445 30.5876 114.195C30.1543 113.836 29.5493 113.873 29.0227 113.818C29.0412 113.582 29.0584 113.347 29.0734 113.111C30.0898 113.111 31.1073 113.11 32.1237 113.11C32.5374 113.108 33.0271 113.064 33.2979 112.709C33.4569 112.372 33.2714 111.996 33.0755 111.717C32.648 111.113 32.217 110.512 31.7849 109.911C31.8298 109.735 31.8748 109.559 31.9197 109.385Z" fill="white"/>
<path d="M53.4697 109.384C54.6266 108.85 55.7824 108.312 56.9405 107.78C57.0373 108 57.1318 108.219 57.2275 108.441C56.1938 108.895 55.1751 109.383 54.1438 109.842C54.7419 110.678 55.3296 111.521 55.9518 112.341C56.2353 112.717 56.6202 113.095 57.1249 113.103C57.5063 113.107 57.95 113.177 58.2669 112.91C58.3948 112.746 58.3844 112.526 58.3902 112.331C58.3844 111.037 58.3867 109.742 58.3879 108.448C58.6276 108.448 58.8673 108.448 59.1081 108.449C59.1092 109.743 59.1081 111.04 59.1104 112.335C59.1127 112.738 59.0366 113.19 58.7117 113.465C58.2427 113.864 57.5743 113.864 56.9947 113.812C56.407 113.76 55.9092 113.398 55.5473 112.952C55.1014 113.727 54.138 113.887 53.3199 113.836C52.5674 113.782 51.6974 114.021 51.067 113.485C50.7386 113.685 50.3756 113.844 49.9827 113.832C49.3201 113.822 48.6437 113.902 47.9983 113.718C47.9926 114.37 47.7967 115.075 47.2562 115.486C46.6927 115.935 45.9368 115.947 45.25 115.943V115.219C45.7743 115.208 46.3678 115.276 46.8103 114.931C47.1917 114.654 47.2689 114.154 47.2885 113.716C47.3035 112.901 47.2885 112.084 47.2943 111.268C47.5247 111.268 47.7552 111.268 47.9868 111.269C48.0145 111.797 47.9004 112.351 48.0767 112.859C48.3913 113.256 48.9629 113.065 49.3984 113.114C49.8179 113.083 50.4183 113.243 50.666 112.797C50.7352 112.291 50.6822 111.777 50.696 111.269C50.9334 111.268 51.1719 111.267 51.4116 111.268C51.4266 111.756 51.3724 112.25 51.4392 112.735C51.6213 113.228 52.224 113.099 52.6342 113.107C53.3072 113.069 54.0505 113.252 54.6623 112.887C55.0392 112.674 54.9159 112.156 54.7154 111.861C54.2717 111.2 53.7946 110.561 53.3337 109.911C53.3786 109.735 53.4236 109.559 53.4697 109.384Z" fill="white"/>
<path d="M59.8283 108.446C60.0668 108.447 60.3065 108.448 60.5451 108.45C60.5462 110.244 60.5451 112.039 60.5462 113.833C60.3077 113.833 60.0691 113.833 59.8318 113.834C59.8295 112.037 59.8341 110.242 59.8283 108.446Z" fill="white"/>
<path d="M65.4736 108.447C65.7041 108.448 65.9346 108.448 66.1662 108.45C66.157 109.704 66.1581 110.958 66.1639 112.213C66.1881 112.511 66.157 112.942 66.505 113.063C66.8046 113.125 67.1238 113.138 67.4257 113.082C67.8901 112.502 67.8025 111.641 68.3153 111.079C68.9284 110.378 70.2167 110.651 70.537 111.516C70.8251 112.005 70.499 112.796 71.1178 113.071C71.6341 113.148 72.1618 113.103 72.6838 113.113C72.9374 113.117 73.2531 113.052 73.3683 112.797C73.4352 112.289 73.3787 111.774 73.4041 111.263C73.6391 111.264 73.8754 111.268 74.1127 111.271C74.1162 111.703 74.0989 112.137 74.1162 112.57C74.107 112.851 74.3651 113.094 74.6405 113.102C75.2974 113.133 75.9553 113.099 76.6133 113.114C76.4555 112.872 76.278 112.628 76.2434 112.333C76.0683 111.498 76.7804 110.642 77.6205 110.606C78.2001 110.542 78.7048 110.882 79.1727 111.174C79.0528 111.374 78.9319 111.573 78.812 111.774C78.5389 111.611 78.2716 111.431 77.9662 111.34C77.4903 111.179 76.8934 111.579 76.9337 112.099C76.9164 112.402 77.1123 112.684 77.3762 112.82C77.9604 113.145 78.6507 113.12 79.2971 113.113C79.2971 113.352 79.2971 113.593 79.2983 113.834C77.7795 113.832 76.2619 113.839 74.7442 113.832C74.3847 113.843 74.0471 113.702 73.7682 113.484C73.4087 113.718 72.9938 113.857 72.5617 113.835C71.8507 113.81 71.0798 113.961 70.4414 113.559C70.2351 113.775 69.9954 114.002 69.6751 114.005C69.0851 114.067 68.5608 113.751 68.0618 113.487C67.5409 113.972 66.7585 113.887 66.1339 113.69C65.6672 113.534 65.4863 113.009 65.4805 112.561C65.4702 111.189 65.4852 109.818 65.4736 108.447ZM68.7578 111.642C68.5377 112.009 68.4836 112.443 68.3591 112.846C68.7463 113.029 69.1254 113.28 69.5645 113.306C69.7857 113.311 69.9171 113.102 69.9666 112.912C70.0692 112.49 70.0588 112.001 69.7915 111.641C69.5529 111.322 68.9756 111.28 68.7578 111.642Z" fill="white"/>
<path d="M80.1096 108.446C80.3481 108.447 80.5866 108.448 80.8263 108.45C80.8274 110.244 80.8263 112.039 80.8274 113.833C80.5878 113.833 80.3492 113.833 80.113 113.834C80.1107 112.037 80.1153 110.242 80.1096 108.446Z" fill="white"/>
<path d="M85.7549 108.448C85.9842 108.448 86.2135 108.447 86.4451 108.447C86.4417 109.697 86.4382 110.949 86.4451 112.2C86.4716 112.489 86.4313 112.881 86.7321 113.042C87.042 113.139 87.3866 113.132 87.7058 113.082C88.1725 112.503 88.0826 111.641 88.5966 111.078C89.2085 110.38 90.4899 110.649 90.8137 111.507C91.1098 112.001 90.7745 112.811 91.4129 113.076C91.883 113.139 92.3624 113.118 92.836 113.102C93.1114 113.094 93.3177 112.835 93.3292 112.572C93.35 112.034 93.214 111.505 93.0999 110.983C93.3258 110.907 93.5528 110.832 93.781 110.76C93.8985 111.391 94.0863 112.027 94.0333 112.675C93.9769 113.322 93.3869 113.846 92.7392 113.829C92.0605 113.827 91.3288 113.94 90.7226 113.557C90.5187 113.773 90.2801 113.999 89.9632 114.003C89.3709 114.069 88.8432 113.752 88.3419 113.487C87.8222 113.973 87.0386 113.887 86.4129 113.69C85.9508 113.533 85.7687 113.014 85.7618 112.569C85.7503 111.195 85.7664 109.822 85.7549 108.448ZM89.0425 111.637C88.819 112.003 88.766 112.442 88.6403 112.846C89.0275 113.029 89.4067 113.28 89.8469 113.306C90.0693 113.309 90.2006 113.1 90.2479 112.909C90.3504 112.488 90.3389 111.998 90.0716 111.64C89.8342 111.324 89.2626 111.28 89.0425 111.637Z" fill="white"/>
<path d="M40.5415 109.198C40.757 108.98 40.9725 108.764 41.1903 108.549C41.4104 108.768 41.6305 108.988 41.8506 109.209C41.6339 109.425 41.4173 109.642 41.1995 109.858C40.9805 109.638 40.7616 109.418 40.5415 109.198Z" fill="white"/>
<path d="M92.5122 109.198C92.7265 108.98 92.9432 108.764 93.161 108.549C93.3811 108.768 93.6012 108.988 93.8213 109.209L93.1713 109.858C92.9512 109.638 92.7312 109.418 92.5122 109.198Z" fill="white"/>
<path d="M49.3385 109.64C49.5321 109.43 49.7291 109.225 49.9297 109.023C50.1313 109.224 50.333 109.425 50.5335 109.627C50.3341 109.828 50.1336 110.029 49.9331 110.231L49.3385 109.64Z" fill="white"/>
<path d="M50.7836 109.646C50.9783 109.446 51.1708 109.243 51.3586 109.038C51.5649 109.243 51.77 109.449 51.9751 109.657C51.778 109.853 51.581 110.049 51.3839 110.246C51.1834 110.045 50.9841 109.846 50.7836 109.646Z" fill="white"/>
<path d="M72.0397 109.64C72.2333 109.43 72.4303 109.225 72.632 109.023C72.8325 109.224 73.033 109.425 73.2347 109.627C73.0353 109.828 72.8336 110.029 72.6343 110.231L72.0397 109.64Z" fill="white"/>
<path d="M73.4836 109.648C73.6795 109.447 73.8708 109.244 74.0598 109.038C74.2649 109.242 74.4711 109.448 74.6763 109.654C74.4815 109.85 74.2868 110.045 74.0943 110.243C73.8869 110.046 73.6852 109.847 73.4836 109.648Z" fill="white"/>
<path d="M62.4441 110.281C62.6446 110.15 62.8475 110.022 63.0514 109.896C63.4893 110.56 63.9203 111.229 64.3686 111.887C64.6059 112.23 64.8111 112.658 64.6912 113.083C64.5783 113.472 64.1992 113.712 63.8223 113.798C62.9466 113.99 61.9786 113.911 61.2134 113.415C61.3275 113.206 61.4439 113.001 61.5603 112.795C62.2275 113.206 63.0814 113.287 63.8223 113.045C64.0943 112.962 64.0067 112.662 63.8903 112.485C63.4294 111.737 62.927 111.014 62.4441 110.281Z" fill="white"/>
<path d="M82.7242 110.283C82.9247 110.151 83.1287 110.022 83.3326 109.895C83.7705 110.561 84.2027 111.231 84.6521 111.889C84.8883 112.232 85.0911 112.659 84.9724 113.083C84.8583 113.472 84.4792 113.713 84.1013 113.798C83.2278 113.99 82.261 113.911 81.4969 113.415C81.6076 113.208 81.7217 113.002 81.8346 112.797C82.5755 113.223 83.5792 113.358 84.3363 112.902C83.9572 111.944 83.2577 111.156 82.7242 110.283Z" fill="white"/>
<path d="M42.981 111.112C43.4846 110.442 44.6254 110.393 45.152 111.059C45.5864 111.615 45.5323 112.364 45.5357 113.029C45.5265 113.758 45.6245 114.596 45.1105 115.193C44.5505 115.816 43.6494 115.913 42.86 115.915V115.212C43.3935 115.172 43.9812 115.191 44.4341 114.857C44.7545 114.622 44.7925 114.198 44.842 113.837C44.2417 113.832 43.556 113.908 43.0709 113.477C42.4256 112.878 42.4648 111.779 42.981 111.112ZM43.4846 111.61C43.2691 111.979 43.2322 112.498 43.4673 112.867C43.8165 113.23 44.3707 113.082 44.819 113.113C44.8075 112.629 44.8824 112.117 44.6888 111.66C44.5032 111.169 43.7369 111.194 43.4846 111.61Z" fill="white"/>
<path d="M36.1799 115.316C36.3724 115.109 36.5648 114.901 36.7573 114.695C36.9635 114.894 37.1686 115.097 37.3715 115.301C37.1629 115.508 36.9555 115.717 36.7469 115.926C36.5579 115.722 36.3712 115.516 36.1799 115.316Z" fill="white"/>
<path d="M37.603 115.302C37.8035 115.099 38.004 114.899 38.2046 114.697C38.4074 114.9 38.6102 115.104 38.8107 115.31C38.609 115.508 38.4074 115.708 38.208 115.908C38.0052 115.705 37.8035 115.504 37.603 115.302Z" fill="white"/>
<path d="M105.569 60.4517C106.452 60.2085 107.545 60.4897 108.061 61.2836C109.49 63.1873 110.932 65.0818 112.399 66.9555C112.856 67.5132 112.674 68.3729 112.085 68.7577C109.757 70.3918 107.412 72.0051 105.09 73.6483C104.693 73.9548 104.139 73.8672 103.699 73.714C103.471 73.5527 103.362 73.2715 103.192 73.056C101.701 70.9034 100.254 68.7186 98.6727 66.6317C98.3604 66.241 98.4606 65.6303 98.8709 65.3503C100.719 63.9329 102.577 62.527 104.424 61.1085C104.772 60.8377 105.136 60.5657 105.569 60.4517Z" fill="white"/>
</svg>
