<svg width="51" height="51" viewBox="0 0 51 51" fill="none" xmlns="http://www.w3.org/2000/svg">
<path d="M25.2094 6.33972L41.5511 15.7746V34.6444L25.2094 44.0793L8.86767 34.6444V15.7746L25.2094 6.33972Z" fill="#0066CC"/>
<path d="M19.8821 5.3274L39.7641 10.6548L45.0915 30.5369L30.5368 45.0915L10.6548 39.7642L5.32739 19.8821L19.8821 5.3274Z" fill="#0066CC" fill-opacity="0.24"/>
<path d="M38.7139 17.7087C38.5594 17.3998 37.9061 17.1682 37.2112 17.0732C36.5164 16.9782 34.9959 17.2454 34.9187 17.2454C34.8415 17.2454 32.9528 17.7443 32.353 17.8215C31.7531 17.8987 28.7063 17.9581 28.5341 17.9581C28.3618 17.9581 27.2037 18.1482 26.7226 18.3442C26.7226 18.3442 26.7879 17.869 26.2772 17.5067C26.1287 17.3998 26.1049 17.3464 26.1405 17.3048C26.4553 17.3404 27.6669 17.477 27.8095 17.4117C27.9758 17.3345 27.5481 15.9744 27.3937 15.7903C27.2393 15.6062 27.4531 15.3746 27.4888 15.3389C27.5244 15.3033 27.5481 14.9054 27.5006 14.7866C27.4531 14.6737 27.4531 15.2023 27.4056 15.3092C27.3581 15.4161 27.1265 15.6062 27.2155 15.7131C27.3046 15.82 27.7857 16.9069 27.7144 17.091C27.661 17.2276 26.9186 17.1741 26.5622 17.1385C26.6691 17.0851 26.7582 17.0078 26.782 16.8831C26.883 16.4199 26.4078 15.9863 26.2178 15.8259C26.0277 15.6656 26.1287 15.4874 26.0455 15.333C25.9683 15.1904 25.4219 15.2498 25.3566 15.2617C25.2912 15.2558 24.7448 15.1904 24.6676 15.333C24.5845 15.4874 24.6795 15.6656 24.4954 15.8259C24.3053 15.9863 23.8302 16.4199 23.9312 16.8831C23.9609 17.0078 24.0499 17.0851 24.1509 17.1385C23.7946 17.1741 23.0522 17.2276 22.9987 17.091C22.9334 16.9069 23.4144 15.82 23.4976 15.7131C23.5867 15.6062 23.3551 15.4161 23.3075 15.3092C23.26 15.2023 23.26 14.6737 23.2125 14.7866C23.165 14.8994 23.1828 15.2974 23.2244 15.3389C23.26 15.3746 23.4738 15.6062 23.3194 15.7903C23.165 15.9744 22.7433 17.3345 22.9037 17.4117C23.0462 17.477 24.2578 17.3404 24.5726 17.3048C24.6082 17.3464 24.5845 17.3998 24.436 17.5067C23.9312 17.869 23.9906 18.3442 23.9906 18.3442C23.5095 18.1541 22.3513 17.9581 22.1791 17.9581C22.0069 17.9581 18.96 17.8987 18.3602 17.8215C17.7603 17.7443 15.8716 17.2454 15.7944 17.2454C15.7172 17.2454 14.1968 16.9782 13.5019 17.0732C12.807 17.1682 12.1537 17.3998 11.9993 17.7087C11.8449 18.0175 12.1715 18.4214 12.617 18.7124C13.0624 19.0034 15.8004 20.0606 16.6259 20.3338C17.4574 20.6011 19.2511 20.8149 20.2904 20.7555C21.3298 20.6961 23.5095 20.215 23.7411 20.2328C23.9727 20.2507 24.0856 20.1972 23.7589 20.4051C23.4323 20.6189 20.3439 21.4266 19.3639 21.6998C18.378 21.9671 16.0261 22.1809 15.3312 22.3175C14.6363 22.4541 13.1337 23.2618 12.902 23.4578C12.6704 23.6479 12.2844 24.2477 13.1515 24.711C14.0186 25.1743 16.9882 25.2099 17.796 25.2693C18.6037 25.3287 21.2466 25.1327 22.773 24.8239C24.2994 24.515 24.4716 24.1468 24.6795 23.9152C24.8933 23.6835 24.8517 23.0599 24.8517 23.0599C24.8517 23.0599 24.8993 22.7926 24.9289 23.3569C24.9586 23.927 24.8636 24.129 24.8042 24.5031C24.8042 24.5031 24.7923 24.5087 24.8042 24.681C24.8042 24.7107 25.1428 24.6635 25.1428 24.6635C25.1428 24.6635 25.0097 24.5625 24.9207 24.5031C24.8316 24.4437 24.8042 24.5031 24.8042 24.5031C25.0537 24.4259 24.8042 24.681 24.8042 24.681C24.7953 24.6928 25.7367 24.7229 25.9149 24.6338C25.8258 24.4853 25.7307 23.927 25.7604 23.3569C25.7901 22.7867 25.8376 23.0599 25.8376 23.0599C25.8376 23.0599 25.802 23.6895 26.0099 23.9152C26.2237 24.1468 26.3959 24.515 27.9164 24.8239C29.4428 25.1327 32.0798 25.3227 32.8934 25.2693C33.7012 25.2099 36.6708 25.1743 37.5379 24.711C38.405 24.2477 38.019 23.6479 37.7874 23.4578C37.5557 23.2678 36.0531 22.4541 35.3582 22.3175C34.6633 22.1809 32.3114 21.973 31.3255 21.6998C30.3396 21.4326 27.2571 20.6189 26.9305 20.4051C26.6038 20.1913 26.7167 20.2507 26.9483 20.2328C27.1799 20.215 29.3596 20.6961 30.399 20.7555C31.4383 20.8149 33.232 20.6011 34.0635 20.3338C34.895 20.0665 37.627 19.0034 38.0724 18.7124C38.5416 18.4214 38.8683 18.0175 38.7139 17.7087Z" fill="white"/>
<g clip-path="url(#clip0)">
<path d="M25.7793 24.7693C25.7749 24.8184 25.7687 24.8669 25.7606 24.9143H24.9463C24.9383 24.8669 24.932 24.8184 24.9276 24.7693H25.7793Z" fill="white"/>
<path d="M25.7292 25.0668C25.7166 25.117 25.7022 25.1655 25.6861 25.2118H25.021C25.0049 25.1655 24.9905 25.117 24.9779 25.0668H25.7292Z" fill="white"/>
<path d="M25.6268 25.3638C25.6046 25.4145 25.581 25.4629 25.5561 25.5088H25.1504C25.1256 25.4628 25.102 25.4144 25.0797 25.3638H25.6268Z" fill="white"/>
<path d="M25.4681 25.6611C25.4379 25.7102 25.4063 25.7579 25.3735 25.8062H25.3337C25.3007 25.758 25.2692 25.7096 25.2389 25.6611H25.4681Z" fill="white"/>
<path d="M25.4893 26.4801H25.2178L25.2276 26.466C25.2581 26.4229 25.2899 26.3787 25.3213 26.3351H25.3856C25.4172 26.3787 25.4488 26.4229 25.4795 26.466L25.4893 26.4801Z" fill="white"/>
<path d="M25.6688 26.7771H25.0385C25.0659 26.7249 25.0933 26.6763 25.12 26.6321H25.5874C25.614 26.6766 25.6414 26.7249 25.6688 26.7771Z" fill="white"/>
<path d="M25.8044 27.0746H24.9028C24.9225 27.0242 24.9433 26.9756 24.9639 26.9296H25.7432C25.7641 26.9756 25.7847 27.0239 25.8044 27.0746Z" fill="white"/>
<path d="M25.9019 27.3716H24.8053C24.8186 27.322 24.8329 27.2733 24.8483 27.2266H25.8588C25.8741 27.2733 25.8885 27.3218 25.9019 27.3716Z" fill="white"/>
<path d="M25.9637 27.669H24.743C24.7505 27.6198 24.7592 27.5714 24.7692 27.5239H25.9378C25.9477 27.5714 25.9564 27.6198 25.9637 27.669Z" fill="white"/>
<path d="M25.9921 27.9661H24.7151C24.717 27.9175 24.7201 27.8691 24.7246 27.821H25.9824C25.987 27.869 25.9902 27.9174 25.9921 27.9661Z" fill="white"/>
<path d="M25.9933 28.118C25.9925 28.1666 25.9903 28.215 25.9868 28.2631H24.7201C24.7165 28.215 24.7143 28.1666 24.7135 28.118H25.9933Z" fill="white"/>
<path d="M25.9715 28.4155C25.9653 28.4646 25.9576 28.5131 25.9486 28.5606H24.7583C24.7493 28.513 24.7417 28.4646 24.7354 28.4155H25.9715Z" fill="white"/>
<path d="M25.9132 28.7245L25.9032 28.7615C25.9002 28.7735 25.8969 28.7854 25.8935 28.7971C25.8879 28.8174 25.882 28.8377 25.876 28.8576H24.8307C24.8166 28.811 24.8032 28.7622 24.791 28.7125L25.9132 28.7245Z" fill="white"/>
<path d="M25.8253 29.01C25.8068 29.0604 25.7875 29.1087 25.7676 29.1551H24.9395C24.9197 29.1086 24.9004 29.0603 24.8818 29.01H25.8253Z" fill="white"/>
<path d="M25.6972 29.307L25.6864 29.3287C25.6641 29.3723 25.6417 29.4133 25.6198 29.4521H25.0873C25.0617 29.4071 25.0356 29.359 25.0099 29.307H25.6972Z" fill="white"/>
<path d="M25.5266 29.6044C25.5104 29.629 25.4942 29.6523 25.4795 29.6737C25.4619 29.6992 25.4437 29.7244 25.4256 29.7496H25.2816C25.2632 29.7246 25.2453 29.6988 25.2275 29.6737C25.2125 29.6523 25.1968 29.6295 25.1805 29.6044H25.5266Z" fill="white"/>
<path d="M25.433 30.4597H25.2739C25.2997 30.4198 25.3264 30.3806 25.3536 30.3412C25.3809 30.3807 25.4073 30.4202 25.433 30.4597Z" fill="white"/>
<path d="M25.6012 30.7567H25.1056C25.1291 30.7074 25.1544 30.6591 25.1815 30.6117H25.5257C25.5525 30.6592 25.5778 30.7074 25.6012 30.7567Z" fill="white"/>
<path d="M25.7143 31.0541H24.9927C25.0069 31.0038 25.0229 30.9553 25.0405 30.9091H25.6664C25.684 30.9553 25.7 31.0038 25.7143 31.0541Z" fill="white"/>
<path d="M25.7736 31.3512H24.9335C24.9393 31.3019 24.9469 31.2534 24.9563 31.2062H25.7506C25.76 31.2534 25.7677 31.3019 25.7736 31.3512Z" fill="white"/>
<path d="M24.8783 24.422C24.8926 24.6113 24.8306 24.7973 24.8697 24.9734C24.9091 25.1467 24.9621 25.3074 25.027 25.4498C25.0918 25.592 25.1638 25.7215 25.242 25.8362C25.32 25.9526 25.4015 26.0613 25.4848 26.1657C25.5705 26.2723 25.6517 26.3916 25.7276 26.5225C25.8044 26.654 25.8744 26.7995 25.9365 26.9569C25.9996 27.1172 26.0506 27.2937 26.0881 27.4813C26.1657 27.8636 26.1657 28.2878 26.0881 28.6701C26.0507 28.8573 25.9999 29.0335 25.937 29.1937C25.8749 29.3511 25.8048 29.4966 25.728 29.6281C25.6521 29.7591 25.5709 29.8784 25.4852 29.9849C25.4018 30.0893 25.3203 30.1979 25.2424 30.3144C25.1642 30.4291 25.0922 30.5586 25.0274 30.7008C24.9625 30.8431 24.9095 31.0038 24.8701 31.1771C24.8309 31.353 24.8037 31.5379 24.7892 31.7272L24.7955 31.5833C24.7983 31.5353 24.8029 31.4879 24.8065 31.4399C24.8101 31.392 24.8177 31.3456 24.8232 31.2981C24.8287 31.2507 24.838 31.205 24.8453 31.1585C24.8794 30.9735 24.9285 30.8001 24.991 30.6447C25.1162 30.3338 25.2795 30.0915 25.4435 29.8684C25.6034 29.6486 25.7519 29.3948 25.8643 29.0919C25.921 28.9431 25.967 28.7804 26.001 28.6081C26.0681 28.2644 26.0681 27.8859 26.001 27.5423C25.9669 27.3699 25.921 27.2072 25.8643 27.0582C25.7517 26.7554 25.6032 26.5015 25.4435 26.2816C25.2796 26.059 25.1163 25.8162 24.9911 25.5047C24.9286 25.3494 24.8795 25.176 24.8454 24.991C24.8381 24.9445 24.8292 24.898 24.8233 24.8514C24.8173 24.8049 24.8109 24.7574 24.8066 24.7096C24.8023 24.6618 24.8095 24.609 24.8066 24.561L24.8783 24.422Z" fill="white"/>
<path d="M25.9089 31.7311C25.8944 31.5417 25.8672 31.3568 25.828 31.1808C25.7886 31.0074 25.7355 30.8467 25.6706 30.7044C25.6058 30.5621 25.5337 30.4327 25.4555 30.3179C25.3776 30.2016 25.2961 30.0928 25.2127 29.9884C25.127 29.8819 25.0459 29.7626 24.9699 29.6316C24.8931 29.5001 24.8231 29.3547 24.7609 29.1972C24.698 29.0369 24.6471 28.8603 24.6098 28.6728C24.5322 28.2905 24.5322 27.8662 24.6098 27.4839C24.6472 27.2967 24.6981 27.1205 24.7609 26.9603C24.8231 26.8028 24.8931 26.6574 24.9699 26.5259C25.0458 26.3949 25.127 26.2756 25.2127 26.1691C25.2961 26.0647 25.3776 25.9561 25.4555 25.8396C25.5337 25.7249 25.6058 25.5955 25.6706 25.4533C25.7355 25.311 25.7887 25.1504 25.8281 24.977C25.8673 24.8008 25.8142 24.6117 25.8286 24.422L25.9026 24.5698C25.8998 24.6177 25.8952 24.6652 25.8916 24.7131C25.8879 24.7611 25.8804 24.8075 25.8749 24.8549C25.8694 24.9024 25.8601 24.948 25.8527 24.9946C25.8187 25.1796 25.7695 25.353 25.7071 25.5084C25.5818 25.8207 25.4184 26.0627 25.2545 26.2853C25.0945 26.5047 24.9458 26.7586 24.8333 27.0616C24.7766 27.2104 24.7305 27.3731 24.6965 27.5455C24.6295 27.8891 24.6295 28.2676 24.6965 28.6113C24.7306 28.7836 24.7765 28.9465 24.8332 29.0954C24.9458 29.3983 25.0944 29.6522 25.254 29.8721C25.4179 30.0947 25.5812 30.3375 25.7065 30.649C25.769 30.8043 25.8182 30.9777 25.8522 31.1626C25.8595 31.2092 25.8684 31.2557 25.8743 31.3023C25.8803 31.3488 25.8867 31.3964 25.891 31.4441C25.8953 31.4917 25.8991 31.5395 25.902 31.5874L25.9089 31.7311Z" fill="white"/>
</g>
<g clip-path="url(#clip1)">
<path d="M25.7793 31.4806C25.7749 31.5297 25.7687 31.5782 25.7606 31.6256H24.9463C24.9383 31.5782 24.932 31.5297 24.9276 31.4806H25.7793Z" fill="white"/>
<path d="M25.7292 31.778C25.7166 31.8282 25.7022 31.8767 25.6861 31.923H25.021C25.0049 31.8767 24.9905 31.8282 24.9779 31.778H25.7292Z" fill="white"/>
<path d="M25.6268 32.0751C25.6046 32.1258 25.581 32.1742 25.5561 32.2201H25.1504C25.1256 32.1741 25.102 32.1257 25.0797 32.0751H25.6268Z" fill="white"/>
<path d="M25.4681 32.3724C25.4379 32.4215 25.4063 32.4692 25.3735 32.5175H25.3337C25.3007 32.4693 25.2692 32.4209 25.2389 32.3724H25.4681Z" fill="white"/>
<path d="M25.4893 33.1913H25.2178L25.2276 33.1772C25.2581 33.1341 25.2899 33.0899 25.3213 33.0463H25.3856C25.4172 33.0899 25.4488 33.1341 25.4795 33.1772L25.4893 33.1913Z" fill="white"/>
<path d="M25.6688 33.4884H25.0385C25.0659 33.4362 25.0933 33.3876 25.12 33.3434H25.5874C25.614 33.3879 25.6414 33.4362 25.6688 33.4884Z" fill="white"/>
<path d="M25.8044 33.7858H24.9028C24.9225 33.7354 24.9433 33.6868 24.9639 33.6407H25.7432C25.7641 33.6868 25.7847 33.7351 25.8044 33.7858Z" fill="white"/>
<path d="M25.9019 34.083H24.8053C24.8186 34.0334 24.8329 33.9847 24.8483 33.938H25.8588C25.8741 33.9847 25.8885 34.0332 25.9019 34.083Z" fill="white"/>
<path d="M25.9637 34.3803H24.743C24.7505 34.3311 24.7592 34.2827 24.7692 34.2352H25.9378C25.9477 34.2827 25.9564 34.3311 25.9637 34.3803Z" fill="white"/>
<path d="M25.9921 34.6774H24.7151C24.717 34.6288 24.7201 34.5804 24.7246 34.5323H25.9824C25.987 34.5803 25.9902 34.6288 25.9921 34.6774Z" fill="white"/>
<path d="M25.9933 34.8293C25.9925 34.8779 25.9903 34.9263 25.9868 34.9744H24.7201C24.7165 34.9263 24.7143 34.8779 24.7135 34.8293H25.9933Z" fill="white"/>
<path d="M25.9715 35.1267C25.9653 35.1758 25.9576 35.2242 25.9486 35.2718H24.7583C24.7493 35.2242 24.7417 35.1758 24.7354 35.1267H25.9715Z" fill="white"/>
<path d="M25.9132 35.4358L25.9032 35.4729C25.9002 35.4848 25.8969 35.4967 25.8935 35.5084C25.8879 35.5287 25.882 35.549 25.876 35.5689H24.8307C24.8166 35.5223 24.8032 35.4735 24.791 35.4238L25.9132 35.4358Z" fill="white"/>
<path d="M25.8253 35.7212C25.8068 35.7716 25.7875 35.8199 25.7676 35.8662H24.9395C24.9197 35.8198 24.9004 35.7715 24.8818 35.7212H25.8253Z" fill="white"/>
<path d="M25.6972 36.0183L25.6864 36.04C25.6641 36.0836 25.6417 36.1246 25.6198 36.1634H25.0873C25.0617 36.1184 25.0356 36.0703 25.0099 36.0183H25.6972Z" fill="white"/>
<path d="M25.5266 36.3157C25.5104 36.3403 25.4942 36.3636 25.4795 36.385C25.4619 36.4105 25.4437 36.4358 25.4256 36.4609H25.2816C25.2632 36.4359 25.2453 36.4102 25.2275 36.385C25.2125 36.3636 25.1968 36.3408 25.1805 36.3157H25.5266Z" fill="white"/>
<path d="M25.433 37.171H25.2739C25.2997 37.1311 25.3264 37.0919 25.3536 37.0525C25.3809 37.092 25.4073 37.1315 25.433 37.171Z" fill="white"/>
<path d="M25.6012 37.4681H25.1056C25.1291 37.4187 25.1544 37.3704 25.1815 37.323H25.5257C25.5525 37.3705 25.5778 37.4187 25.6012 37.4681Z" fill="white"/>
<path d="M25.7143 37.7654H24.9927C25.0069 37.7151 25.0229 37.6666 25.0405 37.6204H25.6664C25.684 37.6666 25.7 37.7151 25.7143 37.7654Z" fill="white"/>
<path d="M25.7736 38.0625H24.9335C24.9393 38.0132 24.9469 37.9647 24.9563 37.9175H25.7506C25.76 37.9647 25.7677 38.0132 25.7736 38.0625Z" fill="white"/>
<path d="M24.7983 31.1371C24.8127 31.3264 24.8398 31.5113 24.8789 31.6874C24.9182 31.8607 24.9713 32.0214 25.0362 32.1638C25.1009 32.306 25.173 32.4355 25.2512 32.5502C25.3291 32.6666 25.4106 32.7753 25.494 32.8797C25.5796 32.9863 25.6608 33.1056 25.7367 33.2365C25.8136 33.368 25.8835 33.5135 25.9457 33.6709C26.0088 33.8312 26.0598 34.0077 26.0972 34.1953C26.1748 34.5776 26.1748 35.0018 26.0972 35.3841C26.0599 35.5713 26.009 35.7475 25.9462 35.9077C25.884 36.0651 25.814 36.2106 25.7371 36.3421C25.6612 36.4731 25.5801 36.5924 25.4944 36.6989C25.4109 36.8033 25.3294 36.9119 25.2516 37.0284C25.1734 37.1431 25.1013 37.2726 25.0366 37.4148C24.9717 37.5571 24.9186 37.7178 24.8793 37.8911C24.84 38.067 24.8128 38.2519 24.7983 38.4412L24.8047 38.2973C24.8075 38.2493 24.812 38.2019 24.8157 38.1539C24.8193 38.106 24.8268 38.0596 24.8323 38.0121C24.8378 37.9647 24.8471 37.919 24.8545 37.8725C24.8885 37.6875 24.9377 37.5141 25.0002 37.3587C25.1254 37.0478 25.2887 36.8055 25.4526 36.5824C25.6125 36.3626 25.7611 36.1088 25.8734 35.8059C25.9301 35.6571 25.9761 35.4944 26.0102 35.3221C26.0772 34.9784 26.0772 34.5999 26.0102 34.2563C25.9761 34.0839 25.9301 33.9212 25.8735 33.7722C25.7608 33.4694 25.6124 33.2155 25.4527 32.9956C25.2887 32.773 25.1254 32.5302 25.0002 32.2187C24.9378 32.0634 24.8886 31.89 24.8546 31.705C24.8472 31.6585 24.8384 31.612 24.8324 31.5654C24.8264 31.5189 24.82 31.4714 24.8157 31.4236C24.8114 31.3758 24.8076 31.3282 24.8047 31.2803L24.7983 31.1371Z" fill="white"/>
<path d="M25.9089 38.4423C25.8944 38.253 25.8672 38.068 25.828 37.892C25.7886 37.7187 25.7355 37.558 25.6706 37.4156C25.6058 37.2734 25.5337 37.1439 25.4555 37.0292C25.3776 36.9128 25.2961 36.8041 25.2127 36.6997C25.127 36.5931 25.0459 36.4738 24.9699 36.3429C24.8931 36.2114 24.8231 36.0659 24.7609 35.9085C24.698 35.7481 24.6471 35.5716 24.6098 35.3841C24.5322 35.0017 24.5322 34.5775 24.6098 34.1951C24.6472 34.008 24.6981 33.8317 24.7609 33.6716C24.8231 33.5141 24.8931 33.3686 24.9699 33.2372C25.0458 33.1062 25.127 32.9869 25.2127 32.8804C25.2961 32.7759 25.3776 32.6674 25.4555 32.5508C25.5337 32.4362 25.6058 32.3068 25.6706 32.1646C25.7355 32.0223 25.7887 31.8616 25.8281 31.6883C25.8673 31.512 25.8945 31.3267 25.9089 31.1371L25.9026 31.2811C25.8998 31.329 25.8952 31.3765 25.8916 31.4244C25.8879 31.4723 25.8804 31.5187 25.8749 31.5662C25.8694 31.6137 25.8601 31.6593 25.8527 31.7058C25.8187 31.8908 25.7695 32.0643 25.7071 32.2196C25.5818 32.5319 25.4184 32.7739 25.2545 32.9966C25.0945 33.2159 24.9458 33.4699 24.8333 33.7729C24.7766 33.9216 24.7305 34.0844 24.6965 34.2567C24.6295 34.6004 24.6295 34.9789 24.6965 35.3225C24.7306 35.4949 24.7765 35.6577 24.8332 35.8067C24.9458 36.1095 25.0944 36.3635 25.254 36.5833C25.4179 36.8059 25.5812 37.0487 25.7065 37.3602C25.769 37.5156 25.8182 37.6889 25.8522 37.8739C25.8595 37.9204 25.8684 37.967 25.8743 38.0135C25.8803 38.0601 25.8867 38.1077 25.891 38.1553C25.8953 38.2029 25.8991 38.2507 25.902 38.2987L25.9089 38.4423Z" fill="white"/>
</g>
<path d="M24.8112 38.2048H25.8956L25.9107 39.4224C25.9145 39.7329 25.6639 39.9866 25.3534 39.9866C25.0429 39.9866 24.7923 39.7329 24.7962 39.4224L24.8112 38.2048Z" fill="white"/>
<g clip-path="url(#clip2)">
<path d="M26.3879 22.1191C26.3651 22.1331 26.3471 22.1541 26.3366 22.1789C26.3261 22.2038 26.3235 22.2314 26.3292 22.2578L26.2548 22.3189C26.23 22.2996 26.201 22.2866 26.1703 22.2811L26.1049 22.1478C26.1323 22.1178 26.1497 22.0799 26.1549 22.0393C26.16 21.9988 26.1525 21.9576 26.1334 21.9216L26.305 21.7793C26.3329 21.805 26.3675 21.8219 26.4048 21.828C26.442 21.8341 26.4801 21.8292 26.5146 21.8138C26.5491 21.7984 26.5784 21.7732 26.599 21.7412C26.6196 21.7093 26.6305 21.672 26.6305 21.6338C26.6305 21.5957 26.6196 21.5584 26.599 21.5264C26.5784 21.4945 26.5491 21.4693 26.5146 21.4539C26.4801 21.4385 26.442 21.4335 26.4048 21.4396C26.3675 21.4457 26.3329 21.4627 26.305 21.4883L26.1335 21.3462C26.1526 21.3102 26.16 21.2691 26.1549 21.2285C26.1498 21.188 26.1323 21.1501 26.105 21.12L26.1704 20.9868C26.2011 20.9811 26.2301 20.9681 26.2548 20.9488L26.3292 21.0099C26.3231 21.0384 26.3266 21.0683 26.3394 21.0945C26.3521 21.1208 26.3732 21.1419 26.3993 21.1545C26.4254 21.1672 26.4549 21.1705 26.4831 21.1641C26.5113 21.1576 26.5365 21.1417 26.5547 21.1189C26.5729 21.0962 26.5829 21.0679 26.5832 21.0387C26.5835 21.0094 26.574 20.9809 26.5563 20.9578C26.5386 20.9347 26.5137 20.9183 26.4857 20.9113C26.4576 20.9042 26.428 20.907 26.4017 20.919L26.3215 20.8532C26.3304 20.8251 26.333 20.7954 26.3292 20.7663C26.3253 20.7371 26.315 20.7091 26.299 20.6845C26.2831 20.6599 26.2619 20.6391 26.237 20.6239C26.2121 20.6086 26.1841 20.5992 26.1551 20.5962L26.1372 20.4958C26.1471 20.4871 26.1556 20.4768 26.1624 20.4654C26.1766 20.4418 26.183 20.4143 26.1807 20.3868C26.1785 20.3593 26.1676 20.3332 26.1498 20.3123C26.1319 20.2915 26.108 20.2769 26.0814 20.2707C26.0548 20.2645 26.0269 20.267 26.0018 20.2778C25.9767 20.2886 25.9557 20.3073 25.9417 20.331C25.9278 20.3547 25.9216 20.3823 25.9242 20.4098C25.9267 20.4373 25.9379 20.4632 25.956 20.4839C25.9741 20.5046 25.9982 20.5189 26.0248 20.5248L26.0418 20.62C26.0176 20.6334 25.9966 20.6518 25.98 20.674C25.9634 20.6963 25.9517 20.7218 25.9456 20.749L25.8326 20.7486C25.8214 20.7218 25.8015 20.6995 25.7763 20.6854C25.751 20.6713 25.7218 20.6663 25.6933 20.671C25.6649 20.6758 25.6388 20.6901 25.6194 20.7116C25.5999 20.7332 25.5882 20.7607 25.5861 20.7898C25.584 20.8189 25.5917 20.8478 25.6079 20.872C25.624 20.8962 25.6478 20.9141 25.6752 20.923C25.7027 20.9318 25.7323 20.9311 25.7594 20.9209C25.7864 20.9106 25.8092 20.8915 25.8241 20.8666C25.8241 20.8662 25.8245 20.8657 25.8248 20.8653L25.9543 20.8658C25.97 20.9055 25.998 20.9389 26.0341 20.961C26.0391 20.964 26.0442 20.9668 26.0493 20.9694L26.0049 21.0611C25.9586 21.0505 25.9101 21.0572 25.8684 21.0801C25.8268 21.103 25.7947 21.1404 25.7784 21.1855L25.533 21.2487C25.5189 21.2124 25.4942 21.1812 25.4623 21.1592C25.4303 21.1372 25.3926 21.1255 25.3539 21.1255C25.3153 21.1255 25.2775 21.1372 25.2456 21.1592C25.2137 21.1812 25.189 21.2124 25.1748 21.2487L24.9294 21.1857C24.9131 21.1406 24.8811 21.1031 24.8394 21.0802C24.7977 21.0573 24.7492 21.0505 24.7029 21.0611L24.6579 20.9692C24.6631 20.9666 24.6681 20.9639 24.6731 20.9608C24.7092 20.9387 24.7373 20.9053 24.7529 20.8656L24.8825 20.8651C24.8825 20.8655 24.8829 20.866 24.8832 20.8664C24.8981 20.8914 24.921 20.9107 24.9482 20.921C24.9753 20.9313 25.0051 20.9321 25.0327 20.9232C25.0603 20.9143 25.0841 20.8963 25.1004 20.872C25.1166 20.8477 25.1243 20.8186 25.1222 20.7894C25.1201 20.7602 25.1083 20.7325 25.0887 20.7109C25.0692 20.6893 25.043 20.6749 25.0144 20.6702C24.9858 20.6655 24.9564 20.6706 24.9311 20.6848C24.9057 20.699 24.8858 20.7214 24.8746 20.7484L24.7617 20.7488C24.7556 20.7217 24.7439 20.6961 24.7274 20.6739C24.7109 20.6516 24.6899 20.6332 24.6658 20.6197L24.6827 20.5245C24.7109 20.5182 24.7363 20.5025 24.7546 20.4798C24.7728 20.4572 24.783 20.4289 24.7835 20.3997C24.784 20.3705 24.7747 20.3419 24.7571 20.3187C24.7396 20.2954 24.7148 20.2789 24.6867 20.2717C24.6587 20.2644 24.6291 20.267 24.6027 20.2789C24.5763 20.2908 24.5546 20.3114 24.5412 20.3373C24.5277 20.3632 24.5233 20.3929 24.5287 20.4216C24.534 20.4504 24.5488 20.4765 24.5706 20.4957L24.5527 20.5962C24.5237 20.5992 24.4957 20.6086 24.4708 20.6239C24.4459 20.6391 24.4247 20.6599 24.4088 20.6845C24.3928 20.7091 24.3825 20.7371 24.3786 20.7663C24.3748 20.7954 24.3774 20.8251 24.3863 20.8532L24.3061 20.919C24.2798 20.9069 24.2501 20.9041 24.222 20.9112C24.1939 20.9182 24.1689 20.9346 24.1512 20.9578C24.1335 20.981 24.124 21.0095 24.1242 21.0388C24.1245 21.0681 24.1346 21.0964 24.1528 21.1192C24.171 21.142 24.1962 21.1579 24.2245 21.1644C24.2527 21.1708 24.2823 21.1675 24.3085 21.1548C24.3346 21.1422 24.3557 21.121 24.3685 21.0947C24.3812 21.0684 24.3848 21.0385 24.3786 21.0099L24.453 20.9488C24.4778 20.968 24.5068 20.981 24.5376 20.9865L24.6029 21.1198C24.5756 21.1498 24.5582 21.1878 24.553 21.2283C24.5479 21.2688 24.5554 21.3099 24.5744 21.346L24.4029 21.4883C24.375 21.4627 24.3404 21.4457 24.3032 21.4396C24.266 21.4335 24.2278 21.4385 24.1933 21.4539C24.1588 21.4693 24.1295 21.4945 24.1089 21.5264C24.0883 21.5584 24.0774 21.5957 24.0774 21.6338C24.0774 21.672 24.0883 21.7093 24.1089 21.7412C24.1295 21.7732 24.1588 21.7984 24.1933 21.8138C24.2278 21.8292 24.266 21.8341 24.3032 21.828C24.3404 21.8219 24.375 21.805 24.4029 21.7793L24.5744 21.9214C24.5554 21.9574 24.5479 21.9985 24.553 22.0391C24.5582 22.0796 24.5756 22.1175 24.6029 22.1476L24.5376 22.2808C24.5068 22.2864 24.4778 22.2993 24.453 22.3186L24.3786 22.2575C24.3847 22.2289 24.3811 22.1991 24.3684 22.1729C24.3557 22.1466 24.3346 22.1255 24.3085 22.1129C24.2824 22.1003 24.2529 22.0969 24.2247 22.1034C24.1966 22.1099 24.1713 22.1257 24.1532 22.1485C24.135 22.1712 24.125 22.1995 24.1247 22.2287C24.1244 22.2579 24.1339 22.2864 24.1516 22.3095C24.1693 22.3326 24.1941 22.349 24.2222 22.3561C24.2502 22.3631 24.2798 22.3604 24.3061 22.3483L24.3863 22.4142C24.3774 22.4422 24.3747 22.4719 24.3786 22.5011C24.3825 22.5303 24.3928 22.5582 24.4087 22.5828C24.4247 22.6075 24.4459 22.6282 24.4708 22.6435C24.4957 22.6587 24.5237 22.6681 24.5527 22.671L24.5705 22.7714C24.5501 22.7894 24.5358 22.8135 24.5297 22.8403C24.5236 22.867 24.526 22.895 24.5366 22.9202C24.5472 22.9455 24.5654 22.9667 24.5886 22.9809C24.6119 22.995 24.6389 23.0014 24.666 22.9991C24.693 22.9967 24.7186 22.9858 24.7391 22.9679C24.7596 22.9499 24.774 22.9259 24.7802 22.8992C24.7864 22.8725 24.7841 22.8445 24.7736 22.8192C24.7631 22.7939 24.745 22.7726 24.7218 22.7584C24.7097 22.7511 24.6964 22.7459 24.6826 22.743L24.6657 22.6478C24.6898 22.6344 24.7109 22.616 24.7275 22.5938C24.7441 22.5715 24.7558 22.546 24.7619 22.5188L24.8749 22.5192C24.8861 22.5461 24.9059 22.5684 24.9312 22.5825C24.9565 22.5966 24.9857 22.6017 25.0142 22.597C25.0426 22.5922 25.0687 22.5779 25.0882 22.5564C25.1077 22.5348 25.1194 22.5073 25.1215 22.4782C25.1236 22.4491 25.116 22.4201 25.0998 22.3959C25.0836 22.3717 25.0599 22.3538 25.0324 22.3449C25.0049 22.336 24.9753 22.3367 24.9482 22.347C24.9212 22.3572 24.8984 22.3763 24.8834 22.4013C24.8834 22.4017 24.883 22.4021 24.8827 22.4025L24.7532 22.4021C24.7375 22.3624 24.7095 22.329 24.6734 22.3069C24.6684 22.3038 24.6633 22.301 24.6582 22.2985L24.7032 22.2065C24.7431 22.2157 24.7848 22.212 24.8225 22.1959C24.8602 22.1798 24.8919 22.1521 24.9132 22.1167C24.9198 22.1058 24.9253 22.0942 24.9296 22.0822L25.175 22.019C25.1892 22.0554 25.2138 22.0866 25.2458 22.1086C25.2777 22.1305 25.3155 22.1423 25.3541 22.1423C25.3928 22.1423 25.4305 22.1305 25.4624 22.1086C25.4944 22.0866 25.5191 22.0554 25.5332 22.019L25.7786 22.0822C25.795 22.1272 25.827 22.1647 25.8687 22.1876C25.9104 22.2105 25.9589 22.2172 26.0051 22.2065L26.0501 22.2985C26.045 22.301 26.0399 22.3038 26.0349 22.3069C25.9988 22.3289 25.9708 22.3624 25.9551 22.4021L25.8256 22.4025C25.8256 22.4021 25.8252 22.4017 25.8249 22.4013C25.81 22.3762 25.7871 22.357 25.76 22.3467C25.7329 22.3364 25.7031 22.3356 25.6755 22.3444C25.6479 22.3533 25.6241 22.3713 25.6079 22.3956C25.5916 22.4198 25.5839 22.4489 25.586 22.4781C25.5881 22.5073 25.5999 22.535 25.6194 22.5566C25.639 22.5782 25.6651 22.5926 25.6937 22.5973C25.7223 22.6021 25.7516 22.5969 25.777 22.5828C25.8023 22.5686 25.8222 22.5462 25.8334 22.5192L25.9464 22.5188C25.9524 22.5459 25.9641 22.5715 25.9806 22.5937C25.9971 22.6159 26.018 22.6344 26.0421 22.6478L26.0252 22.743C25.997 22.7493 25.9718 22.7651 25.9536 22.7877C25.9353 22.8103 25.9252 22.8385 25.9248 22.8677C25.9243 22.8969 25.9337 22.9253 25.9512 22.9485C25.9687 22.9717 25.9935 22.9882 26.0215 22.9954C26.0494 23.0025 26.079 23 26.1053 22.9881C26.1317 22.9762 26.1533 22.9557 26.1667 22.9298C26.1801 22.904 26.1844 22.8743 26.1791 22.8457C26.1738 22.817 26.1591 22.791 26.1373 22.7718L26.1552 22.6714C26.1842 22.6685 26.2121 22.6591 26.2371 22.6438C26.262 22.6286 26.2832 22.6079 26.2991 22.5832C26.3151 22.5586 26.3254 22.5306 26.3292 22.5015C26.3331 22.4723 26.3305 22.4426 26.3215 22.4146L26.4017 22.3487C26.4219 22.3579 26.4441 22.3617 26.4662 22.3598C26.4883 22.3578 26.5095 22.3501 26.5277 22.3373C26.546 22.3246 26.5607 22.3074 26.5704 22.2872C26.5801 22.2671 26.5845 22.2447 26.5832 22.2224C26.5818 22.2 26.5748 22.1784 26.5627 22.1595C26.5507 22.1407 26.534 22.1254 26.5144 22.115C26.4948 22.1046 26.4728 22.0995 26.4507 22.1003C26.4285 22.101 26.4069 22.1075 26.388 22.1191L26.3879 22.1191ZM25.8602 21.8457C25.818 21.8715 25.7872 21.9125 25.7739 21.9605L25.5416 21.9007C25.5318 21.8578 25.5078 21.8196 25.4737 21.7922C25.4396 21.7648 25.3974 21.7499 25.3538 21.7499C25.3103 21.7499 25.268 21.7648 25.2339 21.7922C25.1998 21.8196 25.1758 21.8578 25.166 21.9007L24.9337 21.9605C24.9259 21.9324 24.9119 21.9064 24.8929 21.8844C24.8739 21.8625 24.8503 21.845 24.8238 21.8334C24.7973 21.8218 24.7686 21.8163 24.7397 21.8172C24.7109 21.8182 24.6826 21.8256 24.6569 21.839L24.462 21.6774C24.4686 21.6487 24.4686 21.6189 24.462 21.5902L24.6569 21.4287C24.6826 21.4421 24.7109 21.4495 24.7398 21.4505C24.7686 21.4515 24.7974 21.446 24.8239 21.4343C24.8504 21.4227 24.874 21.4053 24.893 21.3833C24.912 21.3613 24.926 21.3353 24.9339 21.3072L25.1661 21.367C25.176 21.4099 25.1999 21.4481 25.234 21.4755C25.2681 21.5029 25.3104 21.5178 25.3539 21.5178C25.3975 21.5178 25.4397 21.5029 25.4739 21.4755C25.508 21.4481 25.5319 21.4099 25.5418 21.367L25.774 21.3072C25.7818 21.3354 25.7957 21.3614 25.8147 21.3834C25.8337 21.4054 25.8574 21.4229 25.8839 21.4346C25.9104 21.4462 25.9392 21.4517 25.9681 21.4507C25.997 21.4497 26.0253 21.4421 26.051 21.4287L26.2459 21.5902C26.2393 21.6189 26.2393 21.6487 26.2459 21.6774L26.051 21.8389C26.0213 21.8234 25.9881 21.8159 25.9547 21.817C25.9213 21.8182 25.8888 21.8281 25.8602 21.8457H25.8602Z" fill="#0066CC"/>
</g>
<g clip-path="url(#clip3)">
<path d="M26.3879 19.387C26.3651 19.4011 26.3471 19.422 26.3366 19.4469C26.3261 19.4717 26.3235 19.4993 26.3292 19.5257L26.2548 19.5868C26.23 19.5675 26.201 19.5546 26.1703 19.549L26.1049 19.4158C26.1323 19.3857 26.1497 19.3478 26.1549 19.3073C26.16 19.2667 26.1525 19.2256 26.1334 19.1896L26.305 19.0473C26.3329 19.0729 26.3675 19.0899 26.4048 19.096C26.442 19.1021 26.4801 19.0971 26.5146 19.0817C26.5491 19.0663 26.5784 19.0411 26.599 19.0092C26.6196 18.9772 26.6305 18.9399 26.6305 18.9018C26.6305 18.8636 26.6196 18.8263 26.599 18.7944C26.5784 18.7624 26.5491 18.7372 26.5146 18.7218C26.4801 18.7064 26.442 18.7015 26.4048 18.7076C26.3675 18.7137 26.3329 18.7306 26.305 18.7563L26.1335 18.6142C26.1526 18.5781 26.16 18.537 26.1549 18.4965C26.1498 18.456 26.1323 18.418 26.105 18.388L26.1704 18.2547C26.2011 18.2491 26.2301 18.2361 26.2548 18.2167L26.3292 18.2778C26.3231 18.3064 26.3266 18.3362 26.3394 18.3625C26.3521 18.3887 26.3732 18.4099 26.3993 18.4225C26.4254 18.4351 26.4549 18.4385 26.4831 18.432C26.5113 18.4255 26.5365 18.4096 26.5547 18.3869C26.5729 18.3641 26.5829 18.3358 26.5832 18.3066C26.5835 18.2774 26.574 18.2489 26.5563 18.2258C26.5386 18.2026 26.5137 18.1862 26.4857 18.1792C26.4576 18.1722 26.428 18.1749 26.4017 18.187L26.3215 18.1211C26.3304 18.0931 26.333 18.0634 26.3292 18.0342C26.3253 18.005 26.315 17.9771 26.299 17.9524C26.2831 17.9278 26.2619 17.9071 26.237 17.8918C26.2121 17.8765 26.1841 17.8671 26.1551 17.8642L26.1372 17.7638C26.1471 17.755 26.1556 17.7447 26.1624 17.7333C26.1766 17.7098 26.183 17.6822 26.1807 17.6547C26.1785 17.6272 26.1676 17.6012 26.1498 17.5803C26.1319 17.5594 26.108 17.5448 26.0814 17.5386C26.0548 17.5324 26.0269 17.5349 26.0018 17.5457C25.9767 17.5566 25.9557 17.5752 25.9417 17.5989C25.9278 17.6227 25.9216 17.6503 25.9242 17.6777C25.9267 17.7052 25.9379 17.7312 25.956 17.7518C25.9741 17.7725 25.9982 17.7868 26.0248 17.7927L26.0418 17.8879C26.0176 17.9013 25.9966 17.9197 25.98 17.942C25.9634 17.9642 25.9517 17.9898 25.9456 18.017L25.8326 18.0166C25.8214 17.9897 25.8015 17.9674 25.7763 17.9534C25.751 17.9393 25.7218 17.9342 25.6933 17.939C25.6649 17.9437 25.6388 17.958 25.6194 17.9796C25.5999 18.0011 25.5882 18.0286 25.5861 18.0577C25.584 18.0868 25.5917 18.1158 25.6079 18.1399C25.624 18.1641 25.6478 18.1821 25.6752 18.1909C25.7027 18.1998 25.7323 18.199 25.7594 18.1888C25.7864 18.1786 25.8092 18.1594 25.8241 18.1345C25.8241 18.1341 25.8245 18.1337 25.8248 18.1332L25.9543 18.1337C25.97 18.1734 25.998 18.2068 26.0341 18.2289C26.0391 18.232 26.0442 18.2347 26.0493 18.2373L26.0049 18.3291C25.9586 18.3184 25.9101 18.3252 25.8684 18.3481C25.8268 18.3709 25.7947 18.4084 25.7784 18.4534L25.533 18.5167C25.5189 18.4803 25.4942 18.4491 25.4623 18.4272C25.4303 18.4052 25.3926 18.3934 25.3539 18.3934C25.3153 18.3934 25.2775 18.4052 25.2456 18.4272C25.2137 18.4491 25.189 18.4803 25.1748 18.5167L24.9294 18.4536C24.9131 18.4085 24.8811 18.371 24.8394 18.3481C24.7977 18.3252 24.7492 18.3184 24.7029 18.3291L24.6579 18.2371C24.6631 18.2345 24.6681 18.2319 24.6731 18.2287C24.7092 18.2066 24.7373 18.1732 24.7529 18.1335L24.8825 18.133C24.8825 18.1335 24.8829 18.1339 24.8832 18.1343C24.8981 18.1594 24.921 18.1786 24.9482 18.1889C24.9753 18.1993 25.0051 18.2 25.0327 18.1911C25.0603 18.1822 25.0841 18.1642 25.1004 18.1399C25.1166 18.1157 25.1243 18.0866 25.1222 18.0573C25.1201 18.0281 25.1083 18.0005 25.0887 17.9788C25.0692 17.9572 25.043 17.9429 25.0144 17.9381C24.9858 17.9334 24.9564 17.9386 24.9311 17.9528C24.9057 17.9669 24.8858 17.9894 24.8746 18.0164L24.7617 18.0168C24.7556 17.9896 24.7439 17.9641 24.7274 17.9418C24.7109 17.9196 24.6899 17.9011 24.6658 17.8877L24.6827 17.7925C24.7109 17.7862 24.7363 17.7704 24.7546 17.7478C24.7728 17.7251 24.783 17.6969 24.7835 17.6676C24.784 17.6384 24.7747 17.6099 24.7571 17.5866C24.7396 17.5634 24.7148 17.5468 24.6867 17.5396C24.6587 17.5324 24.6291 17.5349 24.6027 17.5468C24.5763 17.5587 24.5546 17.5793 24.5412 17.6052C24.5277 17.6311 24.5233 17.6608 24.5287 17.6896C24.534 17.7183 24.5488 17.7444 24.5706 17.7636L24.5527 17.8642C24.5237 17.8671 24.4957 17.8765 24.4708 17.8918C24.4459 17.9071 24.4247 17.9278 24.4088 17.9524C24.3928 17.9771 24.3825 18.005 24.3786 18.0342C24.3748 18.0634 24.3774 18.0931 24.3863 18.1211L24.3061 18.187C24.2798 18.1749 24.2501 18.1721 24.222 18.1791C24.1939 18.1862 24.1689 18.2026 24.1512 18.2257C24.1335 18.2489 24.124 18.2774 24.1242 18.3067C24.1245 18.336 24.1346 18.3643 24.1528 18.3871C24.171 18.4099 24.1962 18.4259 24.2245 18.4323C24.2527 18.4388 24.2823 18.4354 24.3085 18.4228C24.3346 18.4101 24.3557 18.3889 24.3685 18.3626C24.3812 18.3363 24.3848 18.3064 24.3786 18.2778L24.453 18.2167C24.4778 18.236 24.5068 18.2489 24.5376 18.2544L24.6029 18.3877C24.5756 18.4178 24.5582 18.4557 24.553 18.4962C24.5479 18.5367 24.5554 18.5779 24.5744 18.6139L24.4029 18.7563C24.375 18.7306 24.3404 18.7137 24.3032 18.7076C24.266 18.7015 24.2278 18.7064 24.1933 18.7218C24.1588 18.7372 24.1295 18.7624 24.1089 18.7944C24.0883 18.8263 24.0774 18.8636 24.0774 18.9018C24.0774 18.9399 24.0883 18.9772 24.1089 19.0092C24.1295 19.0411 24.1588 19.0663 24.1933 19.0817C24.2278 19.0971 24.266 19.1021 24.3032 19.096C24.3404 19.0899 24.375 19.0729 24.4029 19.0473L24.5744 19.1893C24.5554 19.2254 24.5479 19.2665 24.553 19.307C24.5582 19.3475 24.5756 19.3854 24.6029 19.4155L24.5376 19.5488C24.5068 19.5543 24.4778 19.5673 24.453 19.5865L24.3786 19.5254C24.3847 19.4969 24.3811 19.467 24.3684 19.4408C24.3557 19.4146 24.3346 19.3934 24.3085 19.3808C24.2824 19.3682 24.2529 19.3649 24.2247 19.3713C24.1966 19.3778 24.1713 19.3937 24.1532 19.4164C24.135 19.4392 24.125 19.4674 24.1247 19.4967C24.1244 19.5259 24.1339 19.5543 24.1516 19.5775C24.1693 19.6006 24.1941 19.617 24.2222 19.624C24.2502 19.631 24.2798 19.6283 24.3061 19.6162L24.3863 19.6821C24.3774 19.7101 24.3747 19.7398 24.3786 19.769C24.3825 19.7982 24.3928 19.8261 24.4087 19.8508C24.4247 19.8754 24.4459 19.8961 24.4708 19.9114C24.4957 19.9267 24.5237 19.9361 24.5527 19.939L24.5705 20.0394C24.5501 20.0574 24.5358 20.0815 24.5297 20.1082C24.5236 20.1349 24.526 20.1629 24.5366 20.1882C24.5472 20.2134 24.5654 20.2347 24.5886 20.2488C24.6119 20.263 24.6389 20.2693 24.666 20.267C24.693 20.2647 24.7186 20.2537 24.7391 20.2358C24.7596 20.2179 24.774 20.1938 24.7802 20.1671C24.7864 20.1404 24.7841 20.1124 24.7736 20.0871C24.7631 20.0618 24.745 20.0405 24.7218 20.0263C24.7097 20.019 24.6964 20.0138 24.6826 20.0109L24.6657 19.9157C24.6898 19.9024 24.7109 19.8839 24.7275 19.8617C24.7441 19.8395 24.7558 19.8139 24.7619 19.7868L24.8749 19.7872C24.8861 19.8141 24.9059 19.8363 24.9312 19.8504C24.9565 19.8645 24.9857 19.8696 25.0142 19.8649C25.0426 19.8602 25.0687 19.8459 25.0882 19.8243C25.1077 19.8028 25.1194 19.7752 25.1215 19.7461C25.1236 19.717 25.116 19.6881 25.0998 19.6639C25.0836 19.6397 25.0599 19.6217 25.0324 19.6128C25.0049 19.604 24.9753 19.6047 24.9482 19.6149C24.9212 19.6252 24.8984 19.6443 24.8834 19.6692C24.8834 19.6696 24.883 19.6701 24.8827 19.6704L24.7532 19.67C24.7375 19.6303 24.7095 19.5969 24.6734 19.5748C24.6684 19.5718 24.6633 19.569 24.6582 19.5664L24.7032 19.4745C24.7431 19.4837 24.7848 19.48 24.8225 19.4638C24.8602 19.4477 24.8919 19.42 24.9132 19.3847C24.9198 19.3737 24.9253 19.3622 24.9296 19.3501L25.175 19.287C25.1892 19.3233 25.2138 19.3545 25.2458 19.3765C25.2777 19.3985 25.3155 19.4102 25.3541 19.4102C25.3928 19.4102 25.4305 19.3985 25.4624 19.3765C25.4944 19.3545 25.5191 19.3233 25.5332 19.287L25.7786 19.3501C25.795 19.3952 25.827 19.4326 25.8687 19.4555C25.9104 19.4784 25.9589 19.4851 26.0051 19.4745L26.0501 19.5664C26.045 19.569 26.0399 19.5718 26.0349 19.5748C25.9988 19.5969 25.9708 19.6303 25.9551 19.67L25.8256 19.6704C25.8256 19.6701 25.8252 19.6696 25.8249 19.6692C25.81 19.6442 25.7871 19.6249 25.76 19.6146C25.7329 19.6043 25.7031 19.6035 25.6755 19.6124C25.6479 19.6213 25.6241 19.6393 25.6079 19.6635C25.5916 19.6878 25.5839 19.7169 25.586 19.7461C25.5881 19.7753 25.5999 19.8029 25.6194 19.8245C25.639 19.8462 25.6651 19.8605 25.6937 19.8653C25.7223 19.87 25.7516 19.8649 25.777 19.8507C25.8023 19.8365 25.8222 19.8142 25.8334 19.7872L25.9464 19.7868C25.9524 19.8139 25.9641 19.8394 25.9806 19.8616C25.9971 19.8839 26.018 19.9023 26.0421 19.9157L26.0252 20.0109C25.997 20.0173 25.9718 20.033 25.9536 20.0557C25.9353 20.0783 25.9252 20.1065 25.9248 20.1356C25.9243 20.1648 25.9337 20.1933 25.9512 20.2164C25.9687 20.2396 25.9935 20.2561 26.0215 20.2633C26.0494 20.2705 26.079 20.2679 26.1053 20.256C26.1317 20.2441 26.1533 20.2236 26.1667 20.1978C26.1801 20.1719 26.1844 20.1423 26.1791 20.1136C26.1738 20.0849 26.1591 20.0589 26.1373 20.0398L26.1552 19.9394C26.1842 19.9365 26.2121 19.927 26.2371 19.9118C26.262 19.8965 26.2832 19.8758 26.2991 19.8512C26.3151 19.8265 26.3254 19.7986 26.3292 19.7694C26.3331 19.7402 26.3305 19.7105 26.3215 19.6825L26.4017 19.6166C26.4219 19.6259 26.4441 19.6297 26.4662 19.6277C26.4883 19.6257 26.5095 19.618 26.5277 19.6053C26.546 19.5926 26.5607 19.5753 26.5704 19.5552C26.5801 19.535 26.5845 19.5127 26.5832 19.4903C26.5818 19.4679 26.5748 19.4463 26.5627 19.4275C26.5507 19.4087 26.534 19.3933 26.5144 19.3829C26.4948 19.3726 26.4728 19.3675 26.4507 19.3682C26.4285 19.3689 26.4069 19.3754 26.388 19.3871L26.3879 19.387ZM25.8602 19.1137C25.818 19.1394 25.7872 19.1805 25.7739 19.2284L25.5416 19.1687C25.5318 19.1258 25.5078 19.0875 25.4737 19.0601C25.4396 19.0328 25.3974 19.0179 25.3538 19.0179C25.3103 19.0179 25.268 19.0328 25.2339 19.0601C25.1998 19.0875 25.1758 19.1258 25.166 19.1687L24.9337 19.2284C24.9259 19.2003 24.9119 19.1743 24.8929 19.1524C24.8739 19.1304 24.8503 19.113 24.8238 19.1014C24.7973 19.0897 24.7686 19.0842 24.7397 19.0852C24.7109 19.0861 24.6826 19.0936 24.6569 19.1069L24.462 18.9453C24.4686 18.9167 24.4686 18.8868 24.462 18.8581L24.6569 18.6966C24.6826 18.71 24.7109 18.7175 24.7398 18.7185C24.7686 18.7194 24.7974 18.7139 24.8239 18.7023C24.8504 18.6907 24.874 18.6732 24.893 18.6512C24.912 18.6292 24.926 18.6033 24.9339 18.5751L25.1661 18.6349C25.176 18.6778 25.1999 18.7161 25.234 18.7435C25.2681 18.7708 25.3104 18.7857 25.3539 18.7857C25.3975 18.7857 25.4397 18.7708 25.4739 18.7435C25.508 18.7161 25.5319 18.6778 25.5418 18.6349L25.774 18.5751C25.7818 18.6033 25.7957 18.6293 25.8147 18.6514C25.8337 18.6734 25.8574 18.6909 25.8839 18.7025C25.9104 18.7141 25.9392 18.7196 25.9681 18.7186C25.997 18.7176 26.0253 18.7101 26.051 18.6966L26.2459 18.8581C26.2393 18.8868 26.2393 18.9167 26.2459 18.9453L26.051 19.1069C26.0213 19.0913 25.9881 19.0838 25.9547 19.085C25.9213 19.0862 25.8888 19.096 25.8602 19.1137H25.8602Z" fill="#0066CC"/>
</g>
<path d="M25.4095 39.3679C25.3981 39.3914 25.3652 39.3929 25.3516 39.3706C25.242 39.1897 25.1746 38.9863 25.1546 38.7758L25.1455 38.68L25.6206 38.68L25.5579 39.0091C25.547 39.0666 25.5285 39.1224 25.503 39.175L25.4095 39.3679Z" fill="#0066CC"/>
<defs>
<clipPath id="clip0">
<rect width="1.60359" height="7.30523" fill="white" transform="translate(24.5516 24.604)"/>
</clipPath>
<clipPath id="clip1">
<rect width="1.60359" height="7.30523" fill="white" transform="translate(24.5516 30.8995)"/>
</clipPath>
<clipPath id="clip2">
<rect width="2.55386" height="2.73204" fill="white" transform="translate(24.0764 20.2684)"/>
</clipPath>
<clipPath id="clip3">
<rect width="2.55386" height="2.73204" fill="white" transform="translate(24.0764 17.5364)"/>
</clipPath>
</defs>
</svg>
