<svg width="99" height="99" viewBox="0 0 99 99" fill="none" xmlns="http://www.w3.org/2000/svg"> <path d="M49.2093 12.3752L81.1088 30.7924V67.6267L49.2093 86.0438L17.3099 67.6267V30.7924L49.2093 12.3752Z" fill="white" /> <path d="M38.8103 10.3992L77.6205 20.7983L88.0197 59.6086L59.6086 88.0197L20.7984 77.6205L10.3992 38.8103L38.8103 10.3992Z" fill="white" fill-opacity="0.24" /> <path d="M75.5704 34.5677C75.269 33.9648 73.9937 33.5127 72.6372 33.3272C71.2808 33.1417 68.3129 33.6634 68.1621 33.6634C68.0114 33.6634 64.3247 34.6372 63.1538 34.7879C61.9828 34.9387 56.0354 35.0546 55.6991 35.0546C55.3629 35.0546 53.1022 35.4256 52.1631 35.8082C52.1631 35.8082 52.2907 34.8807 51.2936 34.1735C51.0038 33.9648 50.9574 33.8605 51.027 33.7793C51.6414 33.8489 54.0065 34.1155 54.2847 33.988C54.6094 33.8373 53.7746 31.1824 53.4732 30.823C53.1718 30.4636 53.5891 30.0114 53.6587 29.9419C53.7282 29.8723 53.7746 29.0955 53.6819 28.8637C53.5891 28.6434 53.5891 29.6752 53.4964 29.8839C53.4036 30.0926 52.9515 30.4636 53.1254 30.6723C53.2993 30.8809 54.2384 33.0025 54.0992 33.3619C53.9949 33.6286 52.5457 33.5242 51.8501 33.4547C52.0588 33.3503 52.2327 33.1996 52.2791 32.9562C52.4761 32.0519 51.5487 31.2056 51.1777 30.8925C50.8067 30.5795 51.0038 30.2317 50.8415 29.9303C50.6908 29.652 49.6241 29.768 49.4966 29.7911C49.3691 29.7796 48.3025 29.652 48.1518 29.9303C47.9895 30.2317 48.175 30.5795 47.8156 30.8925C47.4446 31.2056 46.5171 32.0519 46.7142 32.9562C46.7722 33.1996 46.9461 33.3503 47.1431 33.4547C46.4475 33.5242 44.9983 33.6286 44.894 33.3619C44.7665 33.0025 45.7055 30.8809 45.8679 30.6723C46.0418 30.4636 45.5896 30.0926 45.4969 29.8839C45.4041 29.6752 45.4041 28.6434 45.3114 28.8637C45.2186 29.0839 45.2534 29.8607 45.3346 29.9419C45.4041 30.0114 45.8215 30.4636 45.5201 30.823C45.2186 31.1824 44.3955 33.8373 44.7085 33.988C44.9868 34.1155 47.3518 33.8489 47.9663 33.7793C48.0358 33.8605 47.9895 33.9648 47.6996 34.1735C46.7142 34.8807 46.8301 35.8082 46.8301 35.8082C45.891 35.4372 43.6303 35.0546 43.2941 35.0546C42.9579 35.0546 37.0104 34.9387 35.8395 34.7879C34.6685 34.6372 30.9818 33.6634 30.8311 33.6634C30.6804 33.6634 27.7125 33.1417 26.356 33.3272C24.9996 33.5127 23.7243 33.9648 23.4229 34.5677C23.1214 35.1705 23.7591 35.9589 24.6286 36.527C25.4981 37.095 30.8427 39.1587 32.4542 39.692C34.0773 40.2137 37.5785 40.6311 39.6074 40.5151C41.6362 40.3992 45.891 39.4601 46.3432 39.4949C46.7953 39.5297 47.0156 39.4253 46.378 39.8311C45.7403 40.2485 39.7117 41.8252 37.7988 42.3585C35.8743 42.8802 31.2832 43.2976 29.9268 43.5642C28.5704 43.8309 25.6372 45.4076 25.1851 45.7902C24.7329 46.1612 23.9793 47.3321 25.672 48.2364C27.3646 49.1407 33.1614 49.2102 34.7381 49.3262C36.3148 49.4421 41.4739 49.0595 44.4535 48.4567C47.433 47.8538 47.7692 47.135 48.175 46.6829C48.5923 46.2307 48.5112 45.0134 48.5112 45.0134C48.5112 45.0134 48.6039 44.4917 48.6619 45.5931C48.7199 46.706 48.5344 47.1002 48.4184 47.8306C48.4184 47.8306 48.3952 47.8415 48.4184 48.1777C48.4184 48.2357 49.0793 48.1436 49.0793 48.1436C49.0793 48.1436 48.8196 47.9466 48.6457 47.8306C48.4718 47.7147 48.4184 47.8306 48.4184 47.8306C48.9054 47.6799 48.4184 48.1777 48.4184 48.1777C48.401 48.2009 50.2386 48.2596 50.5864 48.0857C50.4125 47.7958 50.227 46.706 50.285 45.5931C50.3429 44.4801 50.4357 45.0134 50.4357 45.0134C50.4357 45.0134 50.3661 46.2423 50.7719 46.6829C51.1893 47.135 51.5255 47.8538 54.4934 48.4567C57.4729 49.0595 62.6205 49.4305 64.2088 49.3262C65.7855 49.2102 71.5822 49.1407 73.2749 48.2364C74.9675 47.3321 74.2139 46.1612 73.7618 45.7902C73.3097 45.4192 70.3765 43.8309 69.0201 43.5642C67.6636 43.2976 63.0726 42.8918 61.1481 42.3585C59.2236 41.8368 53.2065 40.2485 52.5689 39.8311C51.9313 39.4137 52.1515 39.5297 52.6037 39.4949C53.0558 39.4601 57.3106 40.3992 59.3395 40.5151C61.3684 40.6311 64.8696 40.2137 66.4927 39.692C68.1158 39.1703 73.4488 37.095 74.3183 36.527C75.2342 35.9589 75.8718 35.1705 75.5704 34.5677Z" fill="#0066CC" /> <g clip-path="url(#logo-clipPath0)"> <path d="M50.3217 48.3506C50.3131 48.4465 50.3009 48.5411 50.2852 48.6337H48.6956C48.68 48.5411 48.6678 48.4465 48.6591 48.3506H50.3217Z" fill="#0066CC" /> <path d="M50.2238 48.9312C50.1993 49.0292 50.1712 49.1239 50.1396 49.2143H48.8415C48.8099 49.1239 48.7818 49.0292 48.7573 48.9312H50.2238Z" fill="#0066CC" /> <path d="M50.0241 49.511C49.9808 49.61 49.9347 49.7045 49.8861 49.7941H49.0942C49.0457 49.7043 48.9996 49.6098 48.9561 49.511H50.0241Z" fill="#0066CC" /> <path d="M49.7142 50.0916C49.6551 50.1872 49.5935 50.2805 49.5296 50.3747H49.4517C49.3874 50.2806 49.3258 50.1862 49.2667 50.0916H49.7142Z" fill="#0066CC" /> <path d="M49.7556 51.6901H49.2256L49.2449 51.6626C49.3043 51.5784 49.3664 51.4921 49.4277 51.407H49.5533C49.6149 51.4921 49.6766 51.5784 49.7365 51.6626L49.7556 51.6901Z" fill="#0066CC" /> <path d="M50.1062 52.27H48.8756C48.9292 52.1679 48.9827 52.0731 49.0348 51.9868H49.9472C49.9991 52.0737 50.0526 52.1679 50.1062 52.27Z" fill="#0066CC" /> <path d="M50.3706 52.8505H48.6107C48.6491 52.7521 48.6897 52.6573 48.73 52.5674H50.2512C50.2919 52.6573 50.332 52.7515 50.3706 52.8505Z" fill="#0066CC" /> <path d="M50.561 53.4306H48.4205C48.4464 53.3337 48.4743 53.2386 48.5043 53.1475H50.4769C50.5067 53.2386 50.5348 53.3334 50.561 53.4306Z" fill="#0066CC" /> <path d="M50.6817 54.0109H48.299C48.3135 53.915 48.3305 53.8205 48.35 53.7278H50.6312C50.6505 53.8204 50.6674 53.9149 50.6817 54.0109Z" fill="#0066CC" /> <path d="M50.737 54.591H48.2443C48.248 54.4961 48.2542 54.4016 48.2628 54.3079H50.7181C50.727 54.4015 50.7334 54.496 50.737 54.591Z" fill="#0066CC" /> <path d="M50.7394 54.8875C50.7379 54.9822 50.7336 55.0767 50.7268 55.1706H48.254C48.2471 55.0767 48.2428 54.9822 48.2412 54.8875H50.7394Z" fill="#0066CC" /> <path d="M50.6969 55.468C50.6847 55.5639 50.6698 55.6584 50.6522 55.7512H48.3285C48.3111 55.6583 48.2962 55.5638 48.2838 55.468H50.6969Z" fill="#0066CC" /> <path d="M50.5829 56.0712L50.5633 56.1435C50.5574 56.1669 50.5511 56.1902 50.5445 56.2129C50.5334 56.2526 50.5219 56.2922 50.5102 56.331H48.4699C48.4423 56.2401 48.4161 56.1448 48.3924 56.0479L50.5829 56.0712Z" fill="#0066CC" /> <path d="M50.4115 56.6284C50.3752 56.7267 50.3377 56.8211 50.2988 56.9116H48.6824C48.6436 56.8209 48.6061 56.7265 48.5697 56.6284H50.4115Z" fill="#0066CC" /> <path d="M50.1614 57.2083L50.1404 57.2506C50.0968 57.3357 50.0532 57.4157 50.0104 57.4914H48.9708C48.9209 57.4036 48.8701 57.3097 48.8198 57.2083H50.1614Z" fill="#0066CC" /> <path d="M49.8282 57.7888C49.7967 57.837 49.7651 57.8824 49.7363 57.9242C49.702 57.9738 49.6665 58.0232 49.6311 58.0723H49.3501C49.3142 58.0235 49.2792 57.9732 49.2444 57.9242C49.2152 57.8824 49.1845 57.8379 49.1528 57.7888H49.8282Z" fill="#0066CC" /> <path d="M49.6458 59.4584H49.3352C49.3855 59.3806 49.4376 59.304 49.4907 59.2271C49.5439 59.3042 49.5957 59.3813 49.6458 59.4584Z" fill="#0066CC" /> <path d="M49.9742 60.0383H49.0067C49.0525 59.942 49.1019 59.8476 49.1549 59.7551H49.8267C49.879 59.8478 49.9284 59.942 49.9742 60.0383Z" fill="#0066CC" /> <path d="M50.1947 60.6188H48.7861C48.814 60.5206 48.8452 60.426 48.8795 60.3357H50.1012C50.1356 60.426 50.1668 60.5206 50.1947 60.6188Z" fill="#0066CC" /> <path d="M50.3106 61.1987H48.6706C48.6819 61.1024 48.6968 61.0078 48.7151 60.9155H50.2655C50.284 61.0077 50.2991 61.1024 50.3106 61.1987Z" fill="#0066CC" /> <path d="M48.5629 47.6726C48.5909 48.0421 48.4699 48.4053 48.5462 48.7489C48.623 49.0873 48.7266 49.401 48.8533 49.6789C48.9797 49.9565 49.1203 50.2093 49.273 50.4332C49.4251 50.6603 49.5842 50.8726 49.7469 51.0764C49.9141 51.2844 50.0726 51.5173 50.2208 51.7729C50.3707 52.0295 50.5073 52.3135 50.6286 52.6209C50.7518 52.9338 50.8514 53.2783 50.9245 53.6444C51.0759 54.3907 51.0759 55.2187 50.9245 55.965C50.8515 56.3304 50.7522 56.6744 50.6296 56.9871C50.5082 57.2944 50.3716 57.5784 50.2215 57.835C50.0734 58.0907 49.9149 58.3236 49.7477 58.5315C49.5848 58.7353 49.4257 58.9473 49.2738 59.1747C49.121 59.3986 48.9804 59.6513 48.854 59.9291C48.7273 60.2068 48.6238 60.5204 48.547 60.8588C48.4704 61.2022 48.4173 61.5631 48.389 61.9326L48.4013 61.6516C48.4068 61.558 48.4157 61.4653 48.4228 61.3718C48.4299 61.2782 48.4446 61.1876 48.4553 61.095C48.4661 61.0023 48.4842 60.9133 48.4986 60.8224C48.565 60.4613 48.661 60.1227 48.783 59.8194C49.0273 59.2126 49.3461 58.7396 49.6661 58.3041C49.9783 57.875 50.2683 57.3795 50.4876 56.7884C50.5983 56.498 50.6881 56.1803 50.7545 55.8439C50.8854 55.1731 50.8854 54.4342 50.7545 53.7634C50.688 53.4271 50.5983 53.1093 50.4877 52.8186C50.2678 52.2275 49.978 51.7318 49.6663 51.3026C49.3463 50.8681 49.0275 50.3941 48.7831 49.7861C48.6612 49.4829 48.5652 49.1444 48.4988 48.7834C48.4844 48.6925 48.4672 48.6017 48.4555 48.5108C48.4438 48.42 48.4313 48.3273 48.423 48.2341C48.4146 48.1408 48.4286 48.0376 48.423 47.944L48.5629 47.6726Z" fill="#0066CC" /> <path d="M50.5746 61.9401C50.5464 61.5705 50.4933 61.2094 50.4167 60.8659C50.3398 60.5275 50.2362 60.2138 50.1094 59.9359C49.9829 59.6583 49.8423 59.4056 49.6895 59.1816C49.5374 58.9545 49.3784 58.7422 49.2157 58.5384C49.0484 58.3304 48.89 58.0975 48.7418 57.8419C48.5917 57.5853 48.4551 57.3013 48.3337 56.9939C48.2109 56.6809 48.1116 56.3364 48.0388 55.9704C47.8873 55.224 47.8873 54.3959 48.0388 53.6495C48.1118 53.2841 48.2111 52.9401 48.3337 52.6274C48.4551 52.3201 48.5917 52.0361 48.7418 51.7795C48.8899 51.5238 49.0484 51.2909 49.2157 51.083C49.3785 50.8792 49.5376 50.6672 49.6895 50.4398C49.8423 50.216 49.983 49.9633 50.1094 49.6857C50.2362 49.408 50.3399 49.0944 50.4168 48.756C50.4934 48.4119 50.3897 48.0428 50.4178 47.6726L50.5623 47.9611C50.5568 48.0547 50.5479 48.1473 50.5408 48.2409C50.5337 48.3345 50.519 48.425 50.5083 48.5177C50.4975 48.6104 50.4794 48.6994 50.465 48.7903C50.3986 49.1514 50.3026 49.4899 50.1807 49.7932C49.9361 50.4028 49.6172 50.8752 49.2972 51.3098C48.9849 51.738 48.6947 52.2337 48.475 52.8252C48.3642 53.1156 48.2745 53.4333 48.208 53.7697C48.0771 54.4405 48.0771 55.1793 48.208 55.8501C48.2745 56.1866 48.3642 56.5045 48.4748 56.7953C48.6947 57.3864 48.9847 57.8821 49.2962 58.3113C49.6163 58.7458 49.935 59.2197 50.1796 59.8278C50.3015 60.131 50.3975 60.4695 50.4639 60.8305C50.4783 60.9213 50.4955 61.0122 50.5072 61.103C50.5189 61.1939 50.5313 61.2869 50.5397 61.3798C50.5481 61.4728 50.5555 61.5661 50.5612 61.6596L50.5746 61.9401Z" fill="#0066CC" /> </g> <g clip-path="url(#logo-clipPath1)"> <path d="M50.3217 61.4509C50.3131 61.5469 50.3009 61.6415 50.2852 61.7341H48.6956C48.68 61.6415 48.6678 61.5469 48.6591 61.4509H50.3217Z" fill="#0066CC" /> <path d="M50.2238 62.0315C50.1993 62.1296 50.1712 62.2242 50.1396 62.3146H48.8415C48.8099 62.2242 48.7818 62.1296 48.7573 62.0315H50.2238Z" fill="#0066CC" /> <path d="M50.0241 62.6116C49.9808 62.7106 49.9347 62.8051 49.8861 62.8947H49.0942C49.0457 62.8049 48.9996 62.7104 48.9561 62.6116H50.0241Z" fill="#0066CC" /> <path d="M49.7142 63.1919C49.6551 63.2876 49.5935 63.3809 49.5296 63.475H49.4517C49.3874 63.381 49.3258 63.2866 49.2667 63.1919H49.7142Z" fill="#0066CC" /> <path d="M49.7556 64.7905H49.2256L49.2449 64.7629C49.3043 64.6787 49.3664 64.5924 49.4277 64.5073H49.5533C49.6149 64.5924 49.6766 64.6787 49.7365 64.7629L49.7556 64.7905Z" fill="#0066CC" /> <path d="M50.1062 65.3705H48.8756C48.9292 65.2685 48.9827 65.1737 49.0348 65.0874H49.9472C49.9991 65.1743 50.0526 65.2685 50.1062 65.3705Z" fill="#0066CC" /> <path d="M50.3706 65.9511H48.6107C48.6491 65.8527 48.6897 65.7579 48.73 65.668H50.2512C50.2919 65.7579 50.332 65.8521 50.3706 65.9511Z" fill="#0066CC" /> <path d="M50.561 66.531H48.4205C48.4464 66.434 48.4743 66.339 48.5043 66.2478H50.4769C50.5067 66.339 50.5348 66.4337 50.561 66.531Z" fill="#0066CC" /> <path d="M50.6817 67.1115H48.299C48.3135 67.0155 48.3305 66.921 48.35 66.8284H50.6312C50.6505 66.921 50.6674 67.0155 50.6817 67.1115Z" fill="#0066CC" /> <path d="M50.737 67.6913H48.2443C48.248 67.5964 48.2542 67.5019 48.2628 67.4082H50.7181C50.727 67.5019 50.7334 67.5964 50.737 67.6913Z" fill="#0066CC" /> <path d="M50.7394 67.9878C50.7379 68.0825 50.7336 68.1771 50.7268 68.2709H48.254C48.2471 68.1771 48.2428 68.0825 48.2412 67.9878H50.7394Z" fill="#0066CC" /> <path d="M50.6969 68.5684C50.6847 68.6642 50.6698 68.7587 50.6522 68.8515H48.3285C48.3111 68.7586 48.2962 68.6641 48.2838 68.5684H50.6969Z" fill="#0066CC" /> <path d="M50.5829 69.1715L50.5633 69.2439C50.5574 69.2672 50.5511 69.2905 50.5445 69.3132C50.5334 69.3529 50.5219 69.3926 50.5102 69.4313H48.4699C48.4423 69.3405 48.4161 69.2451 48.3924 69.1482L50.5829 69.1715Z" fill="#0066CC" /> <path d="M50.4115 69.7288C50.3752 69.8271 50.3377 69.9215 50.2988 70.0119H48.6824C48.6436 69.9213 48.6061 69.8269 48.5697 69.7288H50.4115Z" fill="#0066CC" /> <path d="M50.1614 70.3088L50.1404 70.3512C50.0968 70.4363 50.0532 70.5163 50.0104 70.592H48.9708C48.9209 70.5042 48.8701 70.4103 48.8198 70.3088H50.1614Z" fill="#0066CC" /> <path d="M49.8282 70.8894C49.7967 70.9376 49.7651 70.983 49.7363 71.0248C49.702 71.0744 49.6665 71.1238 49.6311 71.1729H49.3501C49.3142 71.1241 49.2792 71.0738 49.2444 71.0248C49.2152 70.983 49.1845 70.9385 49.1528 70.8894H49.8282Z" fill="#0066CC" /> <path d="M49.6458 72.5588H49.3352C49.3855 72.4809 49.4376 72.4043 49.4907 72.3274C49.5439 72.4045 49.5957 72.4816 49.6458 72.5588Z" fill="#0066CC" /> <path d="M49.9742 73.1386H49.0067C49.0525 73.0423 49.1019 72.9479 49.1549 72.8555H49.8267C49.879 72.9481 49.9284 73.0423 49.9742 73.1386Z" fill="#0066CC" /> <path d="M50.1947 73.7192H48.7861C48.814 73.621 48.8452 73.5264 48.8795 73.436H50.1012C50.1356 73.5264 50.1668 73.621 50.1947 73.7192Z" fill="#0066CC" /> <path d="M50.3106 74.2993H48.6706C48.6819 74.203 48.6968 74.1084 48.7151 74.0161H50.2655C50.284 74.1083 50.2991 74.203 50.3106 74.2993Z" fill="#0066CC" /> <path d="M48.4069 60.7805C48.4349 61.15 48.4877 61.5111 48.5641 61.8547C48.6409 62.1931 48.7444 62.5068 48.8711 62.7847C48.9976 63.0623 49.1382 63.315 49.2908 63.539C49.443 63.7661 49.602 63.9784 49.7647 64.1822C49.932 64.3902 50.0904 64.6231 50.2386 64.8787C50.3886 65.1353 50.5252 65.4193 50.6465 65.7266C50.7697 66.0395 50.8693 66.3841 50.9424 66.7502C51.0938 67.4965 51.0938 68.3245 50.9424 69.0708C50.8694 69.4362 50.7701 69.7802 50.6475 70.0929C50.5261 70.4002 50.3895 70.6842 50.2394 70.9408C50.0913 71.1965 49.9328 71.4294 49.7655 71.6373C49.6027 71.8411 49.4436 72.0531 49.2916 72.2805C49.1389 72.5044 48.9983 72.7571 48.8719 73.0349C48.7452 73.3126 48.6416 73.6262 48.5648 73.9645C48.4883 74.308 48.4352 74.6689 48.4069 75.0384L48.4192 74.7574C48.4247 74.6638 48.4336 74.5711 48.4407 74.4775C48.4478 74.384 48.4625 74.2934 48.4732 74.2008C48.484 74.1081 48.5021 74.0191 48.5165 73.9282C48.5829 73.5671 48.6789 73.2285 48.8008 72.9252C49.0452 72.3184 49.364 71.8453 49.684 71.4099C49.9962 70.9808 50.2862 70.4853 50.5054 69.8942C50.6161 69.6038 50.7059 69.2861 50.7724 68.9497C50.9033 68.2789 50.9033 67.54 50.7724 66.8692C50.7059 66.5329 50.6161 66.2151 50.5056 65.9244C50.2857 65.3333 49.9958 64.8375 49.6842 64.4084C49.3641 63.9739 49.0454 63.4999 48.801 62.8919C48.6791 62.5887 48.5831 62.2502 48.5167 61.8892C48.5023 61.7983 48.4851 61.7075 48.4734 61.6166C48.4617 61.5258 48.4492 61.4331 48.4408 61.3398C48.4325 61.2466 48.425 61.1536 48.4194 61.06L48.4069 60.7805Z" fill="#0066CC" /> <path d="M50.5746 75.0405C50.5464 74.6709 50.4933 74.3099 50.4167 73.9664C50.3398 73.6279 50.2362 73.3142 50.1094 73.0364C49.9829 72.7587 49.8423 72.506 49.6895 72.282C49.5374 72.0549 49.3784 71.8426 49.2157 71.6388C49.0484 71.4308 48.89 71.1979 48.7418 70.9423C48.5917 70.6857 48.4551 70.4017 48.3337 70.0944C48.2109 69.7814 48.1116 69.4368 48.0388 69.0708C47.8873 68.3244 47.8873 67.4963 48.0388 66.7499C48.1118 66.3846 48.2111 66.0405 48.3337 65.7279C48.4551 65.4205 48.5917 65.1365 48.7418 64.8799C48.8899 64.6242 49.0484 64.3913 49.2157 64.1834C49.3785 63.9796 49.5376 63.7676 49.6895 63.5402C49.8423 63.3164 49.983 63.0638 50.1094 62.7862C50.2362 62.5084 50.3399 62.1949 50.4168 61.8565C50.4934 61.5124 50.5465 61.1507 50.5746 60.7805L50.5623 61.0615C50.5568 61.1551 50.5479 61.2478 50.5408 61.3414C50.5337 61.4349 50.519 61.5255 50.5083 61.6181C50.4975 61.7108 50.4794 61.7998 50.465 61.8907C50.3986 62.2518 50.3026 62.5904 50.1807 62.8937C49.9361 63.5033 49.6172 63.9757 49.2972 64.4102C48.9849 64.8384 48.6947 65.3342 48.475 65.9256C48.3642 66.216 48.2745 66.5337 48.208 66.8701C48.0771 67.5409 48.0771 68.2798 48.208 68.9506C48.2745 69.2871 48.3642 69.6049 48.4748 69.8957C48.6947 70.4868 48.9847 70.9826 49.2962 71.4117C49.6163 71.8463 49.935 72.3202 50.1796 72.9283C50.3015 73.2314 50.3975 73.5699 50.4639 73.9309C50.4783 74.0218 50.4955 74.1126 50.5072 74.2035C50.5189 74.2943 50.5313 74.3873 50.5397 74.4803C50.5481 74.5732 50.5555 74.6665 50.5612 74.7601L50.5746 75.0405Z" fill="#0066CC" /> </g> <path d="M48.432 74.5769H50.5487L50.5781 76.9537C50.5856 77.5597 50.0964 78.055 49.4903 78.055C48.8843 78.055 48.3951 77.5597 48.4026 76.9537L48.432 74.5769Z" fill="#0066CC" /> <g clip-path="url(#logo-clipPath2)"> <path d="M51.5099 43.1769C51.4653 43.2043 51.4303 43.2452 51.4097 43.2937C51.3892 43.3423 51.3841 43.3961 51.3952 43.4477L51.25 43.5669C51.2017 43.5293 51.1451 43.504 51.085 43.4932L50.9574 43.233C51.0108 43.1744 51.0449 43.1003 51.0549 43.0212C51.0649 42.9421 51.0503 42.8618 51.0131 42.7915L51.348 42.5137C51.4025 42.5638 51.4701 42.5968 51.5428 42.6088C51.6154 42.6207 51.6899 42.611 51.7572 42.581C51.8245 42.5509 51.8818 42.5017 51.9219 42.4393C51.9621 42.3769 51.9835 42.3041 51.9835 42.2297C51.9835 42.1553 51.9621 42.0824 51.9219 42.0201C51.8818 41.9577 51.8245 41.9085 51.7572 41.8784C51.6899 41.8483 51.6154 41.8387 51.5428 41.8506C51.4701 41.8625 51.4025 41.8956 51.348 41.9457L51.0133 41.6683C51.0505 41.5979 51.065 41.5176 51.055 41.4385C51.0451 41.3594 51.011 41.2854 50.9576 41.2267L51.0853 40.9666C51.1453 40.9556 51.2018 40.9302 51.25 40.8925L51.3952 41.0117C51.3833 41.0675 51.3903 41.1257 51.4151 41.177C51.44 41.2282 51.4812 41.2695 51.5321 41.2941C51.583 41.3187 51.6407 41.3253 51.6957 41.3127C51.7508 41.3001 51.8 41.269 51.8355 41.2246C51.8709 41.1802 51.8905 41.125 51.8911 41.0679C51.8916 41.0108 51.8732 40.9552 51.8386 40.9101C51.8041 40.865 51.7555 40.8329 51.7007 40.8192C51.6459 40.8055 51.5881 40.8108 51.5367 40.8344L51.3801 40.7058C51.3976 40.6511 51.4028 40.5931 51.3952 40.5362C51.3876 40.4792 51.3675 40.4247 51.3364 40.3766C51.3052 40.3285 51.2639 40.288 51.2153 40.2582C51.1666 40.2284 51.1121 40.21 51.0555 40.2043L51.0206 40.0083C51.0399 39.9912 51.0564 39.9711 51.0696 39.9488C51.0973 39.9028 51.1099 39.8491 51.1055 39.7954C51.1011 39.7417 51.0799 39.6908 51.045 39.6501C51.0102 39.6094 50.9634 39.5809 50.9115 39.5688C50.8596 39.5567 50.8052 39.5615 50.7562 39.5827C50.7072 39.6039 50.6661 39.6402 50.6389 39.6865C50.6116 39.7328 50.5997 39.7867 50.6047 39.8403C50.6097 39.894 50.6314 39.9446 50.6667 39.985C50.702 40.0253 50.7491 40.0533 50.8012 40.0648L50.8342 40.2506C50.7871 40.2768 50.746 40.3127 50.7136 40.3562C50.6812 40.3996 50.6583 40.4495 50.6464 40.5025L50.4259 40.5018C50.404 40.4493 50.3653 40.4058 50.3159 40.3784C50.2666 40.3509 50.2096 40.341 50.154 40.3503C50.0985 40.3596 50.0476 40.3875 50.0097 40.4295C49.9717 40.4716 49.9489 40.5253 49.9448 40.5821C49.9407 40.6389 49.9556 40.6954 49.9872 40.7426C50.0187 40.7897 50.0651 40.8248 50.1187 40.8421C50.1724 40.8594 50.2302 40.8579 50.2829 40.838C50.3356 40.818 50.3802 40.7806 50.4094 40.7319C50.4094 40.7312 50.4101 40.7303 50.4107 40.7295L50.6635 40.7305C50.694 40.8079 50.7487 40.8731 50.8193 40.9163C50.829 40.9222 50.8389 40.9276 50.8489 40.9326L50.7622 41.1118C50.6719 41.091 50.5772 41.1041 50.4959 41.1488C50.4145 41.1935 50.352 41.2666 50.3201 41.3545L49.8412 41.478C49.8135 41.407 49.7653 41.3461 49.703 41.3032C49.6406 41.2603 49.5669 41.2374 49.4915 41.2374C49.4161 41.2374 49.3424 41.2603 49.2801 41.3032C49.2177 41.3461 49.1696 41.407 49.1419 41.478L48.6629 41.3548C48.631 41.2669 48.5685 41.1937 48.4871 41.149C48.4058 41.1042 48.311 41.091 48.2207 41.1118L48.1329 40.9323C48.1429 40.9272 48.1528 40.922 48.1625 40.9159C48.2331 40.8728 48.2878 40.8075 48.3184 40.7301L48.5712 40.7291C48.5712 40.73 48.5721 40.7308 48.5726 40.7316C48.6018 40.7805 48.6465 40.8181 48.6995 40.8382C48.7524 40.8583 48.8105 40.8599 48.8644 40.8425C48.9183 40.8251 48.9649 40.7899 48.9966 40.7426C49.0283 40.6952 49.0433 40.6384 49.0391 40.5813C49.035 40.5243 49.012 40.4703 48.9738 40.4281C48.9356 40.3859 48.8845 40.3579 48.8287 40.3487C48.7729 40.3394 48.7156 40.3495 48.6661 40.3772C48.6166 40.4049 48.5778 40.4486 48.5559 40.5014L48.3354 40.5021C48.3236 40.4491 48.3008 40.3993 48.2685 40.3558C48.2363 40.3124 48.1952 40.2764 48.1482 40.2501L48.1813 40.0643C48.2364 40.052 48.2858 40.0213 48.3215 39.977C48.3572 39.9328 48.3771 39.8777 48.3781 39.8206C48.379 39.7636 48.3608 39.7078 48.3265 39.6625C48.2922 39.6171 48.2438 39.5848 48.1891 39.5707C48.1344 39.5566 48.0766 39.5616 48.025 39.5848C47.9735 39.608 47.9312 39.6482 47.905 39.6988C47.8788 39.7493 47.8702 39.8073 47.8806 39.8634C47.891 39.9196 47.9199 39.9705 47.9625 40.0079L47.9274 40.2043C47.8709 40.21 47.8163 40.2284 47.7677 40.2582C47.7191 40.288 47.6777 40.3285 47.6465 40.3766C47.6154 40.4247 47.5953 40.4792 47.5877 40.5362C47.5802 40.5931 47.5853 40.6511 47.6028 40.7058L47.4462 40.8344C47.3947 40.8107 47.3369 40.8053 47.282 40.8191C47.2271 40.8328 47.1784 40.8649 47.1438 40.9101C47.1091 40.9553 47.0906 41.011 47.0912 41.0681C47.0917 41.1253 47.1113 41.1806 47.1469 41.2251C47.1824 41.2696 47.2317 41.3007 47.2868 41.3133C47.342 41.3259 47.3997 41.3194 47.4507 41.2947C47.5017 41.27 47.543 41.2286 47.5679 41.1773C47.5927 41.1259 47.5997 41.0676 47.5877 41.0117L47.7329 40.8925C47.7813 40.93 47.8379 40.9553 47.898 40.9661L48.0256 41.2263C47.9722 41.2849 47.9382 41.359 47.9282 41.438C47.9182 41.5171 47.9327 41.5974 47.9698 41.6678L47.6351 41.9457C47.5807 41.8956 47.513 41.8625 47.4404 41.8506C47.3678 41.8387 47.2933 41.8483 47.2259 41.8784C47.1586 41.9085 47.1014 41.9577 47.0612 42.0201C47.0211 42.0824 46.9997 42.1553 46.9997 42.2297C46.9997 42.3041 47.0211 42.3769 47.0612 42.4393C47.1014 42.5017 47.1586 42.5509 47.2259 42.581C47.2933 42.611 47.3678 42.6207 47.4404 42.6088C47.513 42.5968 47.5807 42.5638 47.6351 42.5137L47.9698 42.791C47.9327 42.8613 47.9182 42.9416 47.9282 43.0207C47.9382 43.0998 47.9722 43.1738 48.0256 43.2325L47.898 43.4927C47.8379 43.5035 47.7813 43.5288 47.7329 43.5664L47.5877 43.4471C47.5996 43.3913 47.5926 43.3331 47.5678 43.2819C47.5429 43.2307 47.5017 43.1894 47.4508 43.1648C47.3999 43.1402 47.3423 43.1337 47.2873 43.1463C47.2323 43.1589 47.1831 43.1899 47.1477 43.2343C47.1122 43.2787 47.0926 43.3339 47.0921 43.3909C47.0915 43.448 47.11 43.5035 47.1445 43.5486C47.179 43.5937 47.2276 43.6258 47.2823 43.6395C47.3371 43.6532 47.3948 43.6479 47.4462 43.6244L47.6028 43.7529C47.5853 43.8076 47.5801 43.8656 47.5877 43.9226C47.5952 43.9796 47.6153 44.0341 47.6465 44.0822C47.6776 44.1303 47.719 44.1707 47.7676 44.2005C47.8163 44.2303 47.8709 44.2487 47.9274 44.2543L47.9623 44.4503C47.9224 44.4855 47.8945 44.5325 47.8826 44.5847C47.8707 44.6369 47.8754 44.6915 47.8961 44.7408C47.9168 44.7901 47.9523 44.8315 47.9977 44.8591C48.043 44.8868 48.0959 44.8992 48.1486 44.8946C48.2014 44.8901 48.2513 44.8688 48.2914 44.8338C48.3314 44.7987 48.3595 44.7518 48.3716 44.6997C48.3837 44.6476 48.3792 44.5929 48.3587 44.5435C48.3382 44.4942 48.3028 44.4526 48.2576 44.4248C48.2339 44.4106 48.2081 44.4005 48.1811 44.3948L48.1481 44.209C48.1952 44.1828 48.2363 44.1469 48.2687 44.1035C48.3011 44.0601 48.324 44.0103 48.3359 43.9572L48.5564 43.958C48.5783 44.0105 48.617 44.054 48.6663 44.0815C48.7157 44.109 48.7727 44.119 48.8283 44.1097C48.8839 44.1005 48.9348 44.0726 48.9728 44.0305C49.0108 43.9885 49.0337 43.9347 49.0378 43.8779C49.0419 43.8211 49.027 43.7645 48.9955 43.7173C48.9639 43.6701 48.9176 43.635 48.8639 43.6177C48.8102 43.6004 48.7524 43.6018 48.6996 43.6218C48.6469 43.6417 48.6023 43.6791 48.5731 43.7278C48.5731 43.7285 48.5722 43.7294 48.5717 43.7302L48.3188 43.7293C48.2883 43.6518 48.2336 43.5866 48.163 43.5435C48.1533 43.5375 48.1434 43.5321 48.1334 43.5271L48.2212 43.3476C48.2991 43.3656 48.3806 43.3583 48.4542 43.3269C48.5277 43.2954 48.5896 43.2413 48.6311 43.1723C48.644 43.1509 48.6547 43.1284 48.6632 43.1049L49.1422 42.9816C49.1699 43.0526 49.2181 43.1135 49.2804 43.1564C49.3428 43.1993 49.4165 43.2222 49.4919 43.2222C49.5673 43.2222 49.641 43.1993 49.7034 43.1564C49.7657 43.1135 49.8139 43.0526 49.8415 42.9816L50.3205 43.1049C50.3524 43.1928 50.4149 43.266 50.4963 43.3106C50.5777 43.3553 50.6724 43.3684 50.7627 43.3476L50.8505 43.5271C50.8405 43.5321 50.8306 43.5375 50.8209 43.5435C50.7503 43.5866 50.6956 43.6518 50.665 43.7293L50.4123 43.7302C50.4123 43.7294 50.4115 43.7285 50.411 43.7278C50.3817 43.6789 50.3371 43.6413 50.2842 43.6212C50.2312 43.601 50.1732 43.5995 50.1193 43.6168C50.0654 43.6341 50.0189 43.6693 49.9872 43.7167C49.9555 43.764 49.9405 43.8207 49.9446 43.8778C49.9487 43.9348 49.9716 43.9887 50.0098 44.031C50.0479 44.0732 50.099 44.1012 50.1548 44.1104C50.2105 44.1197 50.2678 44.1097 50.3173 44.082C50.3668 44.0544 50.4056 44.0107 50.4275 43.958L50.648 43.9572C50.6598 44.0102 50.6826 44.06 50.7148 44.1034C50.747 44.1467 50.7879 44.1827 50.8348 44.209L50.8018 44.3948C50.7468 44.4072 50.6976 44.4379 50.662 44.4821C50.6264 44.5263 50.6067 44.5813 50.6058 44.6382C50.605 44.6952 50.6232 44.7507 50.6574 44.796C50.6916 44.8412 50.74 44.8734 50.7945 44.8874C50.8491 44.9014 50.9068 44.8964 50.9582 44.8732C51.0097 44.85 51.0519 44.81 51.078 44.7595C51.1041 44.7091 51.1127 44.6512 51.1023 44.5952C51.0919 44.5393 51.0632 44.4885 51.0207 44.4511L51.0556 44.2551C51.1122 44.2494 51.1668 44.231 51.2154 44.2012C51.264 44.1714 51.3054 44.131 51.3366 44.0829C51.3677 44.0348 51.3878 43.9803 51.3954 43.9233C51.4029 43.8663 51.3978 43.8084 51.3803 43.7537L51.5368 43.6251C51.5762 43.6432 51.6196 43.6506 51.6627 43.6467C51.7058 43.6429 51.7471 43.6278 51.7828 43.603C51.8184 43.5782 51.8471 43.5445 51.8661 43.5051C51.885 43.4658 51.8936 43.4222 51.891 43.3785C51.8884 43.3349 51.8747 43.2926 51.8511 43.2559C51.8276 43.2192 51.7951 43.1892 51.7568 43.1689C51.7185 43.1487 51.6756 43.1388 51.6324 43.1402C51.5891 43.1416 51.547 43.1543 51.51 43.177L51.5099 43.1769ZM50.4797 42.6433C50.3975 42.6936 50.3372 42.7737 50.3112 42.8673L49.8579 42.7507C49.8387 42.667 49.7919 42.5923 49.7254 42.5388C49.6588 42.4854 49.5763 42.4563 49.4913 42.4563C49.4063 42.4563 49.3238 42.4854 49.2572 42.5388C49.1906 42.5923 49.1439 42.667 49.1246 42.7507L48.6713 42.8673C48.6559 42.8124 48.6287 42.7618 48.5916 42.7189C48.5544 42.676 48.5084 42.642 48.4567 42.6193C48.4049 42.5966 48.3489 42.5858 48.2926 42.5877C48.2362 42.5896 48.181 42.6041 48.1309 42.6302L47.7504 42.3147C47.7633 42.2587 47.7633 42.2005 47.7504 42.1445L48.1309 41.8292C48.181 41.8554 48.2363 41.8699 48.2926 41.8719C48.349 41.8738 48.4051 41.863 48.4568 41.8403C48.5086 41.8176 48.5547 41.7836 48.5918 41.7406C48.629 41.6977 48.6562 41.647 48.6716 41.5921L49.1248 41.7088C49.1441 41.7925 49.1908 41.8672 49.2574 41.9207C49.324 41.9741 49.4065 42.0032 49.4915 42.0032C49.5765 42.0032 49.659 41.9741 49.7256 41.9207C49.7922 41.8672 49.8389 41.7925 49.8582 41.7088L50.3115 41.5921C50.3267 41.647 50.3539 41.6979 50.391 41.7409C50.4281 41.7839 50.4742 41.818 50.526 41.8407C50.5778 41.8634 50.6339 41.8742 50.6904 41.8722C50.7468 41.8702 50.802 41.8555 50.8521 41.8292L51.2328 42.1445C51.2197 42.2005 51.2197 42.2588 51.2328 42.3147L50.8521 42.63C50.7942 42.5997 50.7295 42.585 50.6642 42.5873C50.599 42.5896 50.5355 42.6089 50.4798 42.6433H50.4797Z" fill="white" /> </g> <g clip-path="url(#logo-clipPath3)"> <path d="M51.5099 37.8439C51.4653 37.8713 51.4303 37.9122 51.4097 37.9607C51.3892 38.0093 51.3841 38.0631 51.3952 38.1147L51.25 38.2339C51.2017 38.1962 51.1451 38.171 51.085 38.1601L50.9574 37.9C51.0108 37.8414 51.0449 37.7673 51.0549 37.6882C51.0649 37.6091 51.0503 37.5288 51.0131 37.4584L51.348 37.1807C51.4025 37.2308 51.4701 37.2638 51.5428 37.2758C51.6154 37.2877 51.6899 37.278 51.7572 37.2479C51.8245 37.2179 51.8818 37.1686 51.9219 37.1063C51.9621 37.0439 51.9835 36.9711 51.9835 36.8967C51.9835 36.8223 51.9621 36.7494 51.9219 36.6871C51.8818 36.6247 51.8245 36.5755 51.7572 36.5454C51.6899 36.5153 51.6154 36.5057 51.5428 36.5176C51.4701 36.5295 51.4025 36.5626 51.348 36.6127L51.0133 36.3353C51.0505 36.2649 51.065 36.1846 51.055 36.1055C51.0451 36.0264 51.011 35.9524 50.9576 35.8937L51.0853 35.6336C51.1453 35.6226 51.2018 35.5972 51.25 35.5595L51.3952 35.6787C51.3833 35.7345 51.3903 35.7927 51.4151 35.8439C51.44 35.8952 51.4812 35.9365 51.5321 35.9611C51.583 35.9857 51.6407 35.9923 51.6957 35.9797C51.7508 35.9671 51.8 35.936 51.8355 35.8916C51.8709 35.8472 51.8905 35.792 51.8911 35.7349C51.8916 35.6778 51.8732 35.6222 51.8386 35.5771C51.8041 35.532 51.7555 35.4999 51.7007 35.4862C51.6459 35.4725 51.5881 35.4778 51.5367 35.5014L51.3801 35.3728C51.3976 35.3181 51.4028 35.2601 51.3952 35.2032C51.3876 35.1462 51.3675 35.0916 51.3364 35.0436C51.3052 34.9955 51.2639 34.955 51.2153 34.9252C51.1666 34.8954 51.1121 34.877 51.0555 34.8713L51.0206 34.6753C51.0399 34.6582 51.0564 34.6381 51.0696 34.6158C51.0973 34.5698 51.1099 34.5161 51.1055 34.4624C51.1011 34.4087 51.0799 34.3578 51.045 34.3171C51.0102 34.2764 50.9634 34.2479 50.9115 34.2358C50.8596 34.2236 50.8052 34.2285 50.7562 34.2497C50.7072 34.2709 50.6661 34.3072 50.6389 34.3535C50.6116 34.3998 50.5997 34.4537 50.6047 34.5073C50.6097 34.561 50.6314 34.6116 50.6667 34.652C50.702 34.6923 50.7491 34.7203 50.8012 34.7318L50.8342 34.9176C50.7871 34.9438 50.746 34.9797 50.7136 35.0232C50.6812 35.0666 50.6583 35.1165 50.6464 35.1695L50.4259 35.1687C50.404 35.1163 50.3653 35.0728 50.3159 35.0454C50.2666 35.0179 50.2096 35.008 50.154 35.0173C50.0985 35.0265 50.0476 35.0545 50.0097 35.0965C49.9717 35.1386 49.9489 35.1923 49.9448 35.2491C49.9407 35.3059 49.9556 35.3624 49.9872 35.4096C50.0187 35.4567 50.0651 35.4918 50.1187 35.5091C50.1724 35.5264 50.2302 35.5249 50.2829 35.5049C50.3356 35.485 50.3802 35.4476 50.4094 35.3989C50.4094 35.3982 50.4101 35.3973 50.4107 35.3965L50.6635 35.3974C50.694 35.4749 50.7487 35.5401 50.8193 35.5833C50.829 35.5892 50.8389 35.5946 50.8489 35.5996L50.7622 35.7788C50.6719 35.758 50.5772 35.7711 50.4959 35.8158C50.4145 35.8605 50.352 35.9336 50.3201 36.0215L49.8412 36.145C49.8135 36.074 49.7653 36.0131 49.703 35.9702C49.6406 35.9273 49.5669 35.9044 49.4915 35.9044C49.4161 35.9044 49.3424 35.9273 49.2801 35.9702C49.2177 36.0131 49.1696 36.074 49.1419 36.145L48.6629 36.0218C48.631 35.9339 48.5685 35.8607 48.4871 35.8159C48.4058 35.7712 48.311 35.758 48.2207 35.7788L48.1329 35.5993C48.1429 35.5942 48.1528 35.589 48.1625 35.5829C48.2331 35.5397 48.2878 35.4745 48.3184 35.3971L48.5712 35.3961C48.5712 35.3969 48.5721 35.3978 48.5726 35.3986C48.6018 35.4475 48.6465 35.4851 48.6995 35.5052C48.7524 35.5253 48.8105 35.5268 48.8644 35.5095C48.9183 35.4921 48.9649 35.4569 48.9966 35.4095C49.0283 35.3622 49.0433 35.3054 49.0391 35.2483C49.035 35.1913 49.012 35.1373 48.9738 35.0951C48.9356 35.0529 48.8845 35.0249 48.8287 35.0157C48.7729 35.0064 48.7156 35.0165 48.6661 35.0442C48.6166 35.0719 48.5778 35.1156 48.5559 35.1684L48.3354 35.1691C48.3236 35.1161 48.3008 35.0663 48.2685 35.0228C48.2363 34.9794 48.1952 34.9434 48.1482 34.9171L48.1813 34.7313C48.2364 34.719 48.2858 34.6882 48.3215 34.644C48.3572 34.5998 48.3771 34.5447 48.3781 34.4876C48.379 34.4305 48.3608 34.3748 48.3265 34.3295C48.2922 34.2841 48.2438 34.2518 48.1891 34.2377C48.1344 34.2236 48.0766 34.2286 48.025 34.2518C47.9735 34.275 47.9312 34.3152 47.905 34.3657C47.8788 34.4163 47.8702 34.4743 47.8806 34.5304C47.891 34.5865 47.9199 34.6375 47.9625 34.6749L47.9274 34.8713C47.8709 34.877 47.8163 34.8954 47.7677 34.9252C47.7191 34.955 47.6777 34.9955 47.6465 35.0436C47.6154 35.0916 47.5953 35.1462 47.5877 35.2032C47.5802 35.2601 47.5853 35.3181 47.6028 35.3728L47.4462 35.5014C47.3947 35.4777 47.3369 35.4723 47.282 35.4861C47.2271 35.4998 47.1784 35.5318 47.1438 35.577C47.1091 35.6223 47.0906 35.6779 47.0912 35.7351C47.0917 35.7923 47.1113 35.8476 47.1469 35.8921C47.1824 35.9366 47.2317 35.9677 47.2868 35.9803C47.342 35.9929 47.3997 35.9864 47.4507 35.9617C47.5017 35.937 47.543 35.8956 47.5679 35.8442C47.5927 35.7929 47.5997 35.7345 47.5877 35.6787L47.7329 35.5595C47.7813 35.597 47.8379 35.6223 47.898 35.6331L48.0256 35.8932C47.9722 35.9519 47.9382 36.0259 47.9282 36.105C47.9182 36.1841 47.9327 36.2644 47.9698 36.3348L47.6351 36.6127C47.5807 36.5626 47.513 36.5295 47.4404 36.5176C47.3678 36.5057 47.2933 36.5153 47.2259 36.5454C47.1586 36.5755 47.1014 36.6247 47.0612 36.6871C47.0211 36.7494 46.9997 36.8223 46.9997 36.8967C46.9997 36.9711 47.0211 37.0439 47.0612 37.1063C47.1014 37.1686 47.1586 37.2179 47.2259 37.2479C47.2933 37.278 47.3678 37.2877 47.4404 37.2758C47.513 37.2638 47.5807 37.2308 47.6351 37.1807L47.9698 37.4579C47.9327 37.5283 47.9182 37.6086 47.9282 37.6877C47.9382 37.7668 47.9722 37.8408 48.0256 37.8995L47.898 38.1597C47.8379 38.1705 47.7813 38.1958 47.7329 38.2334L47.5877 38.1141C47.5996 38.0583 47.5926 38.0001 47.5678 37.9489C47.5429 37.8977 47.5017 37.8564 47.4508 37.8318C47.3999 37.8072 47.3423 37.8007 47.2873 37.8133C47.2323 37.8259 47.1831 37.8569 47.1477 37.9013C47.1122 37.9457 47.0926 38.0009 47.0921 38.0579C47.0915 38.1149 47.11 38.1705 47.1445 38.2156C47.179 38.2607 47.2276 38.2928 47.2823 38.3065C47.3371 38.3202 47.3948 38.3149 47.4462 38.2913L47.6028 38.4199C47.5853 38.4746 47.5801 38.5326 47.5877 38.5896C47.5952 38.6465 47.6153 38.7011 47.6465 38.7492C47.6776 38.7973 47.719 38.8377 47.7676 38.8675C47.8163 38.8973 47.8709 38.9157 47.9274 38.9213L47.9623 39.1173C47.9224 39.1525 47.8945 39.1995 47.8826 39.2517C47.8707 39.3039 47.8754 39.3585 47.8961 39.4078C47.9168 39.4571 47.9523 39.4985 47.9977 39.5261C48.043 39.5538 48.0959 39.5662 48.1486 39.5616C48.2014 39.5571 48.2513 39.5358 48.2914 39.5008C48.3314 39.4657 48.3595 39.4188 48.3716 39.3667C48.3837 39.3146 48.3792 39.2599 48.3587 39.2105C48.3382 39.1612 48.3028 39.1196 48.2576 39.0918C48.2339 39.0776 48.2081 39.0674 48.1811 39.0618L48.1481 38.876C48.1952 38.8498 48.2363 38.8139 48.2687 38.7705C48.3011 38.7271 48.324 38.6772 48.3359 38.6242L48.5564 38.625C48.5783 38.6775 48.617 38.721 48.6663 38.7485C48.7157 38.776 48.7727 38.786 48.8283 38.7767C48.8839 38.7675 48.9348 38.7396 48.9728 38.6975C49.0108 38.6555 49.0337 38.6017 49.0378 38.5449C49.0419 38.4881 49.027 38.4315 48.9955 38.3843C48.9639 38.3371 48.9176 38.302 48.8639 38.2847C48.8102 38.2674 48.7524 38.2688 48.6996 38.2888C48.6469 38.3087 48.6023 38.3461 48.5731 38.3948C48.5731 38.3955 48.5722 38.3964 48.5717 38.3971L48.3188 38.3963C48.2883 38.3188 48.2336 38.2536 48.163 38.2104C48.1533 38.2045 48.1434 38.199 48.1334 38.1941L48.2212 38.0146C48.2991 38.0326 48.3806 38.0253 48.4542 37.9939C48.5277 37.9624 48.5896 37.9083 48.6311 37.8393C48.644 37.8179 48.6547 37.7954 48.6632 37.7719L49.1422 37.6486C49.1699 37.7196 49.2181 37.7805 49.2804 37.8234C49.3428 37.8663 49.4165 37.8892 49.4919 37.8892C49.5673 37.8892 49.641 37.8663 49.7034 37.8234C49.7657 37.7805 49.8139 37.7196 49.8415 37.6486L50.3205 37.7719C50.3524 37.8598 50.4149 37.9329 50.4963 37.9776C50.5777 38.0223 50.6724 38.0354 50.7627 38.0146L50.8505 38.1941C50.8405 38.199 50.8306 38.2045 50.8209 38.2104C50.7503 38.2536 50.6956 38.3188 50.665 38.3963L50.4123 38.3971C50.4123 38.3964 50.4115 38.3955 50.411 38.3948C50.3817 38.3458 50.3371 38.3083 50.2842 38.2882C50.2312 38.268 50.1732 38.2665 50.1193 38.2838C50.0654 38.3011 50.0189 38.3363 49.9872 38.3836C49.9555 38.431 49.9405 38.4877 49.9446 38.5448C49.9487 38.6018 49.9716 38.6557 50.0098 38.698C50.0479 38.7402 50.099 38.7682 50.1548 38.7774C50.2105 38.7867 50.2678 38.7767 50.3173 38.749C50.3668 38.7214 50.4056 38.6777 50.4275 38.625L50.648 38.6242C50.6598 38.6772 50.6826 38.727 50.7148 38.7703C50.747 38.8137 50.7879 38.8497 50.8348 38.876L50.8018 39.0618C50.7468 39.0742 50.6976 39.1049 50.662 39.1491C50.6264 39.1933 50.6067 39.2483 50.6058 39.3052C50.605 39.3622 50.6232 39.4177 50.6574 39.4629C50.6916 39.5082 50.74 39.5404 50.7945 39.5544C50.8491 39.5684 50.9068 39.5634 50.9582 39.5402C51.0097 39.517 51.0519 39.477 51.078 39.4265C51.1041 39.3761 51.1127 39.3182 51.1023 39.2622C51.0919 39.2063 51.0632 39.1555 51.0207 39.118L51.0556 38.9221C51.1122 38.9164 51.1668 38.898 51.2154 38.8682C51.264 38.8384 51.3054 38.798 51.3366 38.7499C51.3677 38.7018 51.3878 38.6473 51.3954 38.5903C51.4029 38.5333 51.3978 38.4754 51.3803 38.4207L51.5368 38.2921C51.5762 38.3101 51.6196 38.3176 51.6627 38.3137C51.7058 38.3098 51.7471 38.2948 51.7828 38.27C51.8184 38.2452 51.8471 38.2115 51.8661 38.1721C51.885 38.1328 51.8936 38.0892 51.891 38.0455C51.8884 38.0019 51.8747 37.9596 51.8511 37.9229C51.8276 37.8862 51.7951 37.8562 51.7568 37.8359C51.7185 37.8157 51.6756 37.8057 51.6324 37.8072C51.5891 37.8086 51.547 37.8213 51.51 37.844L51.5099 37.8439ZM50.4797 37.3103C50.3975 37.3606 50.3372 37.4407 50.3112 37.5343L49.8579 37.4177C49.8387 37.334 49.7919 37.2593 49.7254 37.2058C49.6588 37.1524 49.5763 37.1233 49.4913 37.1233C49.4063 37.1233 49.3238 37.1524 49.2572 37.2058C49.1906 37.2593 49.1439 37.334 49.1246 37.4177L48.6713 37.5343C48.6559 37.4794 48.6287 37.4287 48.5916 37.3859C48.5544 37.343 48.5084 37.309 48.4567 37.2863C48.4049 37.2636 48.3489 37.2528 48.2926 37.2547C48.2362 37.2565 48.181 37.2711 48.1309 37.2971L47.7504 36.9817C47.7633 36.9257 47.7633 36.8675 47.7504 36.8115L48.1309 36.4962C48.181 36.5224 48.2363 36.5369 48.2926 36.5388C48.349 36.5408 48.4051 36.53 48.4568 36.5073C48.5086 36.4846 48.5547 36.4506 48.5918 36.4076C48.629 36.3647 48.6562 36.314 48.6716 36.2591L49.1248 36.3758C49.1441 36.4595 49.1908 36.5342 49.2574 36.5876C49.324 36.6411 49.4065 36.6702 49.4915 36.6702C49.5765 36.6702 49.659 36.6411 49.7256 36.5876C49.7922 36.5342 49.8389 36.4595 49.8582 36.3758L50.3115 36.2591C50.3267 36.314 50.3539 36.3649 50.391 36.4079C50.4281 36.4509 50.4742 36.485 50.526 36.5077C50.5778 36.5304 50.6339 36.5411 50.6904 36.5392C50.7468 36.5372 50.802 36.5225 50.8521 36.4962L51.2328 36.8115C51.2197 36.8675 51.2197 36.9258 51.2328 36.9817L50.8521 37.297C50.7942 37.2667 50.7295 37.252 50.6642 37.2543C50.599 37.2566 50.5355 37.2759 50.4798 37.3103H50.4797Z" fill="white" /> </g> <path d="M49.5999 76.8472C49.5776 76.8931 49.5134 76.8961 49.487 76.8525C49.273 76.4994 49.1415 76.1025 49.1024 75.6914L49.0846 75.5044L50.012 75.5044L49.8897 76.1469C49.8683 76.2591 49.8322 76.368 49.7824 76.4708L49.5999 76.8472Z" fill="white" /> <defs> <clipPath id="logo-clipPath0"> <rect width="3.13024" height="14.26" fill="white" transform="translate(47.9252 48.0278)" /> </clipPath> <clipPath id="logo-clipPath1"> <rect width="3.13024" height="14.26" fill="white" transform="translate(47.9252 60.3169)" /> </clipPath> <clipPath id="logo-clipPath2"> <rect width="4.9852" height="5.333" fill="white" transform="translate(46.9977 39.5647)" /> </clipPath> <clipPath id="logo-clipPath3"> <rect width="4.9852" height="5.333" fill="white" transform="translate(46.9977 34.2317)" /> </clipPath> </defs> </svg>
