<svg width="547" height="574" viewBox="0 0 547 574" fill="none" xmlns="http://www.w3.org/2000/svg">
<g clip-path="url(#clip0)" filter="url(#filter0_f)">
<path d="M462.162 352.791C457.94 355.397 454.625 359.273 452.679 363.879C450.733 368.485 450.253 373.591 451.305 378.486L437.56 389.794C432.982 386.225 427.623 383.826 421.936 382.8L409.849 358.115C414.913 352.553 418.142 345.53 419.088 338.022C420.034 330.515 418.649 322.896 415.127 316.222L446.839 289.868C451.992 294.621 458.397 297.755 465.275 298.888C472.153 300.021 479.207 299.104 485.581 296.25C491.954 293.395 497.371 288.725 501.174 282.808C504.977 276.891 507.002 269.982 507.002 262.921C507.002 255.859 504.977 248.95 501.174 243.033C497.371 237.116 491.954 232.447 485.581 229.592C479.207 226.737 472.153 225.821 465.275 226.954C458.397 228.087 451.992 231.22 446.839 235.973L415.15 209.655C418.664 202.979 420.043 195.361 419.098 187.856C418.152 180.351 414.929 173.329 409.872 167.761L421.959 143.077C427.64 142.034 432.99 139.623 437.56 136.048L451.305 147.355C450.174 152.649 450.839 158.174 453.191 163.037C455.543 167.9 459.445 171.817 464.266 174.154C469.087 176.49 474.545 177.111 479.758 175.914C484.97 174.717 489.631 171.774 492.988 167.56C496.344 163.345 498.2 158.107 498.254 152.691C498.308 147.276 496.558 142 493.286 137.717C490.015 133.435 485.413 130.396 480.226 129.093C475.039 127.789 469.569 128.297 464.702 130.535L449.878 118.333C451.533 113.143 452.019 107.644 451.302 102.238C450.585 96.8325 448.683 91.6582 445.735 87.0949C442.787 82.5316 438.868 78.6951 434.266 75.8669C429.664 73.0387 424.496 71.2905 419.14 70.7508L415.834 52.1551C417.66 50.529 419.225 48.6256 420.474 46.5128C423.101 42.1484 424.291 37.0511 423.874 31.9566C423.456 26.862 421.452 22.0336 418.151 18.1683C414.849 14.3029 410.421 11.6004 405.506 10.4508C400.591 9.30124 395.442 9.764 390.803 11.7723C386.164 13.7806 382.274 17.2307 379.696 21.6245C377.117 26.0184 375.983 31.1288 376.457 36.2183C376.931 41.3078 378.988 46.1133 382.331 49.9411C385.675 53.7689 390.132 56.4212 395.06 57.5151L398.192 75.147C393.727 77.6275 389.834 81.0405 386.768 85.1601C383.703 89.2798 381.536 94.0122 380.41 99.0441L359.531 98.9736C357.456 93.9975 353.789 89.8739 349.119 87.2667C344.45 84.6596 339.051 83.7206 333.792 84.6008C328.532 85.4811 323.718 88.1294 320.124 92.1195C316.53 96.1095 314.366 101.209 313.979 106.597C313.593 111.985 315.007 117.348 317.994 121.823C320.981 126.298 325.367 129.623 330.446 131.265C335.525 132.906 341.001 132.768 345.993 130.872C350.985 128.976 355.202 125.433 357.965 120.814C357.965 120.743 358.035 120.661 358.093 120.579L382.022 120.673C384.916 128.021 390.096 134.211 396.777 138.304C397.693 138.869 398.633 139.374 399.584 139.856L391.371 156.853C382.824 154.879 373.86 156.128 366.155 160.366C358.45 164.605 352.533 171.542 349.509 179.88L304.168 191.6C301.547 184.868 296.989 179.09 291.085 175.018C285.181 170.947 278.205 168.769 271.063 168.769C263.922 168.769 256.946 170.947 251.042 175.018C245.138 179.09 240.579 184.868 237.959 191.6L192.605 179.916C189.588 171.57 183.674 164.625 175.968 160.38C168.263 156.135 159.295 154.881 150.743 156.853L142.427 139.821C143.378 139.339 144.317 138.845 145.234 138.269C151.913 134.175 157.093 127.984 159.988 120.637L183.929 120.543C183.929 120.626 184.01 120.708 184.057 120.778C186.826 125.424 191.059 128.989 196.072 130.898C201.086 132.807 206.588 132.95 211.691 131.303C216.794 129.657 221.202 126.316 224.202 121.82C227.203 117.325 228.622 111.936 228.231 106.523C227.84 101.11 225.662 95.9883 222.047 91.9834C218.433 87.9785 213.592 85.3239 208.307 84.4477C203.021 83.5715 197.598 84.5246 192.913 87.1535C188.227 89.7824 184.552 93.9338 182.479 98.9383L161.6 99.0089C160.483 93.98 158.325 89.2485 155.27 85.1271C152.215 81.0057 148.332 77.5881 143.877 75.1L147.008 57.4681C152.228 56.3005 156.906 53.3831 160.287 49.1877C163.668 44.9923 165.554 39.764 165.64 34.3481C165.726 28.9321 164.007 23.645 160.761 19.3415C157.515 15.038 152.932 11.9696 147.752 10.6324C142.572 9.29519 137.099 9.76726 132.217 11.9723C127.335 14.1774 123.329 17.9866 120.848 22.784C118.366 27.5815 117.553 33.0869 118.541 38.4103C119.529 43.7336 122.26 48.5637 126.292 52.1198L122.975 70.7508C117.619 71.2905 112.45 73.0387 107.848 75.8669C103.246 78.6951 99.3276 82.5316 96.3797 87.0949C93.4318 91.6582 91.5296 96.8325 90.8126 102.238C90.0956 107.644 90.5821 113.143 92.2363 118.333L77.4124 130.535C72.5386 128.29 67.0599 127.777 61.8629 129.08C56.666 130.383 52.0549 133.425 48.7761 137.714C45.4972 142.002 43.7424 147.287 43.7957 152.712C43.849 158.137 45.7072 163.385 49.0697 167.606C52.4321 171.828 57.102 174.777 62.3235 175.974C67.545 177.172 73.0126 176.549 77.8413 174.206C82.6701 171.864 86.5774 167.938 88.9309 163.065C91.2844 158.192 91.9463 152.657 90.8096 147.355L104.555 136.048C109.141 139.609 114.503 142.004 120.191 143.03L132.266 167.714C127.212 173.283 123.991 180.305 123.045 187.81C122.1 195.314 123.478 202.931 126.988 209.608L95.2986 235.973C90.1455 231.22 83.7407 228.087 76.8629 226.954C69.9851 225.821 62.9306 226.737 56.5573 229.592C50.184 232.447 44.7665 237.116 40.9635 243.033C37.1605 248.95 35.136 255.859 35.136 262.921C35.136 269.982 37.1605 276.891 40.9635 282.808C44.7665 288.725 50.184 293.395 56.5573 296.25C62.9306 299.104 69.9851 300.021 76.8629 298.888C83.7407 297.755 90.1455 294.621 95.2986 289.868L126.988 316.175C123.478 322.852 122.1 330.469 123.045 337.973C123.991 345.478 127.212 352.499 132.266 358.068L120.191 382.753C114.501 383.781 109.139 386.18 104.555 389.747L90.8096 378.427C91.9386 373.137 91.2735 367.615 88.9219 362.755C86.5704 357.896 82.6698 353.982 77.8512 351.647C73.0326 349.312 67.5776 348.693 62.3685 349.889C57.1594 351.085 52.5008 354.027 49.1462 358.239C45.7916 362.451 43.937 367.686 43.8826 373.099C43.8281 378.511 45.5769 383.784 48.846 388.064C52.1152 392.344 56.7136 395.382 61.8975 396.686C67.0814 397.99 72.5478 397.483 77.4124 395.248L92.2363 407.449C90.5797 412.639 90.0914 418.139 90.8075 423.544C91.5235 428.95 93.4256 434.125 96.3741 438.688C99.3225 443.251 103.242 447.086 107.846 449.913C112.449 452.739 117.618 454.484 122.975 455.02L126.28 473.616C122.5 476.953 119.858 481.415 118.732 486.365C117.606 491.316 118.053 496.5 120.009 501.177C121.966 505.854 125.332 509.785 129.625 512.407C133.919 515.028 138.921 516.207 143.916 515.775C148.91 515.342 153.642 513.32 157.435 509.998C161.227 506.675 163.886 502.223 165.03 497.277C166.175 492.332 165.748 487.146 163.809 482.461C161.87 477.776 158.519 473.833 154.235 471.195C151.994 469.846 149.548 468.885 146.997 468.35L143.865 450.718C148.328 448.239 152.221 444.828 155.287 440.71C158.352 436.593 160.52 431.863 161.647 426.833L182.526 426.903C184.598 431.884 188.265 436.013 192.935 438.625C197.605 441.237 203.006 442.18 208.269 441.303C213.533 440.425 218.352 437.778 221.95 433.788C225.548 429.798 227.717 424.697 228.106 419.306C228.495 413.915 227.083 408.548 224.096 404.069C221.11 399.591 216.723 396.261 211.642 394.616C206.56 392.972 201.081 393.108 196.086 395.003C191.09 396.898 186.869 400.442 184.103 405.063C184.103 405.134 184.022 405.216 183.975 405.287L160.034 405.204C157.142 397.855 151.962 391.664 145.28 387.572C144.364 387.008 143.424 386.491 142.473 386.021L150.79 368.988C158.163 370.695 165.879 370.007 172.845 367.022C179.811 364.037 185.673 358.905 189.601 352.356C190.819 350.33 191.837 348.189 192.64 345.961L237.993 334.265C240.614 340.997 245.172 346.775 251.076 350.847C256.98 354.918 263.957 357.096 271.098 357.096C278.239 357.096 285.216 354.918 291.12 350.847C297.024 346.775 301.582 340.997 304.202 334.265L349.556 345.961C352.575 354.303 358.492 361.243 366.198 365.482C373.904 369.721 382.87 370.967 391.418 368.988L399.735 386.021C398.783 386.491 397.844 387.008 396.928 387.572C390.245 391.663 385.064 397.854 382.173 405.204L358.244 405.287C358.244 405.216 358.163 405.134 358.116 405.063C355.349 400.42 351.12 396.855 346.11 394.945C341.101 393.035 335.602 392.89 330.501 394.534C325.4 396.178 320.994 399.514 317.993 404.006C314.991 408.497 313.57 413.882 313.958 419.292C314.346 424.702 316.52 429.823 320.131 433.827C323.741 437.832 328.577 440.488 333.859 441.367C339.141 442.247 344.561 441.298 349.246 438.674C353.931 436.05 357.607 431.903 359.682 426.903L380.561 426.833C381.677 431.854 383.831 436.579 386.88 440.696C389.929 444.813 393.804 448.229 398.25 450.718L395.118 468.35C389.913 469.525 385.251 472.443 381.885 476.633C378.518 480.824 376.644 486.042 376.565 491.445C376.486 496.848 378.206 502.121 381.449 506.411C384.691 510.701 389.266 513.758 394.434 515.088C399.602 516.419 405.061 515.945 409.931 513.744C414.801 511.542 418.796 507.741 421.271 502.955C423.747 498.169 424.557 492.677 423.573 487.366C422.589 482.056 419.866 477.236 415.846 473.687L419.152 455.091C424.508 454.555 429.678 452.81 434.281 449.983C438.884 447.157 442.804 443.321 445.752 438.758C448.701 434.195 450.603 429.021 451.319 423.615C452.035 418.209 451.547 412.709 449.89 407.52L464.714 395.319C468.445 397.032 472.549 397.739 476.629 397.371C480.709 397.003 484.626 395.573 488 393.219C491.374 390.866 494.091 387.668 495.886 383.937C497.681 380.206 498.495 376.068 498.247 371.925C498 367.782 496.699 363.773 494.473 360.289C492.247 356.805 489.169 353.963 485.54 352.039C481.91 350.115 477.852 349.174 473.758 349.308C469.664 349.442 465.673 350.645 462.174 352.802L462.162 352.791ZM364.623 302.164C356.837 306.939 351.135 314.537 348.674 323.416L305.757 312.355C303.932 304.41 299.508 297.326 293.204 292.254C286.901 287.182 279.089 284.421 271.04 284.421C262.991 284.421 255.179 287.182 248.876 292.254C242.572 297.326 238.148 304.41 236.323 312.355L193.406 323.416C191.948 318.214 189.369 313.404 185.855 309.335C182.34 305.266 177.977 302.038 173.082 299.886C168.187 297.733 162.88 296.709 157.547 296.887C152.213 297.066 146.986 298.442 142.241 300.918L106.214 270.99C107.431 265.677 107.431 260.152 106.214 254.84L142.241 224.924C146.986 227.406 152.217 228.788 157.553 228.969C162.89 229.151 168.2 228.128 173.099 225.975C177.998 223.822 182.364 220.592 185.88 216.519C189.396 212.446 191.974 207.633 193.429 202.426L236.346 213.499C238.171 221.443 242.595 228.528 248.899 233.599C255.202 238.671 263.014 241.432 271.063 241.432C279.112 241.432 286.924 238.671 293.228 233.599C299.531 228.528 303.955 221.443 305.78 213.499L348.698 202.426C350.141 207.64 352.713 212.463 356.227 216.543C359.741 220.623 364.108 223.858 369.011 226.013C373.914 228.168 379.229 229.188 384.569 229C389.91 228.811 395.142 227.419 399.885 224.924L435.924 254.84C434.688 260.15 434.688 265.68 435.924 270.99L399.885 300.906C394.398 298.029 388.272 296.633 382.098 296.854C375.923 297.074 369.909 298.903 364.635 302.164H364.623Z" fill="#0066CC" fill-opacity="0.16"/>
</g>
<path d="M545.943 118.95C542.792 112.648 529.46 107.921 515.28 105.982C501.099 104.043 470.073 109.497 468.497 109.497C466.921 109.497 428.38 119.677 416.139 121.253C403.898 122.828 341.723 124.04 338.209 124.04C334.694 124.04 311.06 127.919 301.243 131.918C301.243 131.918 302.576 122.222 292.153 114.829C289.123 112.648 288.638 111.557 289.366 110.709C295.789 111.436 320.514 114.223 323.422 112.89C326.816 111.315 318.09 83.5602 314.939 79.803C311.787 76.0459 316.151 71.3191 316.878 70.592C317.605 69.8648 318.09 61.7445 317.12 59.3205C316.151 57.0177 316.151 67.8044 315.181 69.986C314.211 72.1675 309.485 76.0459 311.303 78.2275C313.121 80.409 322.938 102.588 321.483 106.345C320.392 109.133 305.243 108.042 297.971 107.315C300.152 106.224 301.97 104.649 302.455 102.104C304.516 92.6501 294.82 83.8026 290.941 80.5302C287.063 77.2579 289.123 73.6219 287.427 70.4708C285.851 67.562 274.701 68.774 273.368 69.0164C272.034 68.8952 260.884 67.562 259.309 70.4708C257.612 73.6219 259.551 77.2579 255.794 80.5302C251.915 83.8026 242.22 92.6501 244.28 102.104C244.886 104.649 246.704 106.224 248.764 107.315C241.492 108.042 226.343 109.133 225.252 106.345C223.919 102.588 233.736 80.409 235.432 78.2275C237.25 76.0459 232.524 72.1675 231.554 69.986C230.584 67.8044 230.584 57.0177 229.615 59.3205C228.645 61.6233 229.009 69.7436 229.857 70.592C230.584 71.3191 234.948 76.0459 231.796 79.803C228.645 83.5602 220.04 111.315 223.313 112.89C226.221 114.223 250.946 111.436 257.369 110.709C258.097 111.557 257.612 112.648 254.582 114.829C244.28 122.222 245.492 131.918 245.492 131.918C235.675 128.04 212.041 124.04 208.526 124.04C205.012 124.04 142.837 122.828 130.596 121.253C118.355 119.677 79.8137 109.497 78.2381 109.497C76.6625 109.497 45.6357 104.043 31.4555 105.982C17.2753 107.921 3.9435 112.648 0.792337 118.95C-2.35882 125.252 4.30709 133.494 13.397 139.433C22.4868 145.371 78.3593 166.945 95.2059 172.52C112.174 177.974 148.776 182.337 169.985 181.125C191.195 179.913 235.675 170.096 240.402 170.459C245.128 170.823 247.431 169.732 240.765 173.974C234.099 178.337 171.076 194.82 151.078 200.395C130.959 205.849 82.9649 210.213 68.7846 213C54.6044 215.788 23.9412 232.271 19.2145 236.27C14.4878 240.149 6.60986 252.39 24.3048 261.843C41.9998 271.296 102.599 272.024 119.082 273.236C135.565 274.448 189.498 270.448 220.646 264.146C251.794 257.843 255.309 250.329 259.551 245.602C263.914 240.876 263.066 228.15 263.066 228.15C263.066 228.15 264.035 222.696 264.641 234.21C265.247 245.845 263.308 249.966 262.096 257.601C262.096 257.601 261.854 257.715 262.096 261.23C262.096 261.836 269.004 260.873 269.004 260.873C269.004 260.873 266.29 258.813 264.472 257.601C262.654 256.389 262.096 257.601 262.096 257.601C267.186 256.025 262.096 261.23 262.096 261.23C261.914 261.472 281.124 262.085 284.76 260.267C282.942 257.237 281.003 245.845 281.609 234.21C282.215 222.575 283.185 228.15 283.185 228.15C283.185 228.15 282.457 240.997 286.699 245.602C291.062 250.329 294.577 257.843 325.604 264.146C356.752 270.448 410.564 274.326 427.168 273.236C443.651 272.024 504.25 271.296 521.945 261.843C539.64 252.39 531.763 240.149 527.036 236.27C522.309 232.392 491.646 215.788 477.466 213C463.285 210.213 415.291 205.971 395.172 200.395C375.053 194.942 312.151 178.337 305.485 173.974C298.819 169.611 301.122 170.823 305.849 170.459C310.575 170.096 355.055 179.913 376.265 181.125C397.475 182.337 434.077 177.974 451.044 172.52C468.012 167.066 523.763 145.371 532.853 139.433C542.428 133.494 549.094 125.252 545.943 118.95Z" fill="#0066CC"/>
<g clip-path="url(#clip1)">
<path d="M281.994 263.034C281.904 264.037 281.777 265.026 281.613 265.994H264.995C264.831 265.026 264.704 264.037 264.614 263.034H281.994Z" fill="#0066CC"/>
<path d="M280.971 269.103C280.715 270.128 280.421 271.117 280.091 272.063H266.52C266.19 271.117 265.896 270.128 265.64 269.103H280.971Z" fill="#0066CC"/>
<path d="M278.883 275.165C278.429 276.2 277.948 277.188 277.44 278.125H269.161C268.654 277.186 268.173 276.198 267.718 275.165H278.883Z" fill="#0066CC"/>
<path d="M275.644 281.235C275.026 282.235 274.382 283.21 273.713 284.195H272.899C272.228 283.211 271.583 282.225 270.965 281.235H275.644Z" fill="#0066CC"/>
<path d="M276.076 297.946H270.535L270.737 297.658C271.358 296.778 272.007 295.876 272.647 294.986H273.96C274.604 295.876 275.25 296.778 275.876 297.658L276.076 297.946Z" fill="#0066CC"/>
<path d="M279.74 304.009H266.876C267.436 302.942 267.996 301.951 268.541 301.049H278.079C278.621 301.958 279.18 302.942 279.74 304.009Z" fill="#0066CC"/>
<path d="M282.505 310.078H264.107C264.508 309.049 264.932 308.058 265.353 307.118H281.256C281.682 308.058 282.102 309.043 282.505 310.078Z" fill="#0066CC"/>
<path d="M284.496 316.14H262.118C262.389 315.127 262.682 314.133 262.995 313.18H283.616C283.928 314.133 284.222 315.124 284.496 316.14Z" fill="#0066CC"/>
<path d="M285.758 322.209H260.848C261 321.206 261.178 320.218 261.382 319.249H285.229C285.432 320.217 285.608 321.205 285.758 322.209Z" fill="#0066CC"/>
<path d="M286.336 328.272H260.277C260.316 327.279 260.38 326.291 260.47 325.312H286.138C286.231 326.291 286.298 327.279 286.336 328.272Z" fill="#0066CC"/>
<path d="M286.361 331.371C286.344 332.362 286.3 333.35 286.229 334.331H260.378C260.306 333.35 260.261 332.362 260.244 331.371H286.361Z" fill="#0066CC"/>
<path d="M285.917 337.44C285.789 338.442 285.633 339.43 285.449 340.4H261.158C260.976 339.429 260.82 338.441 260.69 337.44H285.917Z" fill="#0066CC"/>
<path d="M284.724 343.746L284.519 344.503C284.458 344.747 284.392 344.99 284.323 345.228C284.207 345.642 284.087 346.057 283.964 346.462H262.635C262.346 345.513 262.072 344.515 261.824 343.502L284.724 343.746Z" fill="#0066CC"/>
<path d="M282.932 349.571C282.553 350.599 282.161 351.585 281.755 352.531H264.856C264.451 351.583 264.058 350.597 263.679 349.571H282.932Z" fill="#0066CC"/>
<path d="M280.318 355.634L280.098 356.077C279.643 356.967 279.187 357.802 278.739 358.594H267.872C267.35 357.676 266.818 356.694 266.293 355.634H280.318Z" fill="#0066CC"/>
<path d="M276.835 361.702C276.505 362.206 276.175 362.68 275.874 363.117C275.516 363.636 275.144 364.152 274.775 364.665H271.837C271.462 364.156 271.095 363.63 270.732 363.117C270.427 362.68 270.106 362.215 269.774 361.702H276.835Z" fill="#0066CC"/>
<path d="M274.928 379.155H271.681C272.207 378.342 272.752 377.541 273.306 376.737C273.863 377.543 274.404 378.349 274.928 379.155Z" fill="#0066CC"/>
<path d="M278.361 385.218H268.246C268.725 384.211 269.241 383.225 269.795 382.258H276.818C277.365 383.227 277.882 384.211 278.361 385.218Z" fill="#0066CC"/>
<path d="M280.666 391.287H265.941C266.232 390.26 266.558 389.271 266.917 388.327H279.689C280.048 389.271 280.375 390.26 280.666 391.287Z" fill="#0066CC"/>
<path d="M281.877 397.349H264.733C264.851 396.343 265.007 395.354 265.198 394.389H281.407C281.6 395.353 281.757 396.342 281.877 397.349Z" fill="#0066CC"/>
<path d="M263.607 255.947C263.901 259.81 262.635 263.606 263.432 267.198C264.235 270.736 265.318 274.015 266.643 276.92C267.964 279.823 269.434 282.465 271.03 284.806C272.621 287.181 274.284 289.4 275.985 291.53C277.733 293.705 279.389 296.139 280.939 298.812C282.507 301.494 283.935 304.463 285.203 307.676C286.49 310.947 287.531 314.549 288.296 318.376C289.879 326.178 289.879 334.834 288.296 342.636C287.533 346.455 286.495 350.052 285.212 353.32C283.944 356.534 282.515 359.502 280.947 362.185C279.398 364.858 277.742 367.292 275.993 369.466C274.29 371.597 272.627 373.813 271.039 376.19C269.442 378.531 267.972 381.173 266.651 384.076C265.326 386.98 264.244 390.258 263.441 393.795C262.641 397.385 262.085 401.158 261.789 405.021L261.918 402.083C261.976 401.105 262.068 400.136 262.143 399.158C262.217 398.18 262.371 397.233 262.483 396.264C262.595 395.296 262.785 394.365 262.935 393.415C263.63 389.64 264.633 386.101 265.908 382.93C268.463 376.586 271.795 371.641 275.141 367.088C278.404 362.603 281.436 357.423 283.728 351.244C284.885 348.207 285.824 344.886 286.519 341.37C287.887 334.357 287.887 326.633 286.519 319.621C285.823 316.104 284.885 312.782 283.729 309.743C281.431 303.564 278.401 298.381 275.142 293.895C271.797 289.352 268.464 284.398 265.91 278.041C264.635 274.872 263.631 271.333 262.937 267.559C262.787 266.609 262.607 265.66 262.485 264.71C262.362 263.76 262.232 262.791 262.144 261.816C262.057 260.841 262.204 259.762 262.144 258.784L263.607 255.947Z" fill="#0066CC"/>
<path d="M284.638 405.099C284.342 401.235 283.787 397.461 282.987 393.87C282.183 390.332 281.1 387.053 279.775 384.148C278.452 381.245 276.982 378.603 275.385 376.262C273.795 373.888 272.132 371.668 270.431 369.538C268.683 367.363 267.026 364.929 265.477 362.256C263.909 359.574 262.48 356.605 261.212 353.392C259.927 350.12 258.889 346.518 258.128 342.692C256.545 334.889 256.545 326.232 258.128 318.429C258.891 314.61 259.929 311.013 261.212 307.745C262.48 304.532 263.909 301.563 265.477 298.88C267.026 296.207 268.682 293.773 270.431 291.599C272.134 289.468 273.797 287.252 275.385 284.875C276.982 282.535 278.453 279.894 279.775 276.992C281.1 274.089 282.184 270.811 282.988 267.273C283.789 263.676 282.705 259.817 282.999 255.947L284.509 258.963C284.451 259.941 284.359 260.91 284.285 261.888C284.21 262.866 284.057 263.813 283.944 264.782C283.832 265.75 283.642 266.681 283.492 267.631C282.797 271.406 281.794 274.945 280.519 278.116C277.963 284.489 274.629 289.427 271.283 293.97C268.019 298.447 264.985 303.629 262.688 309.812C261.531 312.848 260.592 316.169 259.897 319.686C258.529 326.699 258.529 334.422 259.897 341.435C260.592 344.953 261.53 348.276 262.686 351.315C264.985 357.495 268.017 362.677 271.273 367.163C274.619 371.706 277.951 376.661 280.508 383.018C281.783 386.187 282.786 389.725 283.48 393.5C283.631 394.449 283.811 395.399 283.933 396.349C284.055 397.299 284.185 398.27 284.273 399.242C284.36 400.214 284.438 401.189 284.498 402.168L284.638 405.099Z" fill="#0066CC"/>
</g>
<g clip-path="url(#clip2)">
<path d="M281.994 399.99C281.904 400.993 281.777 401.982 281.613 402.95H264.995C264.831 401.982 264.704 400.993 264.614 399.99H281.994Z" fill="#0066CC"/>
<path d="M280.971 406.058C280.715 407.084 280.421 408.073 280.091 409.018H266.52C266.19 408.073 265.896 407.084 265.64 406.058H280.971Z" fill="#0066CC"/>
<path d="M278.883 412.121C278.429 413.156 277.948 414.144 277.44 415.081H269.161C268.654 414.142 268.173 413.154 267.718 412.121H278.883Z" fill="#0066CC"/>
<path d="M275.644 418.19C275.026 419.19 274.382 420.165 273.713 421.15H272.899C272.228 420.166 271.583 419.18 270.965 418.19H275.644Z" fill="#0066CC"/>
<path d="M276.076 434.902H270.535L270.737 434.614C271.358 433.734 272.007 432.832 272.647 431.942H273.96C274.604 432.832 275.25 433.734 275.876 434.614L276.076 434.902Z" fill="#0066CC"/>
<path d="M279.74 440.965H266.876C267.436 439.898 267.996 438.907 268.541 438.005H278.079C278.621 438.913 279.18 439.898 279.74 440.965Z" fill="#0066CC"/>
<path d="M282.505 447.033H264.107C264.508 446.004 264.932 445.014 265.353 444.073H281.256C281.682 445.014 282.102 445.998 282.505 447.033Z" fill="#0066CC"/>
<path d="M284.496 453.095H262.118C262.389 452.082 262.682 451.088 262.995 450.135H283.616C283.928 451.088 284.222 452.079 284.496 453.095Z" fill="#0066CC"/>
<path d="M285.758 459.165H260.848C261 458.161 261.178 457.173 261.382 456.204H285.229C285.432 457.173 285.608 458.161 285.758 459.165Z" fill="#0066CC"/>
<path d="M286.336 465.227H260.277C260.316 464.235 260.38 463.247 260.47 462.267H286.138C286.231 463.246 286.298 464.234 286.336 465.227Z" fill="#0066CC"/>
<path d="M286.361 468.326C286.344 469.317 286.3 470.305 286.229 471.286H260.378C260.306 470.305 260.261 469.317 260.244 468.326H286.361Z" fill="#0066CC"/>
<path d="M285.917 474.395C285.789 475.398 285.633 476.386 285.449 477.355H261.158C260.976 476.385 260.82 475.397 260.69 474.395H285.917Z" fill="#0066CC"/>
<path d="M284.724 480.701L284.519 481.458C284.458 481.702 284.392 481.945 284.323 482.183C284.207 482.598 284.087 483.012 283.964 483.417H262.635C262.346 482.468 262.072 481.471 261.824 480.457L284.724 480.701Z" fill="#0066CC"/>
<path d="M282.932 486.527C282.553 487.554 282.161 488.541 281.755 489.487H264.856C264.451 488.539 264.058 487.552 263.679 486.527H282.932Z" fill="#0066CC"/>
<path d="M280.318 492.589L280.098 493.033C279.643 493.922 279.187 494.758 278.739 495.549H267.872C267.35 494.631 266.818 493.65 266.293 492.589H280.318Z" fill="#0066CC"/>
<path d="M276.835 498.658C276.505 499.161 276.175 499.636 275.874 500.073C275.516 500.592 275.144 501.108 274.775 501.621H271.837C271.462 501.111 271.095 500.586 270.732 500.073C270.427 499.636 270.106 499.171 269.774 498.658H276.835Z" fill="#0066CC"/>
<path d="M274.928 516.111H271.681C272.207 515.297 272.752 514.496 273.306 513.692C273.863 514.499 274.404 515.305 274.928 516.111Z" fill="#0066CC"/>
<path d="M278.361 522.173H268.246C268.725 521.166 269.241 520.18 269.795 519.213H276.818C277.365 520.182 277.882 521.166 278.361 522.173Z" fill="#0066CC"/>
<path d="M280.666 528.242H265.941C266.232 527.215 266.558 526.226 266.917 525.282H279.689C280.048 526.226 280.375 527.215 280.666 528.242Z" fill="#0066CC"/>
<path d="M281.877 534.305H264.733C264.851 533.298 265.007 532.309 265.198 531.345H281.407C281.6 532.309 281.757 533.298 281.877 534.305Z" fill="#0066CC"/>
<path d="M261.976 392.981C262.27 396.844 262.822 400.618 263.619 404.21C264.422 407.747 265.505 411.027 266.83 413.932C268.151 416.835 269.621 419.476 271.217 421.818C272.808 424.192 274.471 426.411 276.172 428.542C277.92 430.716 279.576 433.151 281.126 435.823C282.694 438.506 284.122 441.474 285.389 444.687C286.677 447.958 287.718 451.561 288.483 455.388C290.066 463.19 290.066 471.845 288.483 479.647C287.72 483.467 286.682 487.063 285.399 490.332C284.131 493.545 282.702 496.514 281.134 499.196C279.585 501.869 277.929 504.304 276.18 506.477C274.477 508.608 272.814 510.824 271.226 513.201C269.629 515.542 268.159 518.184 266.838 521.087C265.513 523.991 264.431 527.269 263.628 530.806C262.828 534.396 262.272 538.17 261.976 542.032L262.105 539.094C262.163 538.116 262.255 537.147 262.33 536.169C262.404 535.191 262.558 534.244 262.67 533.276C262.782 532.307 262.972 531.376 263.122 530.427C263.817 526.651 264.82 523.112 266.095 519.941C268.65 513.597 271.982 508.652 275.328 504.1C278.591 499.614 281.623 494.435 283.915 488.255C285.072 485.219 286.011 481.898 286.706 478.381C288.074 471.368 288.074 463.644 286.706 456.632C286.01 453.115 285.072 449.794 283.916 446.755C281.618 440.575 278.588 435.393 275.329 430.907C271.984 426.364 268.651 421.409 266.097 415.052C264.822 411.883 263.818 408.345 263.124 404.57C262.974 403.621 262.794 402.671 262.672 401.721C262.549 400.772 262.419 399.803 262.331 398.828C262.244 397.853 262.166 396.881 262.107 395.903L261.976 392.981Z" fill="#0066CC"/>
<path d="M284.638 542.055C284.342 538.191 283.787 534.416 282.987 530.825C282.183 527.287 281.1 524.008 279.775 521.103C278.452 518.2 276.982 515.559 275.385 513.217C273.795 510.843 272.132 508.624 270.431 506.493C268.683 504.319 267.026 501.884 265.477 499.212C263.909 496.529 262.48 493.561 261.212 490.348C259.927 487.075 258.889 483.473 258.128 479.647C256.545 471.845 256.545 463.187 258.128 455.385C258.891 451.565 259.929 447.969 261.212 444.7C262.48 441.487 263.909 438.518 265.477 435.836C267.026 433.163 268.682 430.728 270.431 428.555C272.134 426.424 273.797 424.208 275.385 421.83C276.982 419.491 278.453 416.85 279.775 413.948C281.1 411.044 282.184 407.766 282.988 404.229C283.789 400.631 284.344 396.851 284.638 392.981L284.509 395.918C284.451 396.897 284.359 397.865 284.285 398.844C284.21 399.822 284.057 400.768 283.944 401.737C283.832 402.706 283.642 403.637 283.492 404.586C282.797 408.361 281.794 411.901 280.519 415.071C277.963 421.444 274.629 426.383 271.283 430.926C268.019 435.402 264.985 440.585 262.688 446.767C261.531 449.804 260.592 453.125 259.897 456.641C258.529 463.654 258.529 471.378 259.897 478.39C260.592 481.908 261.53 485.231 262.686 488.271C264.985 494.45 268.017 499.633 271.273 504.119C274.619 508.662 277.951 513.616 280.508 519.973C281.783 523.142 282.786 526.681 283.48 530.455C283.631 531.405 283.811 532.355 283.933 533.304C284.055 534.254 284.185 535.226 284.273 536.198C284.36 537.17 284.438 538.145 284.498 539.123L284.638 542.055Z" fill="#0066CC"/>
</g>
<path d="M262.238 537.206H284.366L284.674 562.052C284.752 568.387 279.638 573.565 273.302 573.565C266.967 573.565 261.852 568.387 261.931 562.052L262.238 537.206Z" fill="#0066CC"/>
<g clip-path="url(#clip3)">
<path d="M294.41 208.956C293.943 209.243 293.577 209.67 293.363 210.178C293.148 210.685 293.095 211.248 293.211 211.787L291.693 213.033C291.188 212.64 290.596 212.376 289.968 212.263L288.634 209.543C289.193 208.93 289.549 208.156 289.654 207.329C289.758 206.502 289.605 205.662 289.216 204.927L292.718 202.023C293.287 202.547 293.994 202.892 294.753 203.017C295.513 203.142 296.292 203.041 296.995 202.726C297.699 202.412 298.297 201.897 298.717 201.245C299.137 200.594 299.361 199.832 299.361 199.054C299.361 198.276 299.137 197.515 298.717 196.863C298.297 196.211 297.699 195.697 296.995 195.382C296.292 195.068 295.513 194.967 294.753 195.091C293.994 195.216 293.287 195.561 292.718 196.085L289.219 193.185C289.607 192.45 289.759 191.611 289.655 190.784C289.55 189.957 289.194 189.183 288.636 188.57L289.971 185.85C290.598 185.735 291.189 185.469 291.693 185.075L293.211 186.321C293.086 186.904 293.159 187.513 293.419 188.049C293.679 188.585 294.11 189.016 294.642 189.274C295.174 189.531 295.777 189.6 296.352 189.468C296.928 189.336 297.443 189.012 297.813 188.547C298.184 188.083 298.389 187.506 298.395 186.909C298.401 186.312 298.207 185.731 297.846 185.259C297.485 184.787 296.977 184.453 296.404 184.309C295.831 184.165 295.228 184.221 294.69 184.468L293.053 183.124C293.236 182.552 293.29 181.946 293.211 181.35C293.131 180.755 292.921 180.184 292.596 179.682C292.27 179.179 291.838 178.756 291.33 178.445C290.821 178.133 290.251 177.94 289.659 177.881L289.294 175.832C289.496 175.653 289.669 175.443 289.807 175.21C290.097 174.729 290.228 174.168 290.182 173.607C290.136 173.045 289.915 172.513 289.55 172.087C289.186 171.661 288.697 171.364 288.154 171.237C287.611 171.11 287.043 171.161 286.531 171.383C286.018 171.604 285.589 171.984 285.304 172.468C285.02 172.952 284.894 173.515 284.947 174.076C284.999 174.637 285.226 175.166 285.595 175.588C285.964 176.01 286.457 176.302 287.001 176.423L287.346 178.365C286.854 178.639 286.424 179.015 286.085 179.469C285.747 179.922 285.507 180.444 285.383 180.998L283.078 180.99C282.849 180.442 282.444 179.988 281.928 179.701C281.413 179.413 280.817 179.31 280.236 179.407C279.655 179.504 279.123 179.796 278.727 180.235C278.33 180.675 278.091 181.237 278.048 181.83C278.006 182.424 278.162 183.015 278.492 183.508C278.821 184.001 279.306 184.367 279.866 184.548C280.427 184.729 281.032 184.714 281.583 184.505C282.134 184.296 282.6 183.906 282.905 183.397C282.905 183.389 282.913 183.38 282.919 183.371L285.561 183.381C285.881 184.191 286.453 184.873 287.19 185.324C287.291 185.386 287.395 185.442 287.5 185.495L286.593 187.368C285.65 187.15 284.66 187.288 283.809 187.755C282.958 188.222 282.305 188.986 281.971 189.905L276.965 191.196C276.676 190.454 276.172 189.818 275.52 189.369C274.868 188.921 274.098 188.681 273.31 188.681C272.521 188.681 271.751 188.921 271.099 189.369C270.447 189.818 269.944 190.454 269.655 191.196L264.647 189.909C264.314 188.989 263.661 188.224 262.81 187.756C261.959 187.289 260.969 187.15 260.025 187.368L259.106 185.491C259.211 185.438 259.315 185.384 259.416 185.32C260.154 184.869 260.726 184.187 261.045 183.377L263.689 183.367C263.689 183.376 263.698 183.385 263.703 183.393C264.009 183.905 264.476 184.298 265.03 184.508C265.583 184.718 266.191 184.734 266.754 184.553C267.318 184.371 267.804 184.003 268.136 183.508C268.467 183.012 268.624 182.419 268.581 181.822C268.537 181.226 268.297 180.662 267.898 180.22C267.499 179.779 266.964 179.487 266.381 179.39C265.797 179.293 265.198 179.398 264.681 179.688C264.163 179.978 263.758 180.435 263.529 180.987L261.224 180.994C261.1 180.44 260.862 179.919 260.525 179.465C260.187 179.011 259.758 178.634 259.267 178.36L259.612 176.417C260.189 176.289 260.705 175.967 261.079 175.505C261.452 175.043 261.66 174.467 261.67 173.87C261.679 173.273 261.489 172.691 261.131 172.217C260.772 171.742 260.266 171.404 259.694 171.257C259.123 171.11 258.518 171.162 257.979 171.405C257.44 171.648 256.998 172.067 256.724 172.596C256.45 173.124 256.36 173.731 256.469 174.318C256.578 174.904 256.88 175.436 257.325 175.828L256.959 177.881C256.367 177.94 255.797 178.133 255.289 178.445C254.78 178.756 254.348 179.179 254.022 179.682C253.697 180.184 253.487 180.755 253.408 181.35C253.328 181.946 253.382 182.552 253.565 183.124L251.928 184.468C251.39 184.221 250.785 184.164 250.211 184.308C249.637 184.451 249.128 184.786 248.766 185.259C248.404 185.731 248.21 186.314 248.216 186.911C248.222 187.509 248.427 188.087 248.799 188.552C249.17 189.018 249.685 189.342 250.262 189.474C250.839 189.606 251.442 189.538 251.975 189.28C252.509 189.022 252.94 188.589 253.2 188.052C253.46 187.515 253.533 186.905 253.407 186.321L254.925 185.075C255.431 185.468 256.023 185.732 256.651 185.845L257.985 188.564C257.427 189.178 257.071 189.952 256.966 190.778C256.862 191.605 257.014 192.445 257.402 193.18L253.903 196.085C253.334 195.561 252.627 195.216 251.867 195.091C251.108 194.967 250.329 195.068 249.625 195.382C248.922 195.697 248.323 196.211 247.904 196.863C247.484 197.515 247.26 198.276 247.26 199.054C247.26 199.832 247.484 200.594 247.904 201.245C248.323 201.897 248.922 202.412 249.625 202.726C250.329 203.041 251.108 203.142 251.867 203.017C252.627 202.892 253.334 202.547 253.903 202.023L257.402 204.922C257.014 205.657 256.862 206.497 256.966 207.324C257.071 208.15 257.427 208.924 257.985 209.538L256.651 212.257C256.023 212.371 255.431 212.635 254.925 213.028L253.407 211.781C253.532 211.198 253.458 210.59 253.199 210.054C252.939 209.519 252.508 209.087 251.976 208.83C251.444 208.573 250.842 208.505 250.267 208.636C249.692 208.768 249.177 209.092 248.807 209.556C248.437 210.02 248.232 210.597 248.226 211.194C248.22 211.79 248.413 212.371 248.774 212.843C249.135 213.314 249.643 213.649 250.215 213.793C250.787 213.936 251.391 213.88 251.928 213.634L253.565 214.978C253.382 215.55 253.328 216.156 253.407 216.752C253.486 217.347 253.696 217.918 254.022 218.42C254.347 218.923 254.78 219.346 255.288 219.657C255.797 219.968 256.367 220.161 256.959 220.22L257.324 222.269C256.906 222.636 256.615 223.128 256.49 223.673C256.366 224.219 256.415 224.79 256.631 225.305C256.847 225.821 257.219 226.254 257.693 226.543C258.167 226.832 258.719 226.961 259.271 226.914C259.822 226.866 260.345 226.643 260.764 226.277C261.182 225.911 261.476 225.421 261.602 224.876C261.729 224.331 261.681 223.759 261.467 223.243C261.253 222.727 260.883 222.293 260.41 222.002C260.163 221.853 259.893 221.747 259.611 221.688L259.265 219.746C259.758 219.473 260.188 219.097 260.526 218.643C260.865 218.189 261.104 217.668 261.229 217.114L263.534 217.122C263.763 217.671 264.168 218.126 264.683 218.413C265.199 218.701 265.795 218.805 266.376 218.708C266.958 218.612 267.49 218.32 267.887 217.88C268.284 217.441 268.524 216.879 268.567 216.285C268.61 215.691 268.454 215.099 268.124 214.606C267.794 214.113 267.31 213.746 266.749 213.564C266.188 213.383 265.583 213.398 265.031 213.607C264.48 213.816 264.014 214.206 263.708 214.716C263.708 214.723 263.699 214.732 263.694 214.74L261.051 214.731C260.731 213.921 260.159 213.239 259.422 212.788C259.32 212.726 259.217 212.669 259.112 212.617L260.03 210.741C260.844 210.929 261.696 210.853 262.465 210.524C263.234 210.195 263.882 209.63 264.315 208.908C264.45 208.685 264.562 208.449 264.651 208.204L269.658 206.915C269.948 207.657 270.451 208.293 271.103 208.742C271.755 209.191 272.525 209.43 273.314 209.43C274.102 209.43 274.872 209.191 275.524 208.742C276.176 208.293 276.679 207.657 276.969 206.915L281.976 208.204C282.31 209.123 282.963 209.887 283.814 210.354C284.665 210.822 285.655 210.959 286.599 210.741L287.517 212.617C287.412 212.669 287.308 212.726 287.207 212.788C286.469 213.239 285.897 213.921 285.578 214.731L282.936 214.74C282.936 214.732 282.927 214.723 282.922 214.716C282.616 214.204 282.149 213.811 281.596 213.601C281.043 213.39 280.436 213.374 279.872 213.555C279.309 213.737 278.823 214.104 278.491 214.599C278.16 215.094 278.003 215.687 278.046 216.283C278.089 216.879 278.329 217.444 278.727 217.885C279.126 218.326 279.66 218.619 280.243 218.716C280.826 218.812 281.425 218.708 281.942 218.419C282.459 218.13 282.865 217.673 283.094 217.122L285.4 217.114C285.523 217.667 285.761 218.188 286.097 218.642C286.434 219.095 286.862 219.472 287.353 219.746L287.007 221.688C286.432 221.818 285.918 222.139 285.546 222.601C285.174 223.063 284.967 223.638 284.959 224.233C284.95 224.828 285.14 225.409 285.498 225.882C285.856 226.355 286.361 226.692 286.932 226.838C287.502 226.985 288.105 226.933 288.643 226.69C289.18 226.447 289.621 226.029 289.895 225.501C290.168 224.974 290.258 224.369 290.149 223.784C290.04 223.199 289.74 222.668 289.296 222.276L289.661 220.228C290.252 220.169 290.823 219.976 291.331 219.665C291.839 219.353 292.272 218.931 292.598 218.428C292.923 217.925 293.133 217.355 293.212 216.76C293.291 216.164 293.238 215.558 293.055 214.986L294.691 213.642C295.103 213.831 295.557 213.909 296.007 213.868C296.458 213.827 296.89 213.67 297.263 213.411C297.635 213.151 297.935 212.799 298.133 212.388C298.331 211.977 298.421 211.521 298.394 211.064C298.367 210.608 298.223 210.166 297.977 209.782C297.731 209.398 297.392 209.085 296.991 208.873C296.59 208.661 296.142 208.558 295.69 208.572C295.238 208.587 294.797 208.72 294.411 208.957L294.41 208.956ZM283.64 203.378C282.78 203.904 282.151 204.741 281.879 205.72L277.14 204.501C276.939 203.626 276.45 202.845 275.754 202.286C275.058 201.727 274.196 201.423 273.307 201.423C272.418 201.423 271.556 201.727 270.86 202.286C270.164 202.845 269.675 203.626 269.474 204.501L264.735 205.72C264.574 205.146 264.29 204.617 263.902 204.168C263.513 203.72 263.032 203.364 262.491 203.127C261.951 202.89 261.365 202.777 260.776 202.797C260.187 202.816 259.61 202.968 259.086 203.241L255.108 199.943C255.243 199.358 255.243 198.749 255.108 198.164L259.086 194.868C259.61 195.141 260.187 195.293 260.777 195.313C261.366 195.333 261.952 195.221 262.493 194.984C263.034 194.746 263.516 194.39 263.904 193.942C264.292 193.493 264.577 192.963 264.738 192.389L269.477 193.609C269.678 194.484 270.166 195.265 270.862 195.824C271.558 196.382 272.421 196.687 273.31 196.687C274.198 196.687 275.061 196.382 275.757 195.824C276.453 195.265 276.941 194.484 277.143 193.609L281.882 192.389C282.041 192.963 282.325 193.495 282.713 193.944C283.101 194.394 283.583 194.75 284.124 194.988C284.666 195.225 285.253 195.338 285.842 195.317C286.432 195.296 287.01 195.143 287.533 194.868L291.513 198.164C291.376 198.749 291.376 199.358 291.513 199.943L287.533 203.239C286.928 202.922 286.251 202.769 285.569 202.793C284.888 202.817 284.224 203.019 283.641 203.378H283.64Z" fill="white"/>
</g>
<g clip-path="url(#clip4)">
<path d="M294.41 153.204C293.943 153.491 293.577 153.919 293.363 154.426C293.148 154.933 293.095 155.496 293.211 156.035L291.693 157.281C291.188 156.888 290.596 156.624 289.968 156.511L288.634 153.791C289.193 153.178 289.549 152.404 289.654 151.577C289.758 150.75 289.605 149.91 289.216 149.175L292.718 146.271C293.287 146.795 293.994 147.14 294.753 147.265C295.513 147.39 296.292 147.289 296.995 146.975C297.699 146.66 298.297 146.145 298.717 145.494C299.137 144.842 299.361 144.08 299.361 143.302C299.361 142.524 299.137 141.763 298.717 141.111C298.297 140.459 297.699 139.945 296.995 139.63C296.292 139.316 295.513 139.215 294.753 139.339C293.994 139.464 293.287 139.81 292.718 140.333L289.219 137.433C289.607 136.698 289.759 135.859 289.655 135.032C289.55 134.205 289.194 133.431 288.636 132.818L289.971 130.098C290.598 129.983 291.189 129.717 291.693 129.323L293.211 130.569C293.086 131.153 293.159 131.761 293.419 132.297C293.679 132.833 294.11 133.264 294.642 133.522C295.174 133.779 295.777 133.848 296.352 133.716C296.928 133.584 297.443 133.26 297.813 132.795C298.184 132.331 298.389 131.754 298.395 131.157C298.401 130.561 298.207 129.979 297.846 129.507C297.485 129.036 296.977 128.701 296.404 128.557C295.831 128.414 295.227 128.469 294.69 128.716L293.053 127.372C293.236 126.8 293.29 126.194 293.211 125.598C293.131 125.003 292.921 124.433 292.596 123.93C292.27 123.427 291.838 123.004 291.33 122.693C290.821 122.381 290.251 122.188 289.659 122.129L289.294 120.08C289.496 119.901 289.669 119.691 289.807 119.458C290.097 118.978 290.228 118.416 290.182 117.855C290.136 117.293 289.915 116.761 289.55 116.335C289.186 115.91 288.697 115.612 288.154 115.485C287.611 115.358 287.043 115.409 286.531 115.631C286.018 115.852 285.589 116.232 285.304 116.716C285.02 117.2 284.894 117.763 284.947 118.324C284.999 118.885 285.226 119.414 285.595 119.836C285.964 120.258 286.457 120.55 287.001 120.671L287.346 122.613C286.853 122.887 286.424 123.263 286.085 123.717C285.747 124.171 285.507 124.692 285.383 125.246L283.078 125.239C282.849 124.69 282.444 124.236 281.928 123.949C281.413 123.661 280.816 123.558 280.236 123.655C279.655 123.752 279.123 124.044 278.727 124.483C278.33 124.923 278.091 125.485 278.048 126.079C278.006 126.672 278.162 127.263 278.491 127.756C278.821 128.249 279.306 128.616 279.866 128.796C280.427 128.977 281.032 128.962 281.583 128.753C282.134 128.544 282.6 128.154 282.905 127.645C282.905 127.637 282.913 127.628 282.919 127.619L285.561 127.629C285.881 128.439 286.453 129.121 287.19 129.572C287.291 129.634 287.395 129.69 287.5 129.743L286.593 131.616C285.65 131.398 284.66 131.536 283.809 132.003C282.958 132.47 282.305 133.234 281.971 134.153L276.965 135.444C276.676 134.702 276.172 134.066 275.52 133.617C274.868 133.169 274.098 132.929 273.31 132.929C272.521 132.929 271.751 133.169 271.099 133.617C270.447 134.066 269.944 134.702 269.654 135.444L264.647 134.157C264.314 133.237 263.661 132.472 262.81 132.004C261.959 131.537 260.969 131.399 260.025 131.616L259.106 129.739C259.211 129.686 259.315 129.632 259.416 129.568C260.154 129.117 260.726 128.435 261.045 127.626L263.689 127.615C263.689 127.624 263.698 127.633 263.703 127.641C264.009 128.153 264.476 128.546 265.03 128.756C265.583 128.966 266.191 128.982 266.754 128.801C267.318 128.619 267.804 128.251 268.136 127.756C268.467 127.261 268.624 126.667 268.58 126.07C268.537 125.474 268.297 124.91 267.898 124.468C267.499 124.027 266.964 123.735 266.38 123.638C265.797 123.542 265.198 123.647 264.681 123.936C264.163 124.226 263.758 124.683 263.529 125.235L261.223 125.242C261.1 124.688 260.862 124.167 260.525 123.713C260.187 123.259 259.758 122.882 259.266 122.608L259.612 120.666C260.189 120.537 260.705 120.215 261.078 119.753C261.452 119.291 261.66 118.715 261.669 118.118C261.679 117.521 261.489 116.939 261.131 116.465C260.772 115.991 260.266 115.652 259.694 115.505C259.123 115.358 258.518 115.41 257.979 115.653C257.44 115.896 256.998 116.315 256.724 116.844C256.45 117.373 256.36 117.979 256.469 118.566C256.578 119.152 256.88 119.684 257.325 120.076L256.959 122.129C256.367 122.188 255.797 122.381 255.288 122.693C254.78 123.004 254.348 123.427 254.022 123.93C253.697 124.433 253.487 125.003 253.408 125.598C253.328 126.194 253.382 126.8 253.565 127.372L251.928 128.716C251.39 128.469 250.785 128.412 250.211 128.556C249.637 128.699 249.128 129.034 248.766 129.507C248.404 129.98 248.21 130.562 248.216 131.159C248.222 131.757 248.427 132.335 248.799 132.801C249.17 133.266 249.685 133.591 250.262 133.723C250.838 133.855 251.442 133.786 251.975 133.528C252.508 133.27 252.94 132.837 253.2 132.3C253.46 131.763 253.533 131.153 253.407 130.569L254.925 129.323C255.431 129.716 256.023 129.98 256.651 130.093L257.984 132.812C257.427 133.426 257.071 134.2 256.966 135.027C256.862 135.853 257.014 136.693 257.402 137.428L253.903 140.333C253.334 139.81 252.627 139.464 251.867 139.339C251.108 139.215 250.329 139.316 249.625 139.63C248.922 139.945 248.323 140.459 247.903 141.111C247.484 141.763 247.26 142.524 247.26 143.302C247.26 144.08 247.484 144.842 247.903 145.494C248.323 146.145 248.922 146.66 249.625 146.975C250.329 147.289 251.108 147.39 251.867 147.265C252.627 147.14 253.334 146.795 253.903 146.271L257.402 149.17C257.014 149.906 256.862 150.745 256.966 151.572C257.071 152.398 257.427 153.172 257.984 153.786L256.651 156.506C256.023 156.619 255.431 156.883 254.925 157.276L253.407 156.029C253.532 155.446 253.458 154.838 253.199 154.302C252.939 153.767 252.508 153.335 251.976 153.078C251.444 152.821 250.842 152.753 250.267 152.885C249.692 153.016 249.177 153.34 248.807 153.805C248.437 154.269 248.232 154.845 248.226 155.442C248.22 156.038 248.413 156.619 248.774 157.091C249.135 157.562 249.643 157.897 250.215 158.041C250.787 158.184 251.391 158.128 251.928 157.882L253.565 159.227C253.382 159.798 253.328 160.404 253.407 161C253.486 161.596 253.696 162.166 254.022 162.668C254.347 163.171 254.78 163.594 255.288 163.905C255.796 164.217 256.367 164.409 256.959 164.468L257.324 166.517C256.906 166.884 256.615 167.376 256.49 167.922C256.366 168.467 256.415 169.038 256.631 169.554C256.847 170.069 257.219 170.502 257.693 170.791C258.167 171.08 258.719 171.21 259.271 171.162C259.822 171.114 260.345 170.891 260.763 170.525C261.182 170.159 261.476 169.669 261.602 169.124C261.729 168.579 261.681 168.008 261.467 167.491C261.253 166.975 260.883 166.541 260.41 166.25C260.163 166.101 259.893 165.996 259.611 165.937L259.265 163.994C259.758 163.721 260.188 163.345 260.526 162.891C260.865 162.438 261.104 161.916 261.229 161.362L263.534 161.37C263.763 161.919 264.168 162.374 264.683 162.661C265.199 162.949 265.795 163.053 266.376 162.957C266.958 162.86 267.49 162.568 267.887 162.129C268.284 161.689 268.524 161.127 268.567 160.533C268.61 159.939 268.454 159.348 268.124 158.854C267.794 158.361 267.31 157.994 266.749 157.813C266.188 157.631 265.583 157.646 265.031 157.855C264.48 158.064 264.014 158.454 263.708 158.964C263.708 158.971 263.699 158.98 263.694 158.988L261.051 158.979C260.731 158.169 260.159 157.487 259.421 157.037C259.32 156.974 259.217 156.917 259.112 156.866L260.03 154.989C260.844 155.177 261.696 155.101 262.465 154.772C263.234 154.443 263.881 153.878 264.315 153.156C264.45 152.933 264.562 152.697 264.651 152.452L269.658 151.163C269.948 151.905 270.451 152.541 271.103 152.99C271.755 153.439 272.525 153.679 273.313 153.679C274.102 153.679 274.872 153.439 275.524 152.99C276.176 152.541 276.679 151.905 276.969 151.163L281.976 152.452C282.31 153.371 282.963 154.136 283.814 154.603C284.665 155.07 285.655 155.207 286.598 154.989L287.517 156.866C287.412 156.917 287.308 156.974 287.207 157.037C286.469 157.487 285.897 158.169 285.578 158.979L282.936 158.988C282.936 158.98 282.927 158.971 282.922 158.964C282.616 158.452 282.149 158.059 281.596 157.849C281.043 157.638 280.436 157.622 279.872 157.804C279.309 157.985 278.823 158.352 278.491 158.847C278.16 159.342 278.003 159.935 278.046 160.531C278.089 161.128 278.329 161.692 278.727 162.133C279.126 162.574 279.66 162.867 280.243 162.964C280.826 163.061 281.425 162.956 281.942 162.667C282.459 162.378 282.865 161.921 283.094 161.37L285.4 161.362C285.523 161.916 285.761 162.436 286.097 162.89C286.434 163.343 286.862 163.72 287.353 163.994L287.007 165.937C286.432 166.066 285.918 166.388 285.546 166.849C285.174 167.311 284.967 167.886 284.959 168.481C284.95 169.077 285.14 169.657 285.498 170.13C285.856 170.603 286.361 170.94 286.931 171.086C287.502 171.233 288.105 171.181 288.643 170.938C289.18 170.696 289.621 170.277 289.895 169.749C290.168 169.222 290.258 168.617 290.149 168.032C290.04 167.447 289.74 166.916 289.296 166.525L289.661 164.476C290.252 164.417 290.823 164.224 291.331 163.913C291.839 163.602 292.272 163.179 292.598 162.676C292.923 162.173 293.133 161.603 293.212 161.008C293.291 160.412 293.238 159.806 293.055 159.234L294.691 157.89C295.103 158.079 295.557 158.157 296.007 158.116C296.457 158.076 296.89 157.918 297.263 157.659C297.635 157.399 297.935 157.047 298.133 156.636C298.331 156.225 298.421 155.769 298.394 155.312C298.367 154.856 298.223 154.414 297.977 154.03C297.731 153.647 297.392 153.333 296.991 153.121C296.59 152.909 296.142 152.806 295.69 152.821C295.238 152.835 294.797 152.968 294.411 153.206L294.41 153.204ZM283.64 147.626C282.78 148.152 282.151 148.989 281.879 149.968L277.14 148.749C276.939 147.874 276.45 147.093 275.754 146.534C275.058 145.975 274.196 145.671 273.307 145.671C272.418 145.671 271.556 145.975 270.86 146.534C270.164 147.093 269.675 147.874 269.474 148.749L264.735 149.968C264.574 149.395 264.29 148.865 263.901 148.416C263.513 147.968 263.032 147.612 262.491 147.375C261.951 147.138 261.365 147.025 260.776 147.045C260.187 147.064 259.61 147.216 259.086 147.489L255.108 144.191C255.242 143.606 255.242 142.997 255.108 142.412L259.086 139.116C259.61 139.389 260.187 139.542 260.777 139.562C261.366 139.582 261.952 139.469 262.493 139.232C263.034 138.994 263.516 138.639 263.904 138.19C264.292 137.741 264.577 137.211 264.738 136.637L269.476 137.857C269.678 138.732 270.166 139.513 270.862 140.072C271.558 140.631 272.421 140.935 273.31 140.935C274.198 140.935 275.061 140.631 275.757 140.072C276.453 139.513 276.941 138.732 277.143 137.857L281.882 136.637C282.041 137.211 282.325 137.743 282.713 138.192C283.101 138.642 283.583 138.998 284.124 139.236C284.666 139.473 285.253 139.586 285.842 139.565C286.432 139.544 287.01 139.391 287.533 139.116L291.513 142.412C291.376 142.997 291.376 143.606 291.513 144.191L287.533 147.488C286.928 147.171 286.251 147.017 285.569 147.041C284.888 147.065 284.224 147.267 283.641 147.626H283.64Z" fill="white"/>
</g>
<path d="M274.448 560.939C274.215 561.419 273.544 561.45 273.268 560.995C271.03 557.303 269.656 553.154 269.247 548.857L269.06 546.902L278.756 546.902L277.477 553.618C277.253 554.791 276.876 555.93 276.355 557.005L274.448 560.939Z" fill="white"/>
<defs>
<filter id="filter0_f" x="25" y="0" width="492" height="526" filterUnits="userSpaceOnUse" color-interpolation-filters="sRGB">
<feFlood flood-opacity="0" result="BackgroundImageFix"/>
<feBlend mode="normal" in="SourceGraphic" in2="BackgroundImageFix" result="shape"/>
<feGaussianBlur stdDeviation="5" result="effect1_foregroundBlur"/>
</filter>
<clipPath id="clip0">
<rect width="472" height="506" fill="white" transform="translate(35 10)"/>
</clipPath>
<clipPath id="clip1">
<rect width="32.7236" height="149.074" fill="white" transform="translate(256.941 259.661)"/>
</clipPath>
<clipPath id="clip2">
<rect width="32.7236" height="149.074" fill="white" transform="translate(256.941 388.132)"/>
</clipPath>
<clipPath id="clip3">
<rect width="52.1153" height="55.7513" fill="white" transform="translate(247.245 171.188)"/>
</clipPath>
<clipPath id="clip4">
<rect width="52.1153" height="55.7513" fill="white" transform="translate(247.245 115.436)"/>
</clipPath>
</defs>
</svg>
