<svg width="17" height="16" viewBox="0 0 17 16" fill="none" xmlns="http://www.w3.org/2000/svg">
<path d="M7.39502 0.46683L5.92958 0.0829134C5.29475 -0.0856053 4.61898 0.00493962 4.05091 0.334632C3.48284 0.664325 3.06899 1.20616 2.90039 1.84097L2.53052 3.22915C3.74083 1.7222 5.48079 0.734159 7.39502 0.46683Z" fill="#97CBFF"/>
<path d="M0.943421 9.20563L0.582914 10.5634C0.414395 11.1982 0.504939 11.874 0.834632 12.442C1.16432 13.0101 1.70616 13.424 2.34097 13.5926L3.74554 13.9671C2.24628 12.7885 1.24585 11.0886 0.943421 9.20563Z" fill="#97CBFF"/>
<path d="M14.652 2.3981L13.0742 1.97906C13.8703 2.59143 14.5368 3.35581 15.0351 4.22784C15.5334 5.09987 15.8536 6.06218 15.977 7.05893L16.4101 5.42027C16.5765 4.78642 16.4849 4.11246 16.1554 3.546C15.8259 2.97955 15.2853 2.56677 14.652 2.3981Z" fill="#97CBFF"/>
<path d="M9.55579 15.5097L11.0657 15.9171C11.7005 16.0856 12.3763 15.995 12.9444 15.6653C13.5124 15.3357 13.9263 14.7938 14.0949 14.159L14.5209 12.5578C13.3197 14.1578 11.5352 15.2187 9.55579 15.5097Z" fill="#97CBFF"/>
<path d="M8.49777 1.06146C7.12591 1.06146 5.78486 1.46827 4.6442 2.23043C3.50354 2.99259 2.6145 4.07589 2.08952 5.34332C1.56453 6.61075 1.42717 8.0054 1.6948 9.3509C1.96244 10.6964 2.62305 11.9323 3.5931 12.9024C4.56315 13.8724 5.79908 14.533 7.14457 14.8007C8.49007 15.0683 9.88472 14.9309 11.1522 14.406C12.4196 13.881 13.5029 12.9919 14.265 11.8513C15.0272 10.7106 15.434 9.36957 15.434 7.9977C15.434 6.1581 14.7032 4.39384 13.4024 3.09304C12.1016 1.79224 10.3374 1.06146 8.49777 1.06146ZM4.56965 4.52139C4.64381 4.13683 4.83034 3.7829 5.10563 3.50434C5.38092 3.22577 5.73263 3.03509 6.11628 2.95639C6.49994 2.87768 6.89831 2.9145 7.26104 3.06218C7.62378 3.20986 7.93458 3.46177 8.15416 3.78607C8.37374 4.11037 8.49224 4.49249 8.49467 4.88412C8.4971 5.27576 8.38337 5.65932 8.16783 5.98632C7.9523 6.31332 7.64466 6.56908 7.28379 6.72126C6.92292 6.87344 6.52503 6.9152 6.14043 6.84127C5.88493 6.79216 5.64161 6.69319 5.42437 6.55C5.20713 6.40682 5.02024 6.22224 4.87437 6.00679C4.72849 5.79136 4.6265 5.54928 4.57421 5.29441C4.52193 5.03954 4.52038 4.77686 4.56965 4.52139ZM7.45136 10.5142C7.37677 10.8986 7.18993 11.2522 6.91444 11.5304C6.63896 11.8086 6.28719 11.9989 5.90359 12.0773C5.51998 12.1557 5.12176 12.1186 4.75923 11.9707C4.3967 11.8228 4.08614 11.5708 3.86677 11.2465C3.64741 10.9222 3.5291 10.5402 3.52678 10.1487C3.52446 9.75714 3.63824 9.37372 3.85375 9.04684C4.06926 8.71996 4.37682 8.46429 4.73757 8.31214C5.09832 8.15999 5.49608 8.11819 5.88058 8.192C6.13632 8.2411 6.37987 8.34016 6.59728 8.48349C6.81469 8.62683 7.0017 8.81164 7.1476 9.02734C7.29351 9.24304 7.39544 9.48539 7.44756 9.74053C7.49968 9.99567 7.50098 10.2586 7.45136 10.5142ZM8.29177 8.91068C8.12107 8.87766 7.96398 8.79482 7.84031 8.67263C7.71663 8.55044 7.63192 8.39436 7.59684 8.22407C7.56177 8.05379 7.57791 7.87693 7.64323 7.71581C7.70855 7.55469 7.82011 7.41652 7.96386 7.31873C8.10761 7.22095 8.2771 7.16792 8.45095 7.16634C8.6248 7.16476 8.79523 7.2147 8.94073 7.30987C9.08623 7.40503 9.20029 7.54115 9.26852 7.70106C9.33675 7.86097 9.3561 8.0375 9.32413 8.20839C9.30278 8.32245 9.25909 8.43117 9.19558 8.52829C9.13206 8.6254 9.04997 8.709 8.95402 8.77427C8.85808 8.83954 8.75017 8.88519 8.63651 8.9086C8.52286 8.93201 8.40569 8.93272 8.29177 8.91068ZM12.4235 11.4693C12.3494 11.8539 12.1629 12.2078 11.8876 12.4864C11.6123 12.765 11.2606 12.9556 10.8769 13.0343C10.4933 13.113 10.0949 13.0762 9.73215 12.9286C9.36942 12.7809 9.05862 12.529 8.83904 12.2047C8.61946 11.8804 8.50096 11.4982 8.49853 11.1066C8.49609 10.715 8.60983 10.3314 8.82536 10.0044C9.04089 9.6774 9.34854 9.42165 9.70941 9.26947C10.0703 9.11729 10.4682 9.07553 10.8528 9.14945C11.1083 9.19857 11.3516 9.29754 11.5688 9.44073C11.7861 9.58391 11.973 9.76849 12.1188 9.98393C12.2647 10.1994 12.3667 10.4414 12.419 10.6963C12.4713 10.9512 12.4728 11.2139 12.4235 11.4693ZM11.1126 7.79872C10.7281 7.72456 10.3741 7.53804 10.0956 7.26275C9.817 6.98745 9.62631 6.63575 9.54761 6.25209C9.46891 5.86844 9.50572 5.47006 9.6534 5.10733C9.80108 4.7446 10.053 4.4338 10.3773 4.21422C10.7016 3.99464 11.0837 3.87614 11.4753 3.87371C11.867 3.87127 12.2505 3.98501 12.5775 4.20054C12.9045 4.41607 13.1603 4.72372 13.3125 5.08459C13.4647 5.44546 13.5064 5.84334 13.4325 6.22795C13.3837 6.48366 13.2849 6.72723 13.1418 6.94473C12.9987 7.16223 12.8142 7.34939 12.5987 7.4955C12.3832 7.64161 12.1411 7.7438 11.8861 7.79624C11.6311 7.84867 11.3682 7.85031 11.1126 7.80107V7.79872Z" fill="#97CBFF"/>
</svg>
