<svg width="16" height="16" viewBox="0 0 16 16" fill="none" xmlns="http://www.w3.org/2000/svg">
<g clip-path="url(#clip0)">
<path d="M11.1476 0H5.33508C2.66036 0 0.491333 2.16903 0.491333 4.84375V10.6562C0.491333 13.331 2.66036 15.5 5.33508 15.5H11.1476C13.8223 15.5 15.9913 13.331 15.9913 10.6562V4.84375C15.9913 2.16903 13.8223 0 11.1476 0ZM14.5382 10.6562C14.5382 12.5259 13.0173 14.0469 11.1476 14.0469H5.33508C3.4654 14.0469 1.94446 12.5259 1.94446 10.6562V4.84375C1.94446 2.97406 3.4654 1.45312 5.33508 1.45312H11.1476C13.0173 1.45312 14.5382 2.97406 14.5382 4.84375V10.6562Z" fill="#97CBFF"/>
<path d="M8.24133 3.875C6.10136 3.875 4.36633 5.61003 4.36633 7.75C4.36633 9.88997 6.10136 11.625 8.24133 11.625C10.3813 11.625 12.1163 9.88997 12.1163 7.75C12.1163 5.61003 10.3813 3.875 8.24133 3.875ZM8.24133 10.1719C6.9064 10.1719 5.81946 9.08494 5.81946 7.75C5.81946 6.41409 6.9064 5.32812 8.24133 5.32812C9.57627 5.32812 10.6632 6.41409 10.6632 7.75C10.6632 9.08494 9.57627 10.1719 8.24133 10.1719Z" fill="#97CBFF"/>
<path d="M12.407 4.10074C12.6922 4.10074 12.9234 3.86956 12.9234 3.5844C12.9234 3.29923 12.6922 3.06805 12.407 3.06805C12.1219 3.06805 11.8907 3.29923 11.8907 3.5844C11.8907 3.86956 12.1219 4.10074 12.407 4.10074Z" fill="#97CBFF"/>
</g>
<defs>
<clipPath id="clip0">
<rect width="15.5" height="15.5" fill="white" transform="translate(0.491333)"/>
</clipPath>
</defs>
</svg>
