<svg width="17" height="17" viewBox="0 0 17 17" fill="none" xmlns="http://www.w3.org/2000/svg">
<g clip-path="url(#clip0)">
<path d="M16.5 3.13397C15.8864 3.40313 15.2326 3.58153 14.5509 3.66816C15.2522 3.24947 15.7874 2.59153 16.039 1.7985C15.3852 2.18831 14.6633 2.46366 13.894 2.61731C13.2732 1.95628 12.3884 1.54688 11.4232 1.54688C9.55041 1.54688 8.04272 3.06694 8.04272 4.93041C8.04272 5.19853 8.06541 5.45634 8.12109 5.70178C5.30888 5.56462 2.82047 4.21678 1.14881 2.16356C0.856969 2.66991 0.685781 3.24947 0.685781 3.87337C0.685781 5.04488 1.28906 6.08334 2.18831 6.68456C1.64484 6.67425 1.11169 6.51647 0.66 6.26794C0.66 6.27825 0.66 6.29166 0.66 6.30506C0.66 7.94887 1.83253 9.31425 3.37012 9.62878C3.09478 9.70406 2.79469 9.74016 2.48325 9.74016C2.26669 9.74016 2.04806 9.72778 1.84284 9.68241C2.28113 11.022 3.52481 12.0068 5.00363 12.0388C3.85275 12.9391 2.39147 13.4815 0.809531 13.4815C0.532125 13.4815 0.266062 13.4692 0 13.4351C1.49841 14.4014 3.27422 14.9531 5.18925 14.9531C11.4139 14.9531 14.817 9.79688 14.817 5.32744C14.817 5.17791 14.8118 5.03353 14.8046 4.89019C15.476 4.41375 16.0401 3.81872 16.5 3.13397Z" fill="#97CBFF"/>
</g>
<defs>
<clipPath id="clip0">
<rect width="16.5" height="16.5" fill="white"/>
</clipPath>
</defs>
</svg>
